G04*
G04 #@! TF.GenerationSoftware,Altium Limited,Altium Designer,18.1.9 (240)*
G04*
G04 Layer_Color=65535*
%FSLAX43Y43*%
%MOMM*%
G71*
G01*
G75*
G36*
X183405Y148070D02*
X183529D01*
Y147947D01*
X183652D01*
Y147823D01*
Y147700D01*
X183775D01*
Y147577D01*
X183899D01*
Y147453D01*
X184146D01*
Y147330D01*
X184269D01*
Y147207D01*
X184392D01*
Y147083D01*
X184639D01*
Y146960D01*
X184886D01*
Y146836D01*
X185256D01*
Y146713D01*
X185350D01*
Y146096D01*
X185132D01*
Y146220D01*
X184639D01*
Y146343D01*
X184392D01*
Y146466D01*
X184146D01*
Y146590D01*
X184022D01*
Y146713D01*
X183775D01*
Y146836D01*
X183652D01*
Y146960D01*
X183529D01*
Y147083D01*
X183405D01*
Y147207D01*
X183282D01*
Y147330D01*
X183159D01*
Y147453D01*
X183035D01*
Y147577D01*
X182912D01*
Y147700D01*
X182789D01*
Y147823D01*
Y147947D01*
X182665D01*
Y148070D01*
Y148193D01*
X183405D01*
Y148070D01*
D02*
G37*
G36*
X175757D02*
Y147947D01*
Y147823D01*
Y147700D01*
X175880D01*
Y147577D01*
Y147453D01*
Y147330D01*
Y147207D01*
X176004D01*
Y147083D01*
Y146960D01*
Y146836D01*
Y146713D01*
X176127D01*
Y146590D01*
Y146466D01*
Y146343D01*
X176250D01*
Y146220D01*
Y146096D01*
Y145973D01*
X176374D01*
Y145850D01*
Y145726D01*
X176497D01*
Y145603D01*
Y145480D01*
X176621D01*
Y145356D01*
Y145233D01*
X176744D01*
Y145109D01*
Y144986D01*
X176867D01*
Y144863D01*
Y144739D01*
X176991D01*
Y144616D01*
Y144493D01*
X177114D01*
Y144369D01*
Y144246D01*
X177237D01*
Y144123D01*
X177361D01*
Y143999D01*
Y143876D01*
X177484D01*
Y143752D01*
X177607D01*
Y143629D01*
X177731D01*
Y143506D01*
Y143382D01*
X177854D01*
Y143259D01*
X177977D01*
Y143136D01*
X178101D01*
Y143012D01*
X178224D01*
Y142889D01*
X178348D01*
Y142766D01*
X178471D01*
Y142642D01*
Y142519D01*
X178594D01*
Y142395D01*
X178718D01*
Y142272D01*
X178841D01*
Y142149D01*
X179088D01*
Y142025D01*
X179211D01*
Y141902D01*
X179334D01*
Y141779D01*
X179458D01*
Y141655D01*
X179581D01*
Y141532D01*
X179828D01*
Y141409D01*
X179951D01*
Y141285D01*
X180075D01*
Y141162D01*
X180321D01*
Y141039D01*
X180568D01*
Y140915D01*
X180691D01*
Y140792D01*
X180938D01*
Y140668D01*
X181185D01*
Y140545D01*
X181432D01*
Y140422D01*
X181678D01*
Y140298D01*
X181925D01*
Y140175D01*
X182295D01*
Y140052D01*
X182665D01*
Y139928D01*
X183035D01*
Y139805D01*
X183405D01*
Y139682D01*
X184022D01*
Y139558D01*
X185009D01*
Y139435D01*
X186613D01*
Y139558D01*
X187476D01*
Y139435D01*
Y139311D01*
Y139188D01*
Y139065D01*
Y138941D01*
X186859D01*
Y138818D01*
X185009D01*
Y138941D01*
X184022D01*
Y139065D01*
X183405D01*
Y139188D01*
X182912D01*
Y139311D01*
X182418D01*
Y139435D01*
X182048D01*
Y139558D01*
X181678D01*
Y139682D01*
X181432D01*
Y139805D01*
X181185D01*
Y139928D01*
X180938D01*
Y140052D01*
X180691D01*
Y140175D01*
X180321D01*
Y140298D01*
X180198D01*
Y140175D01*
X180075D01*
Y140052D01*
X180198D01*
Y139928D01*
Y139805D01*
X180321D01*
Y139682D01*
Y139558D01*
Y139435D01*
X180445D01*
Y139311D01*
Y139188D01*
Y139065D01*
X180568D01*
Y138941D01*
Y138818D01*
Y138695D01*
X180691D01*
Y138571D01*
Y138448D01*
Y138325D01*
Y138201D01*
X180815D01*
Y138078D01*
Y137954D01*
Y137831D01*
Y137708D01*
Y137584D01*
Y137461D01*
Y137338D01*
X180938D01*
Y137214D01*
Y137091D01*
Y136968D01*
Y136844D01*
Y136721D01*
X181062D01*
Y136598D01*
Y136474D01*
Y136351D01*
X181185D01*
Y136227D01*
Y136104D01*
X181308D01*
Y135981D01*
Y135857D01*
X181432D01*
Y135734D01*
X181555D01*
Y135611D01*
X181678D01*
Y135487D01*
Y135364D01*
X181802D01*
Y135241D01*
X181925D01*
Y135117D01*
X182048D01*
Y134994D01*
Y134870D01*
X182172D01*
Y134747D01*
X182295D01*
Y134624D01*
Y134500D01*
X182418D01*
Y134377D01*
X182542D01*
Y134254D01*
Y134130D01*
X182665D01*
Y134007D01*
Y133884D01*
X182789D01*
Y133760D01*
Y133637D01*
X182912D01*
Y133514D01*
Y133390D01*
X183035D01*
Y133267D01*
Y133143D01*
X183159D01*
Y133020D01*
Y132897D01*
X183405D01*
Y133020D01*
Y133143D01*
X183529D01*
Y133267D01*
Y133390D01*
X183652D01*
Y133514D01*
Y133637D01*
X183775D01*
Y133760D01*
Y133884D01*
Y134007D01*
X183899D01*
Y134130D01*
Y134254D01*
X184022D01*
Y134377D01*
Y134500D01*
X184146D01*
Y134624D01*
Y134747D01*
X184269D01*
Y134870D01*
Y134994D01*
X184392D01*
Y135117D01*
Y135241D01*
X184516D01*
Y135364D01*
Y135487D01*
X184639D01*
Y135611D01*
X184762D01*
Y135734D01*
Y135857D01*
X184886D01*
Y135981D01*
Y136104D01*
X185009D01*
Y136227D01*
X185132D01*
Y136351D01*
X185256D01*
Y136474D01*
Y136598D01*
X185379D01*
Y136721D01*
X185503D01*
Y136844D01*
Y136968D01*
X185626D01*
Y137091D01*
X185749D01*
Y137214D01*
X185873D01*
Y137338D01*
X185996D01*
Y137461D01*
X186119D01*
Y137584D01*
X186243D01*
Y137708D01*
X186366D01*
Y137831D01*
X186489D01*
Y137954D01*
X186613D01*
Y138078D01*
X186736D01*
Y138201D01*
X186859D01*
Y138325D01*
X186983D01*
Y138448D01*
X187106D01*
Y138571D01*
X187230D01*
Y138695D01*
X187476D01*
Y138571D01*
Y138448D01*
Y138325D01*
Y138201D01*
Y138078D01*
Y137954D01*
Y137831D01*
X187353D01*
Y137708D01*
X187230D01*
Y137584D01*
X187106D01*
Y137461D01*
X186983D01*
Y137338D01*
X186859D01*
Y137214D01*
X186736D01*
Y137091D01*
X186613D01*
Y136968D01*
X186489D01*
Y136844D01*
X186366D01*
Y136721D01*
X186243D01*
Y136598D01*
X186119D01*
Y136474D01*
X185996D01*
Y136351D01*
X185873D01*
Y136227D01*
Y136104D01*
X185749D01*
Y135981D01*
X185626D01*
Y135857D01*
X185503D01*
Y135734D01*
Y135611D01*
X185379D01*
Y135487D01*
X185256D01*
Y135364D01*
Y135241D01*
X185132D01*
Y135117D01*
X185009D01*
Y134994D01*
Y134870D01*
X184886D01*
Y134747D01*
Y134624D01*
X184762D01*
Y134500D01*
Y134377D01*
X184639D01*
Y134254D01*
Y134130D01*
Y134007D01*
X184516D01*
Y133884D01*
Y133760D01*
X184392D01*
Y133637D01*
Y133514D01*
Y133390D01*
X184269D01*
Y133267D01*
Y133143D01*
Y133020D01*
X184146D01*
Y132897D01*
Y132773D01*
Y132650D01*
Y132527D01*
X184022D01*
Y132403D01*
Y132280D01*
Y132157D01*
Y132033D01*
Y131910D01*
X183899D01*
Y131786D01*
Y131663D01*
Y131540D01*
Y131416D01*
Y131293D01*
Y131170D01*
X183775D01*
Y131046D01*
Y130923D01*
Y130800D01*
Y130676D01*
Y130553D01*
Y130429D01*
Y130306D01*
Y130183D01*
Y130059D01*
Y129936D01*
Y129813D01*
Y129689D01*
Y129566D01*
Y129443D01*
Y129319D01*
Y129196D01*
Y129073D01*
Y128949D01*
X183899D01*
Y128826D01*
Y128702D01*
Y128579D01*
Y128456D01*
Y128332D01*
Y128209D01*
Y128086D01*
X184022D01*
Y127962D01*
Y127839D01*
Y127716D01*
Y127592D01*
X184146D01*
Y127469D01*
Y127345D01*
Y127222D01*
Y127099D01*
X184269D01*
Y126975D01*
Y126852D01*
Y126729D01*
X184392D01*
Y126605D01*
Y126482D01*
Y126359D01*
X184516D01*
Y126235D01*
Y126112D01*
X184639D01*
Y125989D01*
Y125865D01*
X184762D01*
Y125742D01*
Y125618D01*
Y125495D01*
X184886D01*
Y125372D01*
Y125248D01*
X185009D01*
Y125125D01*
X185132D01*
Y125002D01*
Y124878D01*
X185256D01*
Y124755D01*
Y124632D01*
X185379D01*
Y124508D01*
X185503D01*
Y124385D01*
Y124261D01*
X185626D01*
Y124138D01*
X185749D01*
Y124015D01*
Y123891D01*
X185873D01*
Y123768D01*
X185996D01*
Y123645D01*
X186119D01*
Y123521D01*
X186243D01*
Y123398D01*
Y123275D01*
X186366D01*
Y123151D01*
X186489D01*
Y123028D01*
X186613D01*
Y122904D01*
X185749D01*
Y123028D01*
X185626D01*
Y123151D01*
X185503D01*
Y123275D01*
Y123398D01*
X185379D01*
Y123521D01*
X185256D01*
Y123645D01*
X185132D01*
Y123768D01*
Y123891D01*
X185009D01*
Y124015D01*
X184886D01*
Y124138D01*
X184762D01*
Y124261D01*
Y124385D01*
X184639D01*
Y124508D01*
Y124632D01*
X184516D01*
Y124755D01*
Y124878D01*
X184392D01*
Y125002D01*
Y125125D01*
X184269D01*
Y125248D01*
Y125372D01*
X184146D01*
Y125495D01*
Y125618D01*
X184022D01*
Y125742D01*
Y125865D01*
X183899D01*
Y125989D01*
Y126112D01*
X183775D01*
Y126235D01*
Y126359D01*
Y126482D01*
X183652D01*
Y126605D01*
Y126729D01*
X183529D01*
Y126852D01*
Y126975D01*
Y127099D01*
X183405D01*
Y127222D01*
Y127345D01*
X183282D01*
Y127222D01*
Y127099D01*
X183159D01*
Y126975D01*
Y126852D01*
X183035D01*
Y126729D01*
Y126605D01*
X182912D01*
Y126482D01*
Y126359D01*
X182789D01*
Y126235D01*
Y126112D01*
X182665D01*
Y125989D01*
Y125865D01*
X182542D01*
Y125742D01*
X182418D01*
Y125618D01*
Y125495D01*
X182295D01*
Y125372D01*
X182172D01*
Y125248D01*
Y125125D01*
X182048D01*
Y125002D01*
X181925D01*
Y124878D01*
X181802D01*
Y124755D01*
X181678D01*
Y124632D01*
Y124508D01*
X181555D01*
Y124385D01*
X181432D01*
Y124261D01*
X181308D01*
Y124138D01*
Y124015D01*
X181185D01*
Y123891D01*
Y123768D01*
X181062D01*
Y123645D01*
Y123521D01*
Y123398D01*
X180938D01*
Y123275D01*
Y123151D01*
Y123028D01*
Y122904D01*
X180321D01*
Y123028D01*
Y123151D01*
Y123275D01*
X180198D01*
Y123151D01*
X179951D01*
Y123028D01*
X179705D01*
Y122904D01*
X178224D01*
Y123028D01*
X178471D01*
Y123151D01*
X178841D01*
Y123275D01*
X179088D01*
Y123398D01*
X179211D01*
Y123521D01*
X179458D01*
Y123645D01*
X179705D01*
Y123768D01*
X179828D01*
Y123891D01*
X179951D01*
Y124015D01*
X180075D01*
Y124138D01*
X180198D01*
Y124261D01*
X180321D01*
Y124385D01*
Y124508D01*
Y124632D01*
Y124755D01*
X180198D01*
Y124878D01*
Y125002D01*
Y125125D01*
Y125248D01*
X180075D01*
Y125372D01*
Y125495D01*
Y125618D01*
X179951D01*
Y125742D01*
Y125865D01*
Y125989D01*
X179828D01*
Y126112D01*
Y126235D01*
X179705D01*
Y126359D01*
Y126482D01*
Y126605D01*
X179581D01*
Y126729D01*
Y126852D01*
X179458D01*
Y126975D01*
Y127099D01*
X179334D01*
Y127222D01*
Y127345D01*
X179211D01*
Y127469D01*
Y127592D01*
X179088D01*
Y127716D01*
X178964D01*
Y127839D01*
Y127962D01*
X178841D01*
Y128086D01*
X178718D01*
Y128209D01*
Y128332D01*
X178594D01*
Y128456D01*
X178471D01*
Y128579D01*
X178348D01*
Y128702D01*
X178224D01*
Y128826D01*
Y128949D01*
X178101D01*
Y129073D01*
X177854D01*
Y129196D01*
X177731D01*
Y129319D01*
X177484D01*
Y129443D01*
X176867D01*
Y129319D01*
X176497D01*
Y129196D01*
X176250D01*
Y129073D01*
X176004D01*
Y128949D01*
X175757D01*
Y128826D01*
X175387D01*
Y128702D01*
X175017D01*
Y128579D01*
X174523D01*
Y128456D01*
X173907D01*
Y128332D01*
X171439D01*
Y128456D01*
X170823D01*
Y128579D01*
X170329D01*
Y128702D01*
X169959D01*
Y128826D01*
X169589D01*
Y128949D01*
X169342D01*
Y129073D01*
X169096D01*
Y129196D01*
X168849D01*
Y129319D01*
X168602D01*
Y129443D01*
X168232D01*
Y129566D01*
X167985D01*
Y129443D01*
X167862D01*
Y129319D01*
Y129196D01*
Y129073D01*
X167985D01*
Y128949D01*
X168109D01*
Y128826D01*
X168479D01*
Y128702D01*
X168849D01*
Y128579D01*
X169096D01*
Y128456D01*
X169342D01*
Y128332D01*
X169589D01*
Y128209D01*
X169836D01*
Y128086D01*
X170082D01*
Y127962D01*
X170329D01*
Y127839D01*
X170576D01*
Y127716D01*
X170699D01*
Y127592D01*
X170946D01*
Y127469D01*
X171069D01*
Y127345D01*
X171316D01*
Y127222D01*
X171439D01*
Y127099D01*
X171563D01*
Y126975D01*
X171686D01*
Y126852D01*
X171933D01*
Y126729D01*
X172056D01*
Y126605D01*
X172180D01*
Y126482D01*
X172303D01*
Y126359D01*
Y126235D01*
X172426D01*
Y126112D01*
X172550D01*
Y125989D01*
X172673D01*
Y125865D01*
X172796D01*
Y125742D01*
Y125618D01*
X172920D01*
Y125495D01*
X173043D01*
Y125372D01*
Y125248D01*
X173166D01*
Y125125D01*
Y125002D01*
X173290D01*
Y124878D01*
X173413D01*
Y124755D01*
Y124632D01*
X173536D01*
Y124508D01*
Y124385D01*
X173660D01*
Y124261D01*
Y124138D01*
X173783D01*
Y124015D01*
Y123891D01*
X173907D01*
Y123768D01*
Y123645D01*
X174030D01*
Y123521D01*
Y123398D01*
Y123275D01*
X174153D01*
Y123151D01*
Y123028D01*
Y122904D01*
X173413D01*
Y123028D01*
Y123151D01*
Y123275D01*
Y123398D01*
X173290D01*
Y123521D01*
Y123645D01*
Y123768D01*
X173166D01*
Y123891D01*
Y124015D01*
Y124138D01*
X173043D01*
Y124261D01*
X172920D01*
Y124385D01*
Y124508D01*
X172796D01*
Y124632D01*
Y124755D01*
X172673D01*
Y124878D01*
X172550D01*
Y125002D01*
Y125125D01*
X172426D01*
Y125248D01*
X172303D01*
Y125372D01*
X172180D01*
Y125495D01*
Y125618D01*
X172056D01*
Y125742D01*
X171933D01*
Y125865D01*
X171809D01*
Y125989D01*
X171686D01*
Y126112D01*
X171563D01*
Y126235D01*
X171439D01*
Y126359D01*
X171316D01*
Y126482D01*
X171193D01*
Y126605D01*
X171069D01*
Y126729D01*
X170823D01*
Y126852D01*
X170699D01*
Y126975D01*
X170576D01*
Y127099D01*
X170329D01*
Y127222D01*
X170206D01*
Y127345D01*
X169959D01*
Y127469D01*
X169836D01*
Y127592D01*
X169589D01*
Y127716D01*
X169342D01*
Y127839D01*
X168972D01*
Y127962D01*
X168602D01*
Y128086D01*
X168232D01*
Y127962D01*
Y127839D01*
Y127716D01*
Y127592D01*
Y127469D01*
X168355D01*
Y127345D01*
Y127222D01*
Y127099D01*
X168479D01*
Y126975D01*
Y126852D01*
X168602D01*
Y126729D01*
Y126605D01*
X168725D01*
Y126482D01*
Y126359D01*
X168849D01*
Y126235D01*
Y126112D01*
X168972D01*
Y125989D01*
X169096D01*
Y125865D01*
Y125742D01*
X169219D01*
Y125618D01*
X169342D01*
Y125495D01*
X169466D01*
Y125372D01*
X169589D01*
Y125248D01*
Y125125D01*
X169712D01*
Y125002D01*
X169836D01*
Y124878D01*
X169959D01*
Y124755D01*
X170082D01*
Y124632D01*
X170206D01*
Y124508D01*
X170329D01*
Y124385D01*
X170452D01*
Y124261D01*
X170576D01*
Y124138D01*
X170823D01*
Y124015D01*
X170946D01*
Y123891D01*
X171069D01*
Y123768D01*
X171316D01*
Y123645D01*
X171439D01*
Y123521D01*
X171686D01*
Y123398D01*
X171809D01*
Y123275D01*
X172056D01*
Y123151D01*
X172303D01*
Y123028D01*
X172673D01*
Y122904D01*
X171316D01*
Y123028D01*
X171069D01*
Y123151D01*
X170946D01*
Y123275D01*
X170699D01*
Y123398D01*
X170576D01*
Y123521D01*
X170329D01*
Y123645D01*
X170206D01*
Y123768D01*
X170082D01*
Y123891D01*
X169959D01*
Y124015D01*
X169712D01*
Y124138D01*
X169589D01*
Y124261D01*
X169466D01*
Y124385D01*
X169342D01*
Y124508D01*
Y124632D01*
X169219D01*
Y124755D01*
X169096D01*
Y124878D01*
X168972D01*
Y125002D01*
X168849D01*
Y125125D01*
Y125248D01*
X168725D01*
Y125372D01*
X168602D01*
Y125495D01*
Y125618D01*
X168479D01*
Y125742D01*
Y125865D01*
X168355D01*
Y125989D01*
X168232D01*
Y126112D01*
Y126235D01*
X168109D01*
Y126359D01*
Y126482D01*
X167985D01*
Y126605D01*
Y126729D01*
X167862D01*
Y126852D01*
Y126975D01*
X167739D01*
Y127099D01*
Y127222D01*
Y127345D01*
X167615D01*
Y127469D01*
Y127592D01*
Y127716D01*
X167492D01*
Y127839D01*
Y127962D01*
X167368D01*
Y128086D01*
Y128209D01*
X167245D01*
Y128332D01*
X167122D01*
Y128456D01*
X166875D01*
Y128332D01*
X166752D01*
Y128209D01*
Y128086D01*
Y127962D01*
Y127839D01*
X166875D01*
Y127716D01*
Y127592D01*
X166998D01*
Y127469D01*
Y127345D01*
X167122D01*
Y127222D01*
Y127099D01*
X167245D01*
Y126975D01*
Y126852D01*
Y126729D01*
X167368D01*
Y126605D01*
Y126482D01*
X167492D01*
Y126359D01*
Y126235D01*
Y126112D01*
X167615D01*
Y125989D01*
Y125865D01*
Y125742D01*
X167739D01*
Y125618D01*
Y125495D01*
Y125372D01*
Y125248D01*
X167862D01*
Y125125D01*
Y125002D01*
Y124878D01*
Y124755D01*
Y124632D01*
X167985D01*
Y124508D01*
Y124385D01*
Y124261D01*
Y124138D01*
Y124015D01*
Y123891D01*
Y123768D01*
Y123645D01*
Y123521D01*
Y123398D01*
Y123275D01*
Y123151D01*
Y123028D01*
Y122904D01*
X167245D01*
Y123028D01*
Y123151D01*
Y123275D01*
Y123398D01*
Y123521D01*
Y123645D01*
Y123768D01*
Y123891D01*
Y124015D01*
Y124138D01*
Y124261D01*
Y124385D01*
Y124508D01*
Y124632D01*
Y124755D01*
Y124878D01*
X167122D01*
Y125002D01*
Y125125D01*
Y125248D01*
Y125372D01*
Y125495D01*
Y125618D01*
X166998D01*
Y125742D01*
Y125865D01*
Y125989D01*
Y126112D01*
X166875D01*
Y126235D01*
Y126359D01*
Y126482D01*
X166752D01*
Y126605D01*
Y126729D01*
X166628D01*
Y126852D01*
Y126975D01*
X166505D01*
Y127099D01*
Y127222D01*
X166382D01*
Y127345D01*
X166012D01*
Y127222D01*
Y127099D01*
X165888D01*
Y126975D01*
X165765D01*
Y126852D01*
Y126729D01*
Y126605D01*
X165641D01*
Y126482D01*
Y126359D01*
X165518D01*
Y126235D01*
Y126112D01*
Y125989D01*
X165395D01*
Y125865D01*
Y125742D01*
Y125618D01*
X165271D01*
Y125495D01*
Y125372D01*
Y125248D01*
Y125125D01*
Y125002D01*
X165148D01*
Y124878D01*
Y124755D01*
Y124632D01*
Y124508D01*
Y124385D01*
Y124261D01*
Y124138D01*
Y124015D01*
Y123891D01*
Y123768D01*
Y123645D01*
Y123521D01*
Y123398D01*
Y123275D01*
Y123151D01*
Y123028D01*
Y122904D01*
X164531D01*
Y123028D01*
Y123151D01*
X164408D01*
Y123275D01*
Y123398D01*
Y123521D01*
Y123645D01*
Y123768D01*
Y123891D01*
Y124015D01*
Y124138D01*
X164531D01*
Y124261D01*
Y124385D01*
Y124508D01*
Y124632D01*
Y124755D01*
Y124878D01*
Y125002D01*
Y125125D01*
Y125248D01*
X164655D01*
Y125372D01*
Y125495D01*
Y125618D01*
Y125742D01*
X164778D01*
Y125865D01*
Y125989D01*
Y126112D01*
X164901D01*
Y126235D01*
Y126359D01*
Y126482D01*
X165025D01*
Y126605D01*
Y126729D01*
Y126852D01*
X165148D01*
Y126975D01*
Y127099D01*
X165271D01*
Y127222D01*
Y127345D01*
X165395D01*
Y127469D01*
Y127592D01*
X165518D01*
Y127716D01*
Y127839D01*
Y127962D01*
X165641D01*
Y128086D01*
Y128209D01*
Y128332D01*
Y128456D01*
X165271D01*
Y128332D01*
X165148D01*
Y128209D01*
Y128086D01*
X165025D01*
Y127962D01*
Y127839D01*
X164901D01*
Y127716D01*
Y127592D01*
X164778D01*
Y127469D01*
Y127345D01*
Y127222D01*
X164655D01*
Y127099D01*
Y126975D01*
X164531D01*
Y126852D01*
Y126729D01*
Y126605D01*
X164408D01*
Y126482D01*
Y126359D01*
X164284D01*
Y126235D01*
Y126112D01*
X164161D01*
Y125989D01*
X164038D01*
Y125865D01*
Y125742D01*
X163914D01*
Y125618D01*
Y125495D01*
X163791D01*
Y125372D01*
X163668D01*
Y125248D01*
Y125125D01*
X163544D01*
Y125002D01*
X163421D01*
Y124878D01*
X163298D01*
Y124755D01*
X163174D01*
Y124632D01*
X163051D01*
Y124508D01*
Y124385D01*
X162927D01*
Y124261D01*
X162804D01*
Y124138D01*
X162681D01*
Y124015D01*
X162557D01*
Y123891D01*
X162311D01*
Y123768D01*
X162187D01*
Y123645D01*
X162064D01*
Y123521D01*
X161817D01*
Y123398D01*
X161694D01*
Y123275D01*
X161447D01*
Y123151D01*
X161324D01*
Y123028D01*
X161077D01*
Y122904D01*
X159720D01*
Y123028D01*
X160090D01*
Y123151D01*
X160337D01*
Y123275D01*
X160584D01*
Y123398D01*
X160830D01*
Y123521D01*
X160954D01*
Y123645D01*
X161200D01*
Y123768D01*
X161324D01*
Y123891D01*
X161447D01*
Y124015D01*
X161694D01*
Y124138D01*
X161817D01*
Y124261D01*
X161941D01*
Y124385D01*
X162064D01*
Y124508D01*
X162187D01*
Y124632D01*
X162311D01*
Y124755D01*
X162434D01*
Y124878D01*
X162557D01*
Y125002D01*
X162681D01*
Y125125D01*
X162804D01*
Y125248D01*
X162927D01*
Y125372D01*
Y125495D01*
X163051D01*
Y125618D01*
X163174D01*
Y125742D01*
X163298D01*
Y125865D01*
Y125989D01*
X163421D01*
Y126112D01*
X163544D01*
Y126235D01*
Y126359D01*
X163668D01*
Y126482D01*
Y126605D01*
X163791D01*
Y126729D01*
Y126852D01*
X163914D01*
Y126975D01*
Y127099D01*
X164038D01*
Y127222D01*
Y127345D01*
Y127469D01*
X164161D01*
Y127592D01*
Y127716D01*
Y127839D01*
Y127962D01*
X164038D01*
Y128086D01*
X163791D01*
Y127962D01*
X163421D01*
Y127839D01*
X163174D01*
Y127716D01*
X162804D01*
Y127592D01*
X162557D01*
Y127469D01*
X162434D01*
Y127345D01*
X162187D01*
Y127222D01*
X162064D01*
Y127099D01*
X161941D01*
Y126975D01*
X161694D01*
Y126852D01*
X161571D01*
Y126729D01*
X161447D01*
Y126605D01*
X161324D01*
Y126482D01*
X161200D01*
Y126359D01*
X161077D01*
Y126235D01*
X160954D01*
Y126112D01*
X160830D01*
Y125989D01*
X160707D01*
Y125865D01*
X160584D01*
Y125742D01*
X160460D01*
Y125618D01*
X160337D01*
Y125495D01*
X160214D01*
Y125372D01*
X160090D01*
Y125248D01*
Y125125D01*
X159967D01*
Y125002D01*
X159843D01*
Y124878D01*
X159720D01*
Y124755D01*
Y124632D01*
X159597D01*
Y124508D01*
X159473D01*
Y124385D01*
Y124261D01*
X159350D01*
Y124138D01*
Y124015D01*
X159227D01*
Y123891D01*
Y123768D01*
Y123645D01*
X159103D01*
Y123521D01*
Y123398D01*
X158980D01*
Y123275D01*
Y123151D01*
Y123028D01*
Y122904D01*
X158240D01*
Y123028D01*
Y123151D01*
Y123275D01*
X158363D01*
Y123398D01*
Y123521D01*
Y123645D01*
X158486D01*
Y123768D01*
Y123891D01*
Y124015D01*
X158610D01*
Y124138D01*
Y124261D01*
X158733D01*
Y124385D01*
Y124508D01*
X158857D01*
Y124632D01*
Y124755D01*
X158980D01*
Y124878D01*
X159103D01*
Y125002D01*
Y125125D01*
X159227D01*
Y125248D01*
Y125372D01*
X159350D01*
Y125495D01*
X159473D01*
Y125618D01*
X159597D01*
Y125742D01*
Y125865D01*
X159720D01*
Y125989D01*
X159843D01*
Y126112D01*
X159967D01*
Y126235D01*
X160090D01*
Y126359D01*
X160214D01*
Y126482D01*
X160337D01*
Y126605D01*
X160460D01*
Y126729D01*
X160584D01*
Y126852D01*
X160707D01*
Y126975D01*
X160830D01*
Y127099D01*
X160954D01*
Y127222D01*
X161200D01*
Y127345D01*
X161324D01*
Y127469D01*
X161447D01*
Y127592D01*
X161694D01*
Y127716D01*
X161817D01*
Y127839D01*
X162064D01*
Y127962D01*
X162311D01*
Y128086D01*
X162434D01*
Y128209D01*
X162804D01*
Y128332D01*
X163051D01*
Y128456D01*
X163298D01*
Y128579D01*
X163668D01*
Y128702D01*
X164038D01*
Y128826D01*
X164284D01*
Y128949D01*
X164408D01*
Y129073D01*
X164531D01*
Y129196D01*
Y129319D01*
Y129443D01*
X164408D01*
Y129566D01*
X164161D01*
Y129443D01*
X163791D01*
Y129319D01*
X163544D01*
Y129196D01*
X163298D01*
Y129073D01*
X163051D01*
Y128949D01*
X162804D01*
Y128826D01*
X162434D01*
Y128702D01*
X162064D01*
Y128579D01*
X161571D01*
Y128456D01*
X160954D01*
Y128332D01*
X158610D01*
Y128456D01*
X157870D01*
Y128579D01*
X157376D01*
Y128702D01*
X157006D01*
Y128826D01*
X156636D01*
Y128949D01*
X156389D01*
Y129073D01*
X156143D01*
Y129196D01*
X155896D01*
Y129319D01*
X155649D01*
Y129443D01*
X155402D01*
Y129566D01*
X154909D01*
Y129443D01*
X154786D01*
Y129319D01*
X154662D01*
Y129196D01*
X154539D01*
Y129073D01*
X154416D01*
Y128949D01*
X154292D01*
Y128826D01*
X154169D01*
Y128702D01*
X154046D01*
Y128579D01*
X153922D01*
Y128456D01*
Y128332D01*
X153799D01*
Y128209D01*
X153675D01*
Y128086D01*
X153552D01*
Y127962D01*
Y127839D01*
X153429D01*
Y127716D01*
X153305D01*
Y127592D01*
Y127469D01*
X153182D01*
Y127345D01*
X153059D01*
Y127222D01*
Y127099D01*
X152935D01*
Y126975D01*
Y126852D01*
X152812D01*
Y126729D01*
Y126605D01*
X152689D01*
Y126482D01*
Y126359D01*
Y126235D01*
X152565D01*
Y126112D01*
Y125989D01*
Y125865D01*
X152442D01*
Y125742D01*
Y125618D01*
Y125495D01*
X152318D01*
Y125372D01*
Y125248D01*
Y125125D01*
X152195D01*
Y125002D01*
Y124878D01*
Y124755D01*
Y124632D01*
Y124508D01*
Y124385D01*
Y124261D01*
Y124138D01*
Y124015D01*
X152318D01*
Y123891D01*
X152442D01*
Y123768D01*
X152689D01*
Y123645D01*
X152935D01*
Y123521D01*
X153059D01*
Y123398D01*
X153305D01*
Y123275D01*
X153552D01*
Y123151D01*
X153922D01*
Y123028D01*
X154169D01*
Y122904D01*
X152689D01*
Y123028D01*
X152072D01*
Y122904D01*
X151455D01*
Y123028D01*
Y123151D01*
Y123275D01*
Y123398D01*
Y123521D01*
X151332D01*
Y123645D01*
Y123768D01*
Y123891D01*
X151208D01*
Y124015D01*
X151085D01*
Y124138D01*
Y124261D01*
X150961D01*
Y124385D01*
X150838D01*
Y124508D01*
X150715D01*
Y124632D01*
X150591D01*
Y124755D01*
Y124878D01*
X150468D01*
Y125002D01*
X150345D01*
Y125125D01*
Y125248D01*
X150221D01*
Y125372D01*
X150098D01*
Y125495D01*
Y125618D01*
X149975D01*
Y125742D01*
X149851D01*
Y125865D01*
Y125989D01*
X149728D01*
Y126112D01*
Y126235D01*
X149605D01*
Y126359D01*
Y126482D01*
X149481D01*
Y126605D01*
Y126729D01*
X149358D01*
Y126852D01*
Y126975D01*
X149234D01*
Y127099D01*
X149111D01*
Y127222D01*
Y127345D01*
X148988D01*
Y127222D01*
Y127099D01*
X148864D01*
Y126975D01*
Y126852D01*
Y126729D01*
X148741D01*
Y126605D01*
Y126482D01*
X148618D01*
Y126359D01*
Y126235D01*
Y126112D01*
X148494D01*
Y125989D01*
Y125865D01*
Y125742D01*
X148371D01*
Y125618D01*
Y125495D01*
X148248D01*
Y125372D01*
Y125248D01*
X148124D01*
Y125125D01*
Y125002D01*
X148001D01*
Y124878D01*
Y124755D01*
X147877D01*
Y124632D01*
X147754D01*
Y124508D01*
Y124385D01*
X147631D01*
Y124261D01*
Y124138D01*
X147507D01*
Y124015D01*
X147384D01*
Y123891D01*
Y123768D01*
X147261D01*
Y123645D01*
X147137D01*
Y123521D01*
X147014D01*
Y123398D01*
Y123275D01*
X146891D01*
Y123151D01*
X146767D01*
Y123028D01*
X146644D01*
Y122904D01*
X145657D01*
Y123028D01*
X145780D01*
Y123151D01*
X145904D01*
Y123275D01*
X146027D01*
Y123398D01*
X146150D01*
Y123521D01*
X146274D01*
Y123645D01*
X146397D01*
Y123768D01*
X146520D01*
Y123891D01*
Y124015D01*
X146644D01*
Y124138D01*
X146767D01*
Y124261D01*
X146891D01*
Y124385D01*
Y124508D01*
X147014D01*
Y124632D01*
X147137D01*
Y124755D01*
Y124878D01*
X147261D01*
Y125002D01*
Y125125D01*
X147384D01*
Y125248D01*
X147507D01*
Y125372D01*
Y125495D01*
X147631D01*
Y125618D01*
Y125742D01*
Y125865D01*
X147754D01*
Y125989D01*
Y126112D01*
X147877D01*
Y126235D01*
Y126359D01*
X148001D01*
Y126482D01*
Y126605D01*
Y126729D01*
X148124D01*
Y126852D01*
Y126975D01*
Y127099D01*
X148248D01*
Y127222D01*
Y127345D01*
Y127469D01*
X148371D01*
Y127592D01*
Y127716D01*
Y127839D01*
Y127962D01*
Y128086D01*
X148494D01*
Y128209D01*
Y128332D01*
Y128456D01*
Y128579D01*
Y128702D01*
X148618D01*
Y128826D01*
Y128949D01*
Y129073D01*
Y129196D01*
Y129319D01*
Y129443D01*
Y129566D01*
Y129689D01*
Y129813D01*
Y129936D01*
Y130059D01*
Y130183D01*
Y130306D01*
Y130429D01*
Y130553D01*
Y130676D01*
Y130800D01*
Y130923D01*
Y131046D01*
Y131170D01*
Y131293D01*
Y131416D01*
Y131540D01*
X148494D01*
Y131663D01*
Y131786D01*
Y131910D01*
Y132033D01*
Y132157D01*
Y132280D01*
X148371D01*
Y132403D01*
Y132527D01*
Y132650D01*
X148248D01*
Y132773D01*
Y132897D01*
Y133020D01*
Y133143D01*
X148124D01*
Y133267D01*
Y133390D01*
Y133514D01*
X148001D01*
Y133637D01*
Y133760D01*
X147877D01*
Y133884D01*
Y134007D01*
X147754D01*
Y134130D01*
Y134254D01*
Y134377D01*
X147631D01*
Y134500D01*
Y134624D01*
X147507D01*
Y134747D01*
Y134870D01*
X147384D01*
Y134994D01*
X147261D01*
Y135117D01*
Y135241D01*
X147137D01*
Y135364D01*
X147014D01*
Y135487D01*
Y135611D01*
X146891D01*
Y135734D01*
X146767D01*
Y135857D01*
Y135981D01*
X146644D01*
Y136104D01*
X146520D01*
Y136227D01*
X146397D01*
Y136351D01*
Y136474D01*
X146274D01*
Y136598D01*
X146150D01*
Y136721D01*
X146027D01*
Y136844D01*
X145904D01*
Y136968D01*
X145780D01*
Y137091D01*
X145657D01*
Y137214D01*
X145534D01*
Y137338D01*
X145410D01*
Y137461D01*
X145287D01*
Y137584D01*
X145164D01*
Y137708D01*
X145040D01*
Y137831D01*
X144917D01*
Y137954D01*
X144670D01*
Y138078D01*
X144547D01*
Y138201D01*
X144423D01*
Y138325D01*
X144300D01*
Y138448D01*
X144053D01*
Y138571D01*
X143930D01*
Y138695D01*
X143683D01*
Y138818D01*
X143560D01*
Y138941D01*
X143313D01*
Y139065D01*
X143066D01*
Y139188D01*
X142820D01*
Y139311D01*
X142573D01*
Y139435D01*
X142326D01*
Y139558D01*
X141956D01*
Y139682D01*
X141586D01*
Y139805D01*
X140723D01*
Y139682D01*
X140599D01*
Y139558D01*
X140476D01*
Y139435D01*
Y139311D01*
X140352D01*
Y139188D01*
Y139065D01*
Y138941D01*
X140229D01*
Y138818D01*
Y138695D01*
Y138571D01*
X140106D01*
Y138448D01*
Y138325D01*
Y138201D01*
X139982D01*
Y138078D01*
Y137954D01*
Y137831D01*
X139859D01*
Y137708D01*
Y137584D01*
Y137461D01*
Y137338D01*
Y137214D01*
Y137091D01*
X139982D01*
Y136968D01*
X140106D01*
Y136844D01*
X140723D01*
Y136721D01*
X141093D01*
Y136598D01*
X141339D01*
Y136474D01*
X141463D01*
Y136351D01*
X141709D01*
Y136227D01*
X141956D01*
Y136104D01*
X142080D01*
Y135981D01*
X142326D01*
Y135857D01*
X142450D01*
Y135734D01*
X142573D01*
Y135611D01*
X142820D01*
Y135487D01*
X142943D01*
Y135364D01*
X143066D01*
Y135241D01*
X143190D01*
Y135117D01*
X143313D01*
Y134994D01*
X143436D01*
Y134870D01*
X143560D01*
Y134747D01*
X143683D01*
Y134624D01*
X143807D01*
Y134500D01*
X143930D01*
Y134377D01*
Y134254D01*
X144053D01*
Y134130D01*
X144177D01*
Y134007D01*
X144300D01*
Y133884D01*
Y133760D01*
X144423D01*
Y133637D01*
Y133514D01*
X144547D01*
Y133390D01*
Y133267D01*
X144670D01*
Y133143D01*
Y133020D01*
X144793D01*
Y132897D01*
Y132773D01*
X144917D01*
Y132650D01*
Y132527D01*
Y132403D01*
X145040D01*
Y132280D01*
Y132157D01*
Y132033D01*
X145164D01*
Y131910D01*
Y131786D01*
Y131663D01*
Y131540D01*
X145287D01*
Y131416D01*
Y131293D01*
Y131170D01*
Y131046D01*
Y130923D01*
Y130800D01*
Y130676D01*
Y130553D01*
X145410D01*
Y130429D01*
Y130306D01*
Y130183D01*
Y130059D01*
Y129936D01*
Y129813D01*
Y129689D01*
Y129566D01*
X145287D01*
Y129443D01*
Y129319D01*
Y129196D01*
Y129073D01*
Y128949D01*
Y128826D01*
Y128702D01*
Y128579D01*
X145164D01*
Y128456D01*
Y128332D01*
Y128209D01*
Y128086D01*
X145040D01*
Y127962D01*
Y127839D01*
Y127716D01*
X144917D01*
Y127592D01*
Y127469D01*
Y127345D01*
X144793D01*
Y127222D01*
Y127099D01*
X144670D01*
Y126975D01*
Y126852D01*
X144547D01*
Y126729D01*
Y126605D01*
X144423D01*
Y126482D01*
Y126359D01*
X144300D01*
Y126235D01*
Y126112D01*
X144177D01*
Y125989D01*
X144053D01*
Y125865D01*
Y125742D01*
X143930D01*
Y125618D01*
X143807D01*
Y125495D01*
X143683D01*
Y125372D01*
X143560D01*
Y125248D01*
X143436D01*
Y125125D01*
X143313D01*
Y125002D01*
X143190D01*
Y124878D01*
X143066D01*
Y124755D01*
X142943D01*
Y124632D01*
X142820D01*
Y124508D01*
X142696D01*
Y124385D01*
X142450D01*
Y124261D01*
X142326D01*
Y124138D01*
X142080D01*
Y124015D01*
X141956D01*
Y123891D01*
X141709D01*
Y123768D01*
X141463D01*
Y123645D01*
X141216D01*
Y123521D01*
X140969D01*
Y123398D01*
X140723D01*
Y123275D01*
X140352D01*
Y123151D01*
X140106D01*
Y123028D01*
X139859D01*
Y122904D01*
X137392D01*
Y123028D01*
X136775D01*
Y123151D01*
X136282D01*
Y123275D01*
X135911D01*
Y123398D01*
X135541D01*
Y123521D01*
X135295D01*
Y123645D01*
X135048D01*
Y123768D01*
X134801D01*
Y123891D01*
X134678D01*
Y124015D01*
X134431D01*
Y124138D01*
X134308D01*
Y124261D01*
X134061D01*
Y124385D01*
X133938D01*
Y124508D01*
X133814D01*
Y124632D01*
X133568D01*
Y124755D01*
X133444D01*
Y124878D01*
X133321D01*
Y125002D01*
X133198D01*
Y125125D01*
X133074D01*
Y125248D01*
X132951D01*
Y125372D01*
X132827D01*
Y125495D01*
Y125618D01*
X132704D01*
Y125742D01*
X132581D01*
Y125865D01*
X132457D01*
Y125989D01*
X132334D01*
Y126112D01*
Y126235D01*
X132211D01*
Y126359D01*
Y126482D01*
X132087D01*
Y126605D01*
X131964D01*
Y126729D01*
Y126852D01*
X131841D01*
Y126975D01*
Y127099D01*
X131717D01*
Y127222D01*
Y127345D01*
X131594D01*
Y127469D01*
Y127592D01*
Y127716D01*
X131470D01*
Y127839D01*
Y127962D01*
Y128086D01*
X131347D01*
Y128209D01*
Y128332D01*
Y128456D01*
Y128579D01*
X131224D01*
Y128702D01*
Y128826D01*
Y128949D01*
Y129073D01*
Y129196D01*
Y129319D01*
X131100D01*
Y129443D01*
Y129566D01*
Y129689D01*
Y129813D01*
Y129936D01*
Y130059D01*
Y130183D01*
Y130306D01*
Y130429D01*
Y130553D01*
Y130676D01*
Y130800D01*
X131224D01*
Y130923D01*
Y131046D01*
Y131170D01*
Y131293D01*
Y131416D01*
Y131540D01*
X131347D01*
Y131663D01*
Y131786D01*
Y131910D01*
Y132033D01*
X131470D01*
Y132157D01*
Y132280D01*
Y132403D01*
X131594D01*
Y132527D01*
Y132650D01*
Y132773D01*
X131717D01*
Y132897D01*
Y133020D01*
X131841D01*
Y133143D01*
Y133267D01*
X131964D01*
Y133390D01*
Y133514D01*
X132087D01*
Y133637D01*
Y133760D01*
X132211D01*
Y133884D01*
X132334D01*
Y134007D01*
Y134130D01*
X132457D01*
Y134254D01*
X132581D01*
Y134377D01*
Y134500D01*
X132704D01*
Y134624D01*
X132827D01*
Y134747D01*
X132951D01*
Y134870D01*
X133074D01*
Y134994D01*
X133198D01*
Y135117D01*
X133321D01*
Y135241D01*
X133444D01*
Y135364D01*
X133568D01*
Y135487D01*
X133691D01*
Y135611D01*
X133814D01*
Y135734D01*
X134061D01*
Y135857D01*
X134184D01*
Y135981D01*
X134431D01*
Y136104D01*
X134555D01*
Y136227D01*
X134801D01*
Y136351D01*
X135048D01*
Y136474D01*
X135295D01*
Y136598D01*
X135665D01*
Y136721D01*
X135911D01*
Y136844D01*
X136405D01*
Y136968D01*
X136775D01*
Y137091D01*
X137515D01*
Y137214D01*
X138625D01*
Y137338D01*
X139119D01*
Y137461D01*
Y137584D01*
Y137708D01*
X139242D01*
Y137831D01*
Y137954D01*
Y138078D01*
X139366D01*
Y138201D01*
Y138325D01*
Y138448D01*
X139489D01*
Y138571D01*
Y138695D01*
Y138818D01*
X139612D01*
Y138941D01*
Y139065D01*
Y139188D01*
Y139311D01*
X139736D01*
Y139435D01*
Y139558D01*
Y139682D01*
Y139805D01*
X139859D01*
Y139928D01*
Y140052D01*
Y140175D01*
X139612D01*
Y140298D01*
X137885D01*
Y140175D01*
X136898D01*
Y140052D01*
X136282D01*
Y139928D01*
X135788D01*
Y139805D01*
X135295D01*
Y139682D01*
X134925D01*
Y139558D01*
X134555D01*
Y139435D01*
X134308D01*
Y139311D01*
X134061D01*
Y139188D01*
X133814D01*
Y139065D01*
X133568D01*
Y138941D01*
X133321D01*
Y138818D01*
X133198D01*
Y138695D01*
X132951D01*
Y138571D01*
X132827D01*
Y138448D01*
X132581D01*
Y138325D01*
X132457D01*
Y138201D01*
X132334D01*
Y138078D01*
X132087D01*
Y137954D01*
X131964D01*
Y137831D01*
X131841D01*
Y137708D01*
X131717D01*
Y137584D01*
X131594D01*
Y137461D01*
X131470D01*
Y137338D01*
X131347D01*
Y137214D01*
X131224D01*
Y137091D01*
X131100D01*
Y136968D01*
X130977D01*
Y136844D01*
X130854D01*
Y136721D01*
X130730D01*
Y136598D01*
X130607D01*
Y136474D01*
X130484D01*
Y136351D01*
Y136227D01*
X130360D01*
Y136104D01*
X130237D01*
Y135981D01*
X130114D01*
Y135857D01*
Y135734D01*
X129990D01*
Y135611D01*
X129867D01*
Y135487D01*
Y135364D01*
X129743D01*
Y135241D01*
X129620D01*
Y135117D01*
Y134994D01*
X129497D01*
Y134870D01*
Y134747D01*
X129373D01*
Y134624D01*
Y134500D01*
X129250D01*
Y134377D01*
Y134254D01*
X129127D01*
Y134130D01*
Y134007D01*
X129003D01*
Y133884D01*
Y133760D01*
X128880D01*
Y133637D01*
Y133514D01*
Y133390D01*
X128757D01*
Y133267D01*
Y133143D01*
Y133020D01*
X128633D01*
Y132897D01*
Y132773D01*
Y132650D01*
X128510D01*
Y132527D01*
Y132403D01*
Y132280D01*
Y132157D01*
X128386D01*
Y132033D01*
Y131910D01*
Y131786D01*
Y131663D01*
Y131540D01*
Y131416D01*
X128263D01*
Y131293D01*
Y131170D01*
Y131046D01*
Y130923D01*
Y130800D01*
Y130676D01*
Y130553D01*
Y130429D01*
Y130306D01*
Y130183D01*
Y130059D01*
Y129936D01*
Y129813D01*
Y129689D01*
Y129566D01*
Y129443D01*
Y129319D01*
Y129196D01*
Y129073D01*
Y128949D01*
Y128826D01*
Y128702D01*
X128386D01*
Y128579D01*
Y128456D01*
Y128332D01*
Y128209D01*
Y128086D01*
Y127962D01*
X128510D01*
Y127839D01*
Y127716D01*
Y127592D01*
Y127469D01*
X128633D01*
Y127345D01*
Y127222D01*
Y127099D01*
X128757D01*
Y126975D01*
Y126852D01*
Y126729D01*
X128880D01*
Y126605D01*
Y126482D01*
Y126359D01*
X129003D01*
Y126235D01*
Y126112D01*
X129127D01*
Y125989D01*
Y125865D01*
X129250D01*
Y125742D01*
Y125618D01*
Y125495D01*
X129373D01*
Y125372D01*
X129497D01*
Y125248D01*
Y125125D01*
X129620D01*
Y125002D01*
Y124878D01*
X129743D01*
Y124755D01*
Y124632D01*
X129867D01*
Y124508D01*
X129990D01*
Y124385D01*
Y124261D01*
X130114D01*
Y124138D01*
X130237D01*
Y124015D01*
X130360D01*
Y123891D01*
Y123768D01*
X130484D01*
Y123645D01*
X130607D01*
Y123521D01*
X130730D01*
Y123398D01*
X130854D01*
Y123275D01*
X130977D01*
Y123151D01*
X131100D01*
Y123028D01*
Y122904D01*
X130237D01*
Y123028D01*
X130114D01*
Y123151D01*
X129990D01*
Y123275D01*
Y123398D01*
X129867D01*
Y123521D01*
X129743D01*
Y123645D01*
X129620D01*
Y123768D01*
Y123891D01*
X129497D01*
Y124015D01*
X129373D01*
Y124138D01*
Y124261D01*
X129250D01*
Y124385D01*
X129127D01*
Y124508D01*
Y124632D01*
X129003D01*
Y124755D01*
Y124878D01*
X128880D01*
Y125002D01*
Y125125D01*
X128757D01*
Y125248D01*
Y125372D01*
X128633D01*
Y125495D01*
Y125618D01*
X128510D01*
Y125742D01*
Y125865D01*
X128386D01*
Y125989D01*
Y126112D01*
Y126235D01*
X128263D01*
Y126359D01*
Y126482D01*
X128140D01*
Y126605D01*
Y126729D01*
Y126852D01*
Y126975D01*
X128016D01*
Y127099D01*
Y127222D01*
Y127345D01*
X127893D01*
Y127469D01*
Y127592D01*
Y127716D01*
Y127839D01*
Y127962D01*
X127770D01*
Y128086D01*
Y128209D01*
Y128332D01*
Y128456D01*
Y128579D01*
Y128702D01*
Y128826D01*
X127646D01*
Y128949D01*
Y129073D01*
Y129196D01*
Y129319D01*
Y129443D01*
Y129566D01*
Y129689D01*
Y129813D01*
Y129936D01*
Y130059D01*
Y130183D01*
Y130306D01*
Y130429D01*
Y130553D01*
Y130676D01*
Y130800D01*
Y130923D01*
Y131046D01*
Y131170D01*
Y131293D01*
X127770D01*
Y131416D01*
Y131540D01*
Y131663D01*
Y131786D01*
Y131910D01*
Y132033D01*
Y132157D01*
X127893D01*
Y132280D01*
Y132403D01*
Y132527D01*
Y132650D01*
X128016D01*
Y132773D01*
Y132897D01*
Y133020D01*
Y133143D01*
X128140D01*
Y133267D01*
Y133390D01*
Y133514D01*
X128263D01*
Y133637D01*
Y133760D01*
Y133884D01*
X128386D01*
Y134007D01*
Y134130D01*
Y134254D01*
X128510D01*
Y134377D01*
Y134500D01*
X128633D01*
Y134624D01*
Y134747D01*
X128757D01*
Y134870D01*
Y134994D01*
X128880D01*
Y135117D01*
Y135241D01*
X129003D01*
Y135364D01*
Y135487D01*
X129127D01*
Y135611D01*
X129250D01*
Y135734D01*
Y135857D01*
X129373D01*
Y135981D01*
Y136104D01*
X129497D01*
Y136227D01*
X129620D01*
Y136351D01*
Y136474D01*
X129743D01*
Y136598D01*
X129867D01*
Y136721D01*
X129990D01*
Y136844D01*
Y136968D01*
X130114D01*
Y137091D01*
X130237D01*
Y137214D01*
X130360D01*
Y137338D01*
X130484D01*
Y137461D01*
X130607D01*
Y137584D01*
X130730D01*
Y137708D01*
X130854D01*
Y137831D01*
X130977D01*
Y137954D01*
X131100D01*
Y138078D01*
X131224D01*
Y138201D01*
X131347D01*
Y138325D01*
X131470D01*
Y138448D01*
X131594D01*
Y138571D01*
X131841D01*
Y138695D01*
X131964D01*
Y138818D01*
X132087D01*
Y138941D01*
X132334D01*
Y139065D01*
X132457D01*
Y139188D01*
X132704D01*
Y139311D01*
X132827D01*
Y139435D01*
X133074D01*
Y139558D01*
X133321D01*
Y139682D01*
X133444D01*
Y139805D01*
X133691D01*
Y139928D01*
X133938D01*
Y140052D01*
X133691D01*
Y140175D01*
X133198D01*
Y140298D01*
X132827D01*
Y140422D01*
X132581D01*
Y140545D01*
X132334D01*
Y140668D01*
X132087D01*
Y140792D01*
X131964D01*
Y140915D01*
X131717D01*
Y141039D01*
X131594D01*
Y141162D01*
X131470D01*
Y141285D01*
Y141409D01*
X131347D01*
Y141532D01*
X131224D01*
Y141655D01*
Y141779D01*
X131100D01*
Y141902D01*
Y142025D01*
X130977D01*
Y142149D01*
Y142272D01*
Y142395D01*
X130854D01*
Y142519D01*
Y142642D01*
Y142766D01*
Y142889D01*
Y143012D01*
Y143136D01*
Y143259D01*
Y143382D01*
Y143506D01*
Y143629D01*
Y143752D01*
Y143876D01*
Y143999D01*
Y144123D01*
Y144246D01*
Y144369D01*
X130977D01*
Y144493D01*
Y144616D01*
Y144739D01*
X131100D01*
Y144863D01*
Y144986D01*
X131224D01*
Y145109D01*
Y145233D01*
X131347D01*
Y145356D01*
X131470D01*
Y145480D01*
X131594D01*
Y145603D01*
Y145726D01*
X131717D01*
Y145850D01*
X131964D01*
Y145973D01*
X132087D01*
Y146096D01*
X132211D01*
Y146220D01*
X132457D01*
Y146343D01*
X132827D01*
Y146466D01*
X133444D01*
Y146590D01*
X134431D01*
Y146466D01*
X135048D01*
Y146343D01*
X135418D01*
Y146220D01*
X135665D01*
Y146096D01*
X135911D01*
Y145973D01*
X136035D01*
Y145850D01*
X136282D01*
Y145726D01*
X136405D01*
Y145850D01*
Y145973D01*
X136282D01*
Y146096D01*
Y146220D01*
Y146343D01*
X136158D01*
Y146466D01*
Y146590D01*
Y146713D01*
Y146836D01*
X136035D01*
Y146960D01*
Y147083D01*
Y147207D01*
Y147330D01*
X135911D01*
Y147453D01*
Y147577D01*
Y147700D01*
Y147823D01*
Y147947D01*
Y148070D01*
Y148193D01*
X136528D01*
Y148070D01*
Y147947D01*
Y147823D01*
Y147700D01*
X136652D01*
Y147577D01*
Y147453D01*
Y147330D01*
Y147207D01*
Y147083D01*
X136775D01*
Y146960D01*
Y146836D01*
Y146713D01*
X136898D01*
Y146590D01*
Y146466D01*
Y146343D01*
X137022D01*
Y146220D01*
Y146096D01*
Y145973D01*
X137145D01*
Y145850D01*
Y145726D01*
X137268D01*
Y145603D01*
Y145480D01*
Y145356D01*
X137392D01*
Y145233D01*
Y145109D01*
X137515D01*
Y144986D01*
Y144863D01*
X137639D01*
Y144739D01*
Y144616D01*
X137762D01*
Y144493D01*
X137885D01*
Y144369D01*
Y144246D01*
X138009D01*
Y144123D01*
X138132D01*
Y143999D01*
Y143876D01*
X138255D01*
Y143752D01*
X138379D01*
Y143629D01*
X138502D01*
Y143506D01*
X138625D01*
Y143382D01*
Y143259D01*
X138749D01*
Y143136D01*
X138872D01*
Y143012D01*
X138995D01*
Y142889D01*
X139119D01*
Y142766D01*
X139242D01*
Y142642D01*
Y142519D01*
X139366D01*
Y142395D01*
X139489D01*
Y142272D01*
X139612D01*
Y142149D01*
X139736D01*
Y142025D01*
X139859D01*
Y141902D01*
X139982D01*
Y141779D01*
X140106D01*
Y141655D01*
X140229D01*
Y141532D01*
X140476D01*
Y141655D01*
X140599D01*
Y141779D01*
Y141902D01*
X140723D01*
Y142025D01*
X140846D01*
Y142149D01*
Y142272D01*
X140969D01*
Y142395D01*
Y142519D01*
X141093D01*
Y142642D01*
Y142766D01*
X141216D01*
Y142889D01*
Y143012D01*
X141339D01*
Y143136D01*
Y143259D01*
X141463D01*
Y143382D01*
Y143506D01*
X141586D01*
Y143629D01*
Y143752D01*
X141709D01*
Y143876D01*
Y143999D01*
Y144123D01*
X141833D01*
Y144246D01*
Y144369D01*
X141709D01*
Y144493D01*
X141586D01*
Y144616D01*
X141463D01*
Y144739D01*
X141339D01*
Y144863D01*
Y144986D01*
X141216D01*
Y145109D01*
X141093D01*
Y145233D01*
X140969D01*
Y145356D01*
X140846D01*
Y145480D01*
X140723D01*
Y145603D01*
X140599D01*
Y145726D01*
Y145850D01*
X140476D01*
Y145973D01*
X140352D01*
Y146096D01*
Y146220D01*
X140229D01*
Y146343D01*
Y146466D01*
X140106D01*
Y146590D01*
Y146713D01*
X139982D01*
Y146836D01*
Y146960D01*
X139859D01*
Y147083D01*
Y147207D01*
X139736D01*
Y147330D01*
Y147453D01*
Y147577D01*
X139612D01*
Y147700D01*
Y147823D01*
Y147947D01*
X139489D01*
Y148070D01*
Y148193D01*
X140106D01*
Y148070D01*
Y147947D01*
X140229D01*
Y147823D01*
Y147700D01*
Y147577D01*
X140352D01*
Y147453D01*
Y147330D01*
X140476D01*
Y147207D01*
Y147083D01*
X140599D01*
Y146960D01*
Y146836D01*
X140723D01*
Y146713D01*
Y146590D01*
X140846D01*
Y146466D01*
X140969D01*
Y146343D01*
Y146220D01*
X141093D01*
Y146096D01*
X141216D01*
Y145973D01*
Y145850D01*
X141339D01*
Y145726D01*
X141463D01*
Y145603D01*
X141586D01*
Y145480D01*
Y145356D01*
X141709D01*
Y145233D01*
X141833D01*
Y145109D01*
X142080D01*
Y144986D01*
X142203D01*
Y144863D01*
X142326D01*
Y144986D01*
X142450D01*
Y145109D01*
Y145233D01*
X142573D01*
Y145356D01*
X142696D01*
Y145480D01*
X142820D01*
Y145603D01*
Y145726D01*
X142943D01*
Y145850D01*
X143066D01*
Y145973D01*
Y146096D01*
X143190D01*
Y146220D01*
X143313D01*
Y146343D01*
X143436D01*
Y146466D01*
Y146590D01*
X143560D01*
Y146713D01*
Y146836D01*
X143683D01*
Y146960D01*
Y147083D01*
Y147207D01*
X143560D01*
Y147330D01*
X143436D01*
Y147453D01*
X143313D01*
Y147577D01*
Y147700D01*
X143190D01*
Y147823D01*
X143066D01*
Y147947D01*
Y148070D01*
X142943D01*
Y148193D01*
X143807D01*
Y148070D01*
Y147947D01*
X143930D01*
Y147823D01*
X144053D01*
Y147700D01*
X144300D01*
Y147823D01*
X144423D01*
Y147947D01*
X144547D01*
Y148070D01*
X144670D01*
Y148193D01*
X145534D01*
Y148070D01*
X145410D01*
Y147947D01*
Y147823D01*
X145287D01*
Y147700D01*
X145164D01*
Y147577D01*
X145040D01*
Y147453D01*
X144917D01*
Y147330D01*
Y147207D01*
Y147083D01*
X145040D01*
Y146960D01*
X145287D01*
Y146836D01*
X145534D01*
Y146713D01*
X147014D01*
Y146836D01*
X147384D01*
Y146960D01*
X147754D01*
Y147083D01*
X148001D01*
Y147207D01*
X148124D01*
Y147330D01*
X148371D01*
Y147453D01*
X148494D01*
Y147577D01*
X148618D01*
Y147700D01*
X148741D01*
Y147823D01*
X148864D01*
Y147947D01*
X148988D01*
Y148070D01*
Y148193D01*
X149851D01*
Y148070D01*
X149728D01*
Y147947D01*
Y147823D01*
X149605D01*
Y147700D01*
X149481D01*
Y147577D01*
X149358D01*
Y147453D01*
Y147330D01*
X149234D01*
Y147207D01*
X149111D01*
Y147083D01*
X148988D01*
Y146960D01*
X148864D01*
Y146836D01*
X148618D01*
Y146713D01*
X148494D01*
Y146590D01*
X148248D01*
Y146466D01*
X148001D01*
Y146343D01*
X147754D01*
Y146220D01*
X147261D01*
Y146096D01*
X145534D01*
Y146220D01*
X145040D01*
Y146343D01*
X144670D01*
Y146466D01*
X144177D01*
Y146343D01*
X144053D01*
Y146220D01*
Y146096D01*
X143930D01*
Y145973D01*
X143807D01*
Y145850D01*
Y145726D01*
X143683D01*
Y145603D01*
X143560D01*
Y145480D01*
Y145356D01*
X143436D01*
Y145233D01*
X143313D01*
Y145109D01*
Y144986D01*
X143190D01*
Y144863D01*
X143066D01*
Y144739D01*
Y144616D01*
X142943D01*
Y144493D01*
X142820D01*
Y144369D01*
X142943D01*
Y144246D01*
X143190D01*
Y144123D01*
X143436D01*
Y143999D01*
X143683D01*
Y143876D01*
X144053D01*
Y143752D01*
X144300D01*
Y143629D01*
X144793D01*
Y143506D01*
X145410D01*
Y143382D01*
X147261D01*
Y143506D01*
X147877D01*
Y143629D01*
X148371D01*
Y143752D01*
X148741D01*
Y143876D01*
X148988D01*
Y143999D01*
X149234D01*
Y144123D01*
X149481D01*
Y144246D01*
X149728D01*
Y144369D01*
X149975D01*
Y144493D01*
X150098D01*
Y144616D01*
X150221D01*
Y144739D01*
X150468D01*
Y144863D01*
X150591D01*
Y144986D01*
X150715D01*
Y145109D01*
X150838D01*
Y145233D01*
X150961D01*
Y145356D01*
X151085D01*
Y145480D01*
X151208D01*
Y145603D01*
X151332D01*
Y145726D01*
X151455D01*
Y145850D01*
X151578D01*
Y145973D01*
Y146096D01*
X151702D01*
Y146220D01*
X151825D01*
Y146343D01*
Y146466D01*
X151948D01*
Y146590D01*
X152072D01*
Y146713D01*
Y146836D01*
X152195D01*
Y146960D01*
Y147083D01*
X152318D01*
Y147207D01*
Y147330D01*
X152442D01*
Y147453D01*
Y147577D01*
Y147700D01*
X152565D01*
Y147823D01*
Y147947D01*
Y148070D01*
X152689D01*
Y148193D01*
X153429D01*
Y148070D01*
X153305D01*
Y147947D01*
Y147823D01*
Y147700D01*
X153182D01*
Y147577D01*
Y147453D01*
X153059D01*
Y147330D01*
Y147207D01*
Y147083D01*
X152935D01*
Y146960D01*
Y146836D01*
X152812D01*
Y146713D01*
Y146590D01*
X152689D01*
Y146466D01*
X152565D01*
Y146343D01*
Y146220D01*
X152442D01*
Y146096D01*
Y145973D01*
X152318D01*
Y145850D01*
X152195D01*
Y145726D01*
Y145603D01*
X152072D01*
Y145480D01*
X151948D01*
Y145356D01*
X151825D01*
Y145233D01*
X151702D01*
Y145109D01*
Y144986D01*
X151578D01*
Y144863D01*
X151455D01*
Y144739D01*
X151332D01*
Y144616D01*
X151208D01*
Y144493D01*
X150961D01*
Y144369D01*
X150838D01*
Y144246D01*
X150715D01*
Y144123D01*
X150591D01*
Y143999D01*
X150345D01*
Y143876D01*
X150221D01*
Y143752D01*
X149975D01*
Y143629D01*
X149728D01*
Y143506D01*
X149481D01*
Y143382D01*
X149234D01*
Y143259D01*
X148988D01*
Y143136D01*
X148741D01*
Y143012D01*
X148371D01*
Y142889D01*
X147754D01*
Y142766D01*
X145164D01*
Y142889D01*
X144423D01*
Y143012D01*
X144053D01*
Y143136D01*
X143807D01*
Y143259D01*
X143436D01*
Y143382D01*
X143190D01*
Y143506D01*
X142943D01*
Y143629D01*
X142326D01*
Y143506D01*
Y143382D01*
X142203D01*
Y143259D01*
X142080D01*
Y143136D01*
Y143012D01*
X141956D01*
Y142889D01*
Y142766D01*
X141833D01*
Y142642D01*
Y142519D01*
X141709D01*
Y142395D01*
Y142272D01*
X141586D01*
Y142149D01*
Y142025D01*
X141463D01*
Y141902D01*
Y141779D01*
X141339D01*
Y141655D01*
Y141532D01*
X141216D01*
Y141409D01*
Y141285D01*
Y141162D01*
Y141039D01*
X141339D01*
Y140915D01*
X141463D01*
Y140792D01*
X141709D01*
Y140668D01*
X141956D01*
Y140545D01*
X142203D01*
Y140422D01*
X142450D01*
Y140298D01*
X142696D01*
Y140175D01*
X143066D01*
Y140052D01*
X143313D01*
Y139928D01*
X143683D01*
Y139805D01*
X144177D01*
Y139682D01*
X144793D01*
Y139558D01*
X145780D01*
Y139435D01*
X147261D01*
Y139558D01*
X148371D01*
Y139682D01*
X148988D01*
Y139805D01*
X149481D01*
Y139928D01*
X149851D01*
Y140052D01*
X150221D01*
Y140175D01*
X150468D01*
Y140298D01*
X150838D01*
Y140422D01*
X151085D01*
Y140545D01*
X151332D01*
Y140668D01*
X151455D01*
Y140792D01*
X151702D01*
Y140915D01*
X151948D01*
Y141039D01*
X152072D01*
Y141162D01*
X152318D01*
Y141285D01*
X152442D01*
Y141409D01*
X152565D01*
Y141532D01*
X152812D01*
Y141655D01*
X152935D01*
Y141779D01*
X153059D01*
Y141902D01*
X153182D01*
Y142025D01*
X153305D01*
Y142149D01*
X153429D01*
Y142272D01*
X153675D01*
Y142395D01*
Y142519D01*
X153799D01*
Y142642D01*
X153922D01*
Y142766D01*
X154046D01*
Y142889D01*
X154169D01*
Y143012D01*
X154292D01*
Y143136D01*
X154416D01*
Y143259D01*
X154539D01*
Y143382D01*
Y143506D01*
X154662D01*
Y143629D01*
X154786D01*
Y143752D01*
X154909D01*
Y143876D01*
Y143999D01*
X155032D01*
Y144123D01*
X155156D01*
Y144246D01*
Y144369D01*
X155279D01*
Y144493D01*
Y144616D01*
X155402D01*
Y144739D01*
X155526D01*
Y144863D01*
Y144986D01*
X155649D01*
Y145109D01*
Y145233D01*
X155773D01*
Y145356D01*
Y145480D01*
X155896D01*
Y145603D01*
Y145726D01*
X156019D01*
Y145850D01*
Y145973D01*
Y146096D01*
X156143D01*
Y146220D01*
Y146343D01*
Y146466D01*
X156266D01*
Y146590D01*
Y146713D01*
X156389D01*
Y146836D01*
Y146960D01*
Y147083D01*
Y147207D01*
X156513D01*
Y147330D01*
Y147453D01*
Y147577D01*
Y147700D01*
X156636D01*
Y147823D01*
Y147947D01*
Y148070D01*
Y148193D01*
X157253D01*
Y148070D01*
Y147947D01*
Y147823D01*
Y147700D01*
Y147577D01*
Y147453D01*
X157130D01*
Y147330D01*
Y147207D01*
Y147083D01*
Y146960D01*
X157006D01*
Y146836D01*
Y146713D01*
Y146590D01*
X156883D01*
Y146466D01*
Y146343D01*
Y146220D01*
X156759D01*
Y146096D01*
Y145973D01*
Y145850D01*
X156636D01*
Y145726D01*
Y145603D01*
Y145480D01*
X156513D01*
Y145356D01*
Y145233D01*
Y145109D01*
X156389D01*
Y144986D01*
Y144863D01*
X156266D01*
Y144739D01*
Y144616D01*
X156143D01*
Y144493D01*
Y144369D01*
Y144246D01*
X156019D01*
Y144123D01*
X156143D01*
Y143999D01*
X156266D01*
Y144123D01*
X156636D01*
Y144246D01*
X157006D01*
Y144369D01*
X157376D01*
Y144493D01*
X157870D01*
Y144616D01*
X158486D01*
Y144739D01*
X159350D01*
Y144863D01*
X159843D01*
Y144986D01*
X160090D01*
Y145109D01*
X160337D01*
Y145233D01*
X160460D01*
Y145356D01*
X160584D01*
Y145480D01*
X160707D01*
Y145603D01*
X160954D01*
Y145726D01*
X161077D01*
Y145850D01*
X161200D01*
Y145973D01*
X161447D01*
Y146096D01*
X161571D01*
Y146220D01*
X161817D01*
Y146343D01*
X162064D01*
Y146466D01*
X162187D01*
Y146590D01*
X162434D01*
Y146713D01*
X162681D01*
Y146836D01*
X162927D01*
Y146960D01*
X163174D01*
Y147083D01*
X163421D01*
Y147207D01*
X163544D01*
Y147330D01*
X163051D01*
Y147453D01*
X162681D01*
Y147577D01*
X162311D01*
Y147700D01*
X162064D01*
Y147823D01*
X161817D01*
Y147947D01*
X161571D01*
Y148070D01*
X161324D01*
Y148193D01*
X162927D01*
Y148070D01*
X163298D01*
Y147947D01*
X163668D01*
Y147823D01*
X164408D01*
Y147700D01*
X165518D01*
Y147577D01*
X166875D01*
Y147700D01*
X167985D01*
Y147823D01*
X168602D01*
Y147947D01*
X168972D01*
Y148070D01*
X169342D01*
Y148193D01*
X171069D01*
Y148070D01*
X170823D01*
Y147947D01*
X170576D01*
Y147823D01*
X170329D01*
Y147700D01*
X169959D01*
Y147577D01*
X169712D01*
Y147453D01*
X169342D01*
Y147330D01*
X168972D01*
Y147207D01*
Y147083D01*
X169219D01*
Y146960D01*
X169466D01*
Y146836D01*
X169712D01*
Y146713D01*
X169959D01*
Y146590D01*
X170206D01*
Y146466D01*
X170329D01*
Y146343D01*
X170576D01*
Y146220D01*
X170823D01*
Y146096D01*
X170946D01*
Y145973D01*
X171193D01*
Y145850D01*
X171316D01*
Y145726D01*
X171439D01*
Y145603D01*
X171686D01*
Y145480D01*
X171809D01*
Y145356D01*
X171933D01*
Y145233D01*
X172056D01*
Y145109D01*
X172303D01*
Y144986D01*
X172426D01*
Y144863D01*
X173166D01*
Y144739D01*
X174030D01*
Y144616D01*
X174523D01*
Y144493D01*
X175017D01*
Y144369D01*
X175510D01*
Y144246D01*
X175757D01*
Y144123D01*
X176004D01*
Y143999D01*
X176250D01*
Y143876D01*
X176374D01*
Y143999D01*
Y144123D01*
Y144246D01*
Y144369D01*
X176250D01*
Y144493D01*
Y144616D01*
Y144739D01*
X176127D01*
Y144863D01*
Y144986D01*
X176004D01*
Y145109D01*
Y145233D01*
X175880D01*
Y145356D01*
Y145480D01*
X175757D01*
Y145603D01*
Y145726D01*
Y145850D01*
X175634D01*
Y145973D01*
Y146096D01*
Y146220D01*
X175510D01*
Y146343D01*
Y146466D01*
Y146590D01*
X175387D01*
Y146713D01*
Y146836D01*
Y146960D01*
X175264D01*
Y147083D01*
Y147207D01*
Y147330D01*
Y147453D01*
Y147577D01*
X175140D01*
Y147700D01*
Y147823D01*
Y147947D01*
Y148070D01*
Y148193D01*
X175757D01*
Y148070D01*
D02*
G37*
G36*
X179705D02*
X179828D01*
Y147947D01*
Y147823D01*
Y147700D01*
X179951D01*
Y147577D01*
Y147453D01*
Y147330D01*
X180075D01*
Y147207D01*
Y147083D01*
X180198D01*
Y146960D01*
Y146836D01*
X180321D01*
Y146713D01*
Y146590D01*
X180445D01*
Y146466D01*
X180568D01*
Y146343D01*
Y146220D01*
X180691D01*
Y146096D01*
X180815D01*
Y145973D01*
Y145850D01*
X180938D01*
Y145726D01*
X181062D01*
Y145603D01*
X181185D01*
Y145480D01*
X181308D01*
Y145356D01*
X181432D01*
Y145233D01*
X181555D01*
Y145109D01*
X181678D01*
Y144986D01*
X181802D01*
Y144863D01*
X181925D01*
Y144739D01*
X182048D01*
Y144616D01*
X182295D01*
Y144493D01*
X182418D01*
Y144369D01*
X182665D01*
Y144246D01*
X182789D01*
Y144123D01*
X183035D01*
Y143999D01*
X183282D01*
Y143876D01*
X183652D01*
Y143752D01*
X183899D01*
Y143629D01*
X184269D01*
Y143506D01*
X184886D01*
Y143382D01*
X185325D01*
X185325Y142766D01*
X184639Y142766D01*
Y142889D01*
X184022D01*
Y143012D01*
X183652D01*
Y143136D01*
X183405D01*
Y143259D01*
X183159D01*
Y143382D01*
X182912D01*
Y143506D01*
X182665D01*
Y143629D01*
X182418D01*
Y143752D01*
X182295D01*
Y143876D01*
X182048D01*
Y143999D01*
X181925D01*
Y144123D01*
X181678D01*
Y144246D01*
X181555D01*
Y144369D01*
X181432D01*
Y144493D01*
X181308D01*
Y144616D01*
X181185D01*
Y144739D01*
X181062D01*
Y144863D01*
X180938D01*
Y144986D01*
X180815D01*
Y145109D01*
X180691D01*
Y145233D01*
X180568D01*
Y145356D01*
X180445D01*
Y145480D01*
Y145603D01*
X180321D01*
Y145726D01*
X180198D01*
Y145850D01*
X180075D01*
Y145973D01*
Y146096D01*
X179951D01*
Y146220D01*
X179828D01*
Y146343D01*
Y146466D01*
X179705D01*
Y146590D01*
Y146713D01*
X179581D01*
Y146836D01*
Y146960D01*
X179458D01*
Y147083D01*
Y147207D01*
X179334D01*
Y147330D01*
Y147453D01*
Y147577D01*
X179211D01*
Y147700D01*
Y147823D01*
Y147947D01*
X179088D01*
Y148070D01*
Y148193D01*
X179705D01*
Y148070D01*
D02*
G37*
G36*
X127893D02*
X127770D01*
Y147947D01*
Y147823D01*
X127646D01*
Y147700D01*
Y147577D01*
X127523D01*
Y147453D01*
Y147330D01*
X127400D01*
Y147207D01*
Y147083D01*
Y146960D01*
X127276D01*
Y146836D01*
Y146713D01*
X127153D01*
Y146590D01*
Y146466D01*
X127029D01*
Y146343D01*
Y146220D01*
Y146096D01*
X126906D01*
Y145973D01*
Y145850D01*
X126783D01*
Y145726D01*
Y145603D01*
Y145480D01*
X126659D01*
Y145356D01*
Y145233D01*
X126536D01*
Y145109D01*
Y144986D01*
Y144863D01*
X126413D01*
Y144739D01*
Y144616D01*
Y144493D01*
X126289D01*
Y144369D01*
Y144246D01*
X126166D01*
Y144123D01*
Y143999D01*
Y143876D01*
X126043D01*
Y143752D01*
Y143629D01*
Y143506D01*
X125919D01*
Y143382D01*
Y143259D01*
Y143136D01*
X125796D01*
Y143012D01*
Y142889D01*
Y142766D01*
X125673D01*
Y142642D01*
Y142519D01*
Y142395D01*
Y142272D01*
X125549D01*
Y142149D01*
Y142025D01*
Y141902D01*
X125426D01*
Y141779D01*
Y141655D01*
Y141532D01*
X125302D01*
Y141655D01*
Y141779D01*
Y141902D01*
Y142025D01*
Y142149D01*
Y142272D01*
Y142395D01*
Y142519D01*
Y142642D01*
Y142766D01*
Y142889D01*
Y143012D01*
Y143136D01*
Y143259D01*
Y143382D01*
Y143506D01*
Y143629D01*
X125426D01*
Y143752D01*
Y143876D01*
Y143999D01*
X125549D01*
Y144123D01*
Y144246D01*
Y144369D01*
X125673D01*
Y144493D01*
Y144616D01*
Y144739D01*
X125796D01*
Y144863D01*
Y144986D01*
Y145109D01*
X125919D01*
Y145233D01*
Y145356D01*
X126043D01*
Y145480D01*
Y145603D01*
Y145726D01*
X126166D01*
Y145850D01*
Y145973D01*
Y146096D01*
X126289D01*
Y146220D01*
Y146343D01*
X126413D01*
Y146466D01*
Y146590D01*
X126536D01*
Y146713D01*
Y146836D01*
Y146960D01*
X126659D01*
Y147083D01*
Y147207D01*
X126783D01*
Y147330D01*
Y147453D01*
X126906D01*
Y147577D01*
Y147700D01*
Y147823D01*
X127029D01*
Y147947D01*
Y148070D01*
X127153D01*
Y148193D01*
X127893D01*
Y148070D01*
D02*
G37*
G36*
X130730D02*
X130607D01*
Y147947D01*
Y147823D01*
X130484D01*
Y147700D01*
Y147577D01*
X130360D01*
Y147453D01*
Y147330D01*
X130237D01*
Y147207D01*
Y147083D01*
X130114D01*
Y146960D01*
Y146836D01*
Y146713D01*
X129990D01*
Y146590D01*
Y146466D01*
X129867D01*
Y146343D01*
Y146220D01*
X129743D01*
Y146096D01*
Y145973D01*
X129620D01*
Y145850D01*
Y145726D01*
Y145603D01*
X129497D01*
Y145480D01*
Y145356D01*
X129373D01*
Y145233D01*
Y145109D01*
Y144986D01*
X129250D01*
Y144863D01*
Y144739D01*
X129127D01*
Y144616D01*
Y144493D01*
Y144369D01*
X129003D01*
Y144246D01*
Y144123D01*
X128880D01*
Y143999D01*
Y143876D01*
Y143752D01*
X128757D01*
Y143629D01*
Y143506D01*
Y143382D01*
X128633D01*
Y143259D01*
Y143136D01*
Y143012D01*
X128510D01*
Y142889D01*
Y142766D01*
Y142642D01*
X128386D01*
Y142519D01*
Y142395D01*
Y142272D01*
X128263D01*
Y142149D01*
Y142025D01*
Y141902D01*
X128140D01*
Y141779D01*
Y141655D01*
Y141532D01*
X128016D01*
Y141409D01*
Y141285D01*
Y141162D01*
X127893D01*
Y141039D01*
Y140915D01*
Y140792D01*
Y140668D01*
X127770D01*
Y140545D01*
Y140422D01*
Y140298D01*
Y140175D01*
X127646D01*
Y140052D01*
Y139928D01*
Y139805D01*
Y139682D01*
X127523D01*
Y139558D01*
Y139435D01*
Y139311D01*
Y139188D01*
X127400D01*
Y139065D01*
Y138941D01*
Y138818D01*
Y138695D01*
X127276D01*
Y138571D01*
Y138448D01*
Y138325D01*
Y138201D01*
X127153D01*
Y138078D01*
Y137954D01*
Y137831D01*
Y137708D01*
Y137584D01*
X127029D01*
Y137461D01*
Y137338D01*
Y137214D01*
Y137091D01*
Y136968D01*
Y136844D01*
X126906D01*
Y136721D01*
Y136598D01*
Y136474D01*
Y136351D01*
Y136227D01*
Y136104D01*
X126783D01*
Y135981D01*
Y135857D01*
Y135734D01*
Y135611D01*
Y135487D01*
Y135364D01*
Y135241D01*
X126659D01*
Y135117D01*
Y134994D01*
Y134870D01*
Y134747D01*
Y134624D01*
Y134500D01*
Y134377D01*
Y134254D01*
Y134130D01*
Y134007D01*
X126536D01*
Y133884D01*
Y133760D01*
Y133637D01*
Y133514D01*
Y133390D01*
Y133267D01*
Y133143D01*
Y133020D01*
Y132897D01*
Y132773D01*
Y132650D01*
Y132527D01*
Y132403D01*
Y132280D01*
Y132157D01*
Y132033D01*
Y131910D01*
Y131786D01*
Y131663D01*
Y131540D01*
Y131416D01*
Y131293D01*
Y131170D01*
Y131046D01*
X126413D01*
Y130923D01*
Y130800D01*
Y130676D01*
Y130553D01*
Y130429D01*
Y130306D01*
Y130183D01*
Y130059D01*
Y129936D01*
Y129813D01*
Y129689D01*
Y129566D01*
Y129443D01*
Y129319D01*
Y129196D01*
Y129073D01*
Y128949D01*
Y128826D01*
X126536D01*
Y128702D01*
Y128579D01*
Y128456D01*
Y128332D01*
Y128209D01*
Y128086D01*
Y127962D01*
Y127839D01*
Y127716D01*
Y127592D01*
Y127469D01*
Y127345D01*
Y127222D01*
Y127099D01*
Y126975D01*
Y126852D01*
Y126729D01*
Y126605D01*
Y126482D01*
Y126359D01*
Y126235D01*
Y126112D01*
Y125989D01*
X126659D01*
Y125865D01*
Y125742D01*
Y125618D01*
Y125495D01*
Y125372D01*
Y125248D01*
Y125125D01*
Y125002D01*
Y124878D01*
Y124755D01*
X126783D01*
Y124632D01*
Y124508D01*
Y124385D01*
Y124261D01*
Y124138D01*
Y124015D01*
Y123891D01*
Y123768D01*
X126906D01*
Y123645D01*
Y123521D01*
Y123398D01*
Y123275D01*
Y123151D01*
Y123028D01*
X127029D01*
Y122904D01*
X126413D01*
Y123028D01*
X126289D01*
Y123151D01*
Y123275D01*
Y123398D01*
Y123521D01*
Y123645D01*
Y123768D01*
Y123891D01*
X126166D01*
Y124015D01*
Y124138D01*
Y124261D01*
Y124385D01*
Y124508D01*
Y124632D01*
X126043D01*
Y124755D01*
Y124878D01*
Y125002D01*
Y125125D01*
Y125248D01*
Y125372D01*
Y125495D01*
Y125618D01*
Y125742D01*
Y125865D01*
X125919D01*
Y125989D01*
Y126112D01*
Y126235D01*
Y126359D01*
Y126482D01*
Y126605D01*
Y126729D01*
Y126852D01*
Y126975D01*
Y127099D01*
Y127222D01*
Y127345D01*
Y127469D01*
Y127592D01*
Y127716D01*
Y127839D01*
Y127962D01*
Y128086D01*
X125796D01*
Y128209D01*
Y128332D01*
Y128456D01*
Y128579D01*
Y128702D01*
Y128826D01*
Y128949D01*
Y129073D01*
Y129196D01*
Y129319D01*
Y129443D01*
Y129566D01*
Y129689D01*
Y129813D01*
Y129936D01*
Y130059D01*
Y130183D01*
Y130306D01*
Y130429D01*
Y130553D01*
Y130676D01*
Y130800D01*
Y130923D01*
Y131046D01*
Y131170D01*
Y131293D01*
Y131416D01*
Y131540D01*
Y131663D01*
Y131786D01*
Y131910D01*
Y132033D01*
Y132157D01*
Y132280D01*
Y132403D01*
X125919D01*
Y132527D01*
Y132650D01*
Y132773D01*
Y132897D01*
Y133020D01*
Y133143D01*
Y133267D01*
Y133390D01*
Y133514D01*
Y133637D01*
Y133760D01*
Y133884D01*
Y134007D01*
Y134130D01*
Y134254D01*
Y134377D01*
Y134500D01*
X126043D01*
Y134624D01*
Y134747D01*
Y134870D01*
Y134994D01*
Y135117D01*
Y135241D01*
Y135364D01*
Y135487D01*
Y135611D01*
X126166D01*
Y135734D01*
Y135857D01*
Y135981D01*
Y136104D01*
Y136227D01*
Y136351D01*
Y136474D01*
X126289D01*
Y136598D01*
Y136721D01*
Y136844D01*
Y136968D01*
Y137091D01*
X126413D01*
Y137214D01*
Y137338D01*
Y137461D01*
Y137584D01*
Y137708D01*
X126536D01*
Y137831D01*
Y137954D01*
Y138078D01*
Y138201D01*
Y138325D01*
X126659D01*
Y138448D01*
Y138571D01*
Y138695D01*
Y138818D01*
Y138941D01*
X126783D01*
Y139065D01*
Y139188D01*
Y139311D01*
Y139435D01*
X126906D01*
Y139558D01*
Y139682D01*
Y139805D01*
Y139928D01*
X127029D01*
Y140052D01*
Y140175D01*
Y140298D01*
Y140422D01*
X127153D01*
Y140545D01*
Y140668D01*
Y140792D01*
X127276D01*
Y140915D01*
Y141039D01*
Y141162D01*
Y141285D01*
X127400D01*
Y141409D01*
Y141532D01*
Y141655D01*
X127523D01*
Y141779D01*
Y141902D01*
Y142025D01*
X127646D01*
Y142149D01*
Y142272D01*
Y142395D01*
Y142519D01*
X127770D01*
Y142642D01*
Y142766D01*
Y142889D01*
X127893D01*
Y143012D01*
Y143136D01*
Y143259D01*
X128016D01*
Y143382D01*
Y143506D01*
X128140D01*
Y143629D01*
Y143752D01*
Y143876D01*
X128263D01*
Y143999D01*
Y144123D01*
Y144246D01*
X128386D01*
Y144369D01*
Y144493D01*
Y144616D01*
X128510D01*
Y144739D01*
Y144863D01*
X128633D01*
Y144986D01*
Y145109D01*
Y145233D01*
X128757D01*
Y145356D01*
Y145480D01*
X128880D01*
Y145603D01*
Y145726D01*
X129003D01*
Y145850D01*
Y145973D01*
Y146096D01*
X129127D01*
Y146220D01*
Y146343D01*
X129250D01*
Y146466D01*
Y146590D01*
X129373D01*
Y146713D01*
Y146836D01*
Y146960D01*
X129497D01*
Y147083D01*
Y147207D01*
X129620D01*
Y147330D01*
Y147453D01*
X129743D01*
Y147577D01*
Y147700D01*
X129867D01*
Y147823D01*
Y147947D01*
X129990D01*
Y148070D01*
Y148193D01*
X130730D01*
Y148070D01*
D02*
G37*
%LPC*%
G36*
X167492Y146836D02*
X164901D01*
Y146713D01*
X164284D01*
Y146590D01*
X163791D01*
Y146466D01*
X163421D01*
Y146343D01*
X163174D01*
Y146220D01*
X162804D01*
Y146096D01*
X162557D01*
Y145973D01*
X162434D01*
Y145850D01*
X162187D01*
Y145726D01*
X161941D01*
Y145603D01*
X161817D01*
Y145480D01*
X161694D01*
Y145356D01*
X161571D01*
Y145233D01*
X161324D01*
Y145109D01*
X161200D01*
Y144986D01*
X161077D01*
Y144863D01*
X160954D01*
Y144739D01*
Y144616D01*
X161694D01*
Y144493D01*
X162064D01*
Y144369D01*
X162434D01*
Y144246D01*
X162804D01*
Y144123D01*
X163051D01*
Y143999D01*
X163298D01*
Y143876D01*
X163544D01*
Y143752D01*
X163791D01*
Y143629D01*
X164038D01*
Y143506D01*
X164161D01*
Y143382D01*
X164408D01*
Y143259D01*
X164531D01*
Y143136D01*
X164778D01*
Y143012D01*
X164901D01*
Y142889D01*
X165025D01*
Y142766D01*
X165271D01*
Y142642D01*
X165395D01*
Y142519D01*
X165518D01*
Y142395D01*
X165641D01*
Y142272D01*
X165765D01*
Y142149D01*
X165888D01*
Y142025D01*
X166012D01*
Y141902D01*
X166382D01*
Y142025D01*
X166505D01*
Y142149D01*
X166628D01*
Y142272D01*
X166752D01*
Y142395D01*
X166875D01*
Y142519D01*
X166998D01*
Y142642D01*
X167245D01*
Y142766D01*
X167368D01*
Y142889D01*
X167492D01*
Y143012D01*
X167615D01*
Y143136D01*
X167862D01*
Y143259D01*
X167985D01*
Y143382D01*
X168109D01*
Y143506D01*
X168355D01*
Y143629D01*
X168602D01*
Y143752D01*
X168849D01*
Y143876D01*
X169096D01*
Y143999D01*
X169342D01*
Y144123D01*
X169712D01*
Y144246D01*
X169959D01*
Y144369D01*
X170329D01*
Y144493D01*
X170823D01*
Y144616D01*
X171193D01*
Y144739D01*
X171439D01*
Y144863D01*
X171316D01*
Y144986D01*
X171193D01*
Y145109D01*
X171069D01*
Y145233D01*
X170946D01*
Y145356D01*
X170699D01*
Y145480D01*
X170576D01*
Y145603D01*
X170452D01*
Y145726D01*
X170206D01*
Y145850D01*
X169959D01*
Y145973D01*
X169836D01*
Y146096D01*
X169589D01*
Y146220D01*
X169219D01*
Y146343D01*
X168972D01*
Y146466D01*
X168602D01*
Y146590D01*
X168109D01*
Y146713D01*
X167492D01*
Y146836D01*
D02*
G37*
G36*
X137268Y143876D02*
X137145D01*
Y143752D01*
X137268D01*
Y143629D01*
Y143506D01*
Y143382D01*
Y143259D01*
Y143136D01*
Y143012D01*
X137145D01*
Y142889D01*
Y142766D01*
Y142642D01*
Y142519D01*
Y142395D01*
X137022D01*
Y142272D01*
Y142149D01*
Y142025D01*
X136898D01*
Y141902D01*
Y141779D01*
X136775D01*
Y141655D01*
Y141532D01*
X136652D01*
Y141409D01*
X136528D01*
Y141285D01*
Y141162D01*
X136405D01*
Y141039D01*
X136282D01*
Y140915D01*
Y140792D01*
X139982D01*
Y140915D01*
Y141039D01*
X139859D01*
Y141162D01*
X139736D01*
Y141285D01*
X139612D01*
Y141409D01*
X139489D01*
Y141532D01*
X139366D01*
Y141655D01*
X139242D01*
Y141779D01*
X139119D01*
Y141902D01*
X138995D01*
Y142025D01*
X138872D01*
Y142149D01*
X138749D01*
Y142272D01*
X138625D01*
Y142395D01*
X138502D01*
Y142519D01*
X138379D01*
Y142642D01*
X138255D01*
Y142766D01*
X138132D01*
Y142889D01*
X138009D01*
Y143012D01*
X137885D01*
Y143136D01*
Y143259D01*
X137762D01*
Y143382D01*
X137639D01*
Y143506D01*
X137515D01*
Y143629D01*
X137392D01*
Y143752D01*
X137268D01*
Y143876D01*
D02*
G37*
G36*
X134431Y145973D02*
X133568D01*
Y145850D01*
X133074D01*
Y145726D01*
X132827D01*
Y145603D01*
X132581D01*
Y145480D01*
X132457D01*
Y145356D01*
X132211D01*
Y145233D01*
X132087D01*
Y145109D01*
Y144986D01*
X131964D01*
Y144863D01*
X131841D01*
Y144739D01*
Y144616D01*
X131717D01*
Y144493D01*
Y144369D01*
X131594D01*
Y144246D01*
Y144123D01*
Y143999D01*
X131470D01*
Y143876D01*
Y143752D01*
Y143629D01*
Y143506D01*
Y143382D01*
Y143259D01*
Y143136D01*
Y143012D01*
Y142889D01*
Y142766D01*
Y142642D01*
X131594D01*
Y142519D01*
Y142395D01*
Y142272D01*
X131717D01*
Y142149D01*
Y142025D01*
X131841D01*
Y141902D01*
X131964D01*
Y141779D01*
Y141655D01*
X132087D01*
Y141532D01*
X132211D01*
Y141409D01*
X132334D01*
Y141285D01*
X132581D01*
Y141162D01*
X132827D01*
Y141039D01*
X133074D01*
Y140915D01*
X133444D01*
Y140792D01*
X134431D01*
Y140915D01*
X134925D01*
Y141039D01*
X135171D01*
Y141162D01*
X135418D01*
Y141285D01*
X135541D01*
Y141409D01*
X135665D01*
Y141532D01*
X135911D01*
Y141655D01*
Y141779D01*
X136035D01*
Y141902D01*
X136158D01*
Y142025D01*
X136282D01*
Y142149D01*
Y142272D01*
Y142395D01*
X136405D01*
Y142519D01*
Y142642D01*
X136528D01*
Y142766D01*
Y142889D01*
Y143012D01*
Y143136D01*
Y143259D01*
Y143382D01*
Y143506D01*
Y143629D01*
Y143752D01*
Y143876D01*
Y143999D01*
Y144123D01*
X136405D01*
Y144246D01*
Y144369D01*
Y144493D01*
X136282D01*
Y144616D01*
Y144739D01*
X136158D01*
Y144863D01*
X136035D01*
Y144986D01*
X135911D01*
Y145109D01*
Y145233D01*
X135788D01*
Y145356D01*
X135541D01*
Y145480D01*
X135418D01*
Y145603D01*
X135171D01*
Y145726D01*
X134925D01*
Y145850D01*
X134431D01*
Y145973D01*
D02*
G37*
G36*
X152195Y140298D02*
X152072D01*
Y140175D01*
X151702D01*
Y140052D01*
X151455D01*
Y139928D01*
X151208D01*
Y139805D01*
X150961D01*
Y139682D01*
X150715D01*
Y139558D01*
X150345D01*
Y139435D01*
X149975D01*
Y139311D01*
X149481D01*
Y139188D01*
X148988D01*
Y139065D01*
X148371D01*
Y138941D01*
X147384D01*
Y138818D01*
X145534D01*
Y138941D01*
X144917D01*
Y138818D01*
Y138695D01*
X145164D01*
Y138571D01*
X145287D01*
Y138448D01*
X145410D01*
Y138325D01*
X145534D01*
Y138201D01*
X145657D01*
Y138078D01*
X145780D01*
Y137954D01*
X145904D01*
Y137831D01*
X146027D01*
Y137708D01*
X146150D01*
Y137584D01*
X146274D01*
Y137461D01*
X146397D01*
Y137338D01*
X146520D01*
Y137214D01*
X146644D01*
Y137091D01*
X146767D01*
Y136968D01*
X146891D01*
Y136844D01*
Y136721D01*
X147014D01*
Y136598D01*
X147137D01*
Y136474D01*
X147261D01*
Y136351D01*
Y136227D01*
X147384D01*
Y136104D01*
X147507D01*
Y135981D01*
Y135857D01*
X147631D01*
Y135734D01*
X147754D01*
Y135611D01*
Y135487D01*
X147877D01*
Y135364D01*
Y135241D01*
X148001D01*
Y135117D01*
Y134994D01*
X148124D01*
Y134870D01*
X148248D01*
Y134747D01*
Y134624D01*
X148371D01*
Y134500D01*
Y134377D01*
X148494D01*
Y134254D01*
Y134130D01*
Y134007D01*
X148618D01*
Y133884D01*
Y133760D01*
X148741D01*
Y133637D01*
Y133514D01*
Y133390D01*
X148864D01*
Y133267D01*
Y133143D01*
Y133020D01*
X148988D01*
Y132897D01*
Y132773D01*
X149111D01*
Y132897D01*
X149234D01*
Y133020D01*
Y133143D01*
X149358D01*
Y133267D01*
Y133390D01*
X149481D01*
Y133514D01*
Y133637D01*
X149605D01*
Y133760D01*
Y133884D01*
X149728D01*
Y134007D01*
Y134130D01*
X149851D01*
Y134254D01*
Y134377D01*
X149975D01*
Y134500D01*
X150098D01*
Y134624D01*
Y134747D01*
X150221D01*
Y134870D01*
X150345D01*
Y134994D01*
Y135117D01*
X150468D01*
Y135241D01*
X150591D01*
Y135364D01*
X150715D01*
Y135487D01*
X150838D01*
Y135611D01*
Y135734D01*
X150961D01*
Y135857D01*
X151085D01*
Y135981D01*
Y136104D01*
X151208D01*
Y136227D01*
Y136351D01*
X151332D01*
Y136474D01*
Y136598D01*
Y136721D01*
X151455D01*
Y136844D01*
Y136968D01*
Y137091D01*
Y137214D01*
Y137338D01*
Y137461D01*
X151578D01*
Y137584D01*
Y137708D01*
Y137831D01*
Y137954D01*
Y138078D01*
Y138201D01*
X151702D01*
Y138325D01*
Y138448D01*
Y138571D01*
Y138695D01*
X151825D01*
Y138818D01*
Y138941D01*
Y139065D01*
X151948D01*
Y139188D01*
Y139311D01*
Y139435D01*
X152072D01*
Y139558D01*
Y139682D01*
Y139805D01*
X152195D01*
Y139928D01*
Y140052D01*
X152318D01*
Y140175D01*
X152195D01*
Y140298D01*
D02*
G37*
G36*
X173166Y144246D02*
X172920D01*
Y144123D01*
X173043D01*
Y143999D01*
Y143876D01*
X173166D01*
Y143752D01*
Y143629D01*
X173290D01*
Y143506D01*
Y143382D01*
X173413D01*
Y143259D01*
Y143136D01*
X173536D01*
Y143012D01*
Y142889D01*
X173660D01*
Y142766D01*
Y142642D01*
X173783D01*
Y142519D01*
Y142395D01*
X173907D01*
Y142272D01*
Y142149D01*
Y142025D01*
X174030D01*
Y141902D01*
Y141779D01*
Y141655D01*
X174153D01*
Y141532D01*
Y141409D01*
Y141285D01*
Y141162D01*
X174277D01*
Y141039D01*
Y140915D01*
Y140792D01*
Y140668D01*
X174400D01*
Y140545D01*
Y140422D01*
Y140298D01*
Y140175D01*
Y140052D01*
Y139928D01*
Y139805D01*
Y139682D01*
Y139558D01*
Y139435D01*
X174523D01*
Y139311D01*
Y139188D01*
Y139065D01*
Y138941D01*
Y138818D01*
Y138695D01*
Y138571D01*
Y138448D01*
Y138325D01*
X176374D01*
Y138201D01*
X176991D01*
Y138078D01*
X177484D01*
Y137954D01*
X177977D01*
Y137831D01*
X178348D01*
Y137708D01*
X178594D01*
Y137584D01*
X178964D01*
Y137461D01*
X179211D01*
Y137338D01*
X179458D01*
Y137214D01*
X179705D01*
Y137091D01*
X180198D01*
Y137214D01*
X180321D01*
Y137338D01*
Y137461D01*
Y137584D01*
X180198D01*
Y137708D01*
Y137831D01*
Y137954D01*
Y138078D01*
X180075D01*
Y138201D01*
Y138325D01*
Y138448D01*
Y138571D01*
X179951D01*
Y138695D01*
Y138818D01*
Y138941D01*
X179828D01*
Y139065D01*
Y139188D01*
Y139311D01*
X179705D01*
Y139435D01*
Y139558D01*
X179581D01*
Y139682D01*
Y139805D01*
X179458D01*
Y139928D01*
Y140052D01*
X179334D01*
Y140175D01*
Y140298D01*
X179211D01*
Y140422D01*
Y140545D01*
X179088D01*
Y140668D01*
X178964D01*
Y140792D01*
Y140915D01*
X178841D01*
Y141039D01*
X178718D01*
Y141162D01*
Y141285D01*
X178594D01*
Y141409D01*
X178471D01*
Y141532D01*
X178348D01*
Y141655D01*
X178224D01*
Y141779D01*
X178101D01*
Y141902D01*
X177977D01*
Y142025D01*
X177854D01*
Y142149D01*
X177731D01*
Y142272D01*
X177607D01*
Y142395D01*
X177484D01*
Y142519D01*
X177237D01*
Y142642D01*
X177114D01*
Y142766D01*
X176867D01*
Y142889D01*
X176744D01*
Y143012D01*
X176497D01*
Y143136D01*
X176374D01*
Y143259D01*
X176127D01*
Y143382D01*
X175757D01*
Y143506D01*
X175510D01*
Y143629D01*
X175264D01*
Y143752D01*
X174893D01*
Y143876D01*
X174400D01*
Y143999D01*
X173907D01*
Y144123D01*
X173166D01*
Y144246D01*
D02*
G37*
G36*
X159350D02*
X159103D01*
Y144123D01*
X158486D01*
Y143999D01*
X157870D01*
Y143876D01*
X157500D01*
Y143752D01*
X157130D01*
Y143629D01*
X156883D01*
Y143506D01*
X156513D01*
Y143382D01*
X156389D01*
Y143259D01*
X156143D01*
Y143136D01*
X155896D01*
Y143012D01*
X155649D01*
Y142889D01*
X155526D01*
Y142766D01*
X155402D01*
Y142642D01*
X155156D01*
Y142519D01*
X155032D01*
Y142395D01*
X154909D01*
Y142272D01*
X154786D01*
Y142149D01*
X154539D01*
Y142025D01*
X154416D01*
Y141902D01*
X154292D01*
Y141779D01*
X154169D01*
Y141655D01*
Y141532D01*
X154046D01*
Y141409D01*
X153922D01*
Y141285D01*
X153799D01*
Y141162D01*
X153675D01*
Y141039D01*
X153552D01*
Y140915D01*
Y140792D01*
X153429D01*
Y140668D01*
X153305D01*
Y140545D01*
Y140422D01*
X153182D01*
Y140298D01*
X153059D01*
Y140175D01*
Y140052D01*
X152935D01*
Y139928D01*
Y139805D01*
X152812D01*
Y139682D01*
Y139558D01*
X152689D01*
Y139435D01*
Y139311D01*
X152565D01*
Y139188D01*
Y139065D01*
Y138941D01*
X152442D01*
Y138818D01*
Y138695D01*
Y138571D01*
X152318D01*
Y138448D01*
Y138325D01*
Y138201D01*
Y138078D01*
X152195D01*
Y137954D01*
Y137831D01*
Y137708D01*
Y137584D01*
Y137461D01*
X152072D01*
Y137338D01*
Y137214D01*
Y137091D01*
X152195D01*
Y136968D01*
X152442D01*
Y137091D01*
X152689D01*
Y137214D01*
X152935D01*
Y137338D01*
X153182D01*
Y137461D01*
X153552D01*
Y137584D01*
X153799D01*
Y137708D01*
X154169D01*
Y137831D01*
X154416D01*
Y137954D01*
X154909D01*
Y138078D01*
X155402D01*
Y138201D01*
X156143D01*
Y138325D01*
X157870D01*
Y138448D01*
Y138571D01*
Y138695D01*
Y138818D01*
Y138941D01*
Y139065D01*
Y139188D01*
Y139311D01*
Y139435D01*
X157993D01*
Y139558D01*
Y139682D01*
Y139805D01*
Y139928D01*
Y140052D01*
Y140175D01*
Y140298D01*
Y140422D01*
Y140545D01*
Y140668D01*
X158116D01*
Y140792D01*
Y140915D01*
Y141039D01*
Y141162D01*
X158240D01*
Y141285D01*
Y141409D01*
Y141532D01*
Y141655D01*
X158363D01*
Y141779D01*
Y141902D01*
Y142025D01*
X158486D01*
Y142149D01*
Y142272D01*
Y142395D01*
X158610D01*
Y142519D01*
Y142642D01*
X158733D01*
Y142766D01*
Y142889D01*
X158857D01*
Y143012D01*
Y143136D01*
X158980D01*
Y143259D01*
Y143382D01*
X159103D01*
Y143506D01*
Y143629D01*
X159227D01*
Y143752D01*
Y143876D01*
X159350D01*
Y143999D01*
Y144123D01*
Y144246D01*
D02*
G37*
G36*
X166382Y140298D02*
X166012D01*
Y140175D01*
Y140052D01*
X165888D01*
Y139928D01*
X165765D01*
Y139805D01*
Y139682D01*
Y139558D01*
X165641D01*
Y139435D01*
Y139311D01*
X165518D01*
Y139188D01*
Y139065D01*
Y138941D01*
X165395D01*
Y138818D01*
Y138695D01*
Y138571D01*
X165271D01*
Y138448D01*
Y138325D01*
Y138201D01*
Y138078D01*
Y137954D01*
X165148D01*
Y137831D01*
Y137708D01*
Y137584D01*
Y137461D01*
Y137338D01*
Y137214D01*
Y137091D01*
Y136968D01*
Y136844D01*
Y136721D01*
Y136598D01*
Y136474D01*
Y136351D01*
Y136227D01*
Y136104D01*
Y135981D01*
Y135857D01*
Y135734D01*
Y135611D01*
Y135487D01*
Y135364D01*
Y135241D01*
X165271D01*
Y135117D01*
Y134994D01*
Y134870D01*
Y134747D01*
Y134624D01*
Y134500D01*
X165395D01*
Y134377D01*
Y134254D01*
Y134130D01*
Y134007D01*
X165518D01*
Y133884D01*
Y133760D01*
Y133637D01*
X165641D01*
Y133514D01*
Y133390D01*
X165765D01*
Y133267D01*
Y133143D01*
X165888D01*
Y133020D01*
Y132897D01*
X166012D01*
Y132773D01*
Y132650D01*
X166382D01*
Y132773D01*
Y132897D01*
X166505D01*
Y133020D01*
Y133143D01*
X166628D01*
Y133267D01*
Y133390D01*
X166752D01*
Y133514D01*
Y133637D01*
Y133760D01*
X166875D01*
Y133884D01*
Y134007D01*
X166998D01*
Y134130D01*
Y134254D01*
Y134377D01*
Y134500D01*
X167122D01*
Y134624D01*
Y134747D01*
Y134870D01*
Y134994D01*
Y135117D01*
Y135241D01*
X167245D01*
Y135364D01*
Y135487D01*
Y135611D01*
Y135734D01*
Y135857D01*
Y135981D01*
Y136104D01*
Y136227D01*
Y136351D01*
Y136474D01*
Y136598D01*
Y136721D01*
Y136844D01*
Y136968D01*
Y137091D01*
Y137214D01*
Y137338D01*
Y137461D01*
Y137584D01*
Y137708D01*
Y137831D01*
X167122D01*
Y137954D01*
Y138078D01*
Y138201D01*
Y138325D01*
Y138448D01*
Y138571D01*
X166998D01*
Y138695D01*
Y138818D01*
Y138941D01*
Y139065D01*
X166875D01*
Y139188D01*
Y139311D01*
Y139435D01*
X166752D01*
Y139558D01*
Y139682D01*
X166628D01*
Y139805D01*
Y139928D01*
X166505D01*
Y140052D01*
Y140175D01*
X166382D01*
Y140298D01*
D02*
G37*
G36*
X173290Y137338D02*
X173043D01*
Y137214D01*
X172673D01*
Y137091D01*
X172426D01*
Y136968D01*
X172056D01*
Y136844D01*
X171809D01*
Y136721D01*
X171686D01*
Y136598D01*
X171439D01*
Y136474D01*
X171316D01*
Y136351D01*
X171193D01*
Y136227D01*
X170946D01*
Y136104D01*
X170823D01*
Y135981D01*
X170699D01*
Y135857D01*
X170576D01*
Y135734D01*
X170452D01*
Y135611D01*
X170329D01*
Y135487D01*
X170206D01*
Y135364D01*
X170082D01*
Y135241D01*
X169959D01*
Y135117D01*
X169836D01*
Y134994D01*
X169712D01*
Y134870D01*
X169589D01*
Y134747D01*
X169466D01*
Y134624D01*
X169342D01*
Y134500D01*
Y134377D01*
X169219D01*
Y134254D01*
X169096D01*
Y134130D01*
X168972D01*
Y134007D01*
Y133884D01*
X168849D01*
Y133760D01*
X168725D01*
Y133637D01*
Y133514D01*
X168602D01*
Y133390D01*
Y133267D01*
X168479D01*
Y133143D01*
Y133020D01*
Y132897D01*
X168355D01*
Y132773D01*
Y132650D01*
X168232D01*
Y132527D01*
Y132403D01*
Y132280D01*
Y132157D01*
X168355D01*
Y132033D01*
X168479D01*
Y132157D01*
X168972D01*
Y132280D01*
X169342D01*
Y132403D01*
X169589D01*
Y132527D01*
X169836D01*
Y132650D01*
X170082D01*
Y132773D01*
X170206D01*
Y132897D01*
X170452D01*
Y133020D01*
X170576D01*
Y133143D01*
X170699D01*
Y133267D01*
X170946D01*
Y133390D01*
X171069D01*
Y133514D01*
X171193D01*
Y133637D01*
X171316D01*
Y133760D01*
X171439D01*
Y133884D01*
X171563D01*
Y134007D01*
X171686D01*
Y134130D01*
X171809D01*
Y134254D01*
X171933D01*
Y134377D01*
X172056D01*
Y134500D01*
X172180D01*
Y134624D01*
Y134747D01*
X172303D01*
Y134870D01*
X172426D01*
Y134994D01*
X172550D01*
Y135117D01*
Y135241D01*
X172673D01*
Y135364D01*
X172796D01*
Y135487D01*
Y135611D01*
X172920D01*
Y135734D01*
Y135857D01*
X173043D01*
Y135981D01*
Y136104D01*
X173166D01*
Y136227D01*
Y136351D01*
X173290D01*
Y136474D01*
Y136598D01*
Y136721D01*
X173413D01*
Y136844D01*
Y136968D01*
Y137091D01*
Y137214D01*
X173290D01*
Y137338D01*
D02*
G37*
G36*
X159350D02*
X158980D01*
Y137214D01*
Y137091D01*
Y136968D01*
Y136844D01*
Y136721D01*
X159103D01*
Y136598D01*
Y136474D01*
Y136351D01*
X159227D01*
Y136227D01*
Y136104D01*
X159350D01*
Y135981D01*
Y135857D01*
X159473D01*
Y135734D01*
Y135611D01*
X159597D01*
Y135487D01*
Y135364D01*
X159720D01*
Y135241D01*
X159843D01*
Y135117D01*
Y134994D01*
X159967D01*
Y134870D01*
X160090D01*
Y134747D01*
X160214D01*
Y134624D01*
X160337D01*
Y134500D01*
Y134377D01*
X160460D01*
Y134254D01*
X160584D01*
Y134130D01*
X160707D01*
Y134007D01*
X160830D01*
Y133884D01*
X160954D01*
Y133760D01*
X161077D01*
Y133637D01*
X161200D01*
Y133514D01*
X161324D01*
Y133390D01*
X161571D01*
Y133267D01*
X161694D01*
Y133143D01*
X161817D01*
Y133020D01*
X162064D01*
Y132897D01*
X162187D01*
Y132773D01*
X162434D01*
Y132650D01*
X162557D01*
Y132527D01*
X162804D01*
Y132403D01*
X163051D01*
Y132280D01*
X163421D01*
Y132157D01*
X163668D01*
Y132033D01*
X164038D01*
Y132157D01*
X164161D01*
Y132280D01*
Y132403D01*
Y132527D01*
Y132650D01*
X164038D01*
Y132773D01*
Y132897D01*
Y133020D01*
X163914D01*
Y133143D01*
Y133267D01*
Y133390D01*
X163791D01*
Y133514D01*
X163668D01*
Y133637D01*
Y133760D01*
X163544D01*
Y133884D01*
Y134007D01*
X163421D01*
Y134130D01*
X163298D01*
Y134254D01*
Y134377D01*
X163174D01*
Y134500D01*
X163051D01*
Y134624D01*
X162927D01*
Y134747D01*
Y134870D01*
X162804D01*
Y134994D01*
X162681D01*
Y135117D01*
X162557D01*
Y135241D01*
X162434D01*
Y135364D01*
X162311D01*
Y135487D01*
X162187D01*
Y135611D01*
X162064D01*
Y135734D01*
X161941D01*
Y135857D01*
X161817D01*
Y135981D01*
X161571D01*
Y136104D01*
X161447D01*
Y136227D01*
X161324D01*
Y136351D01*
X161077D01*
Y136474D01*
X160954D01*
Y136598D01*
X160707D01*
Y136721D01*
X160584D01*
Y136844D01*
X160337D01*
Y136968D01*
X160090D01*
Y137091D01*
X159720D01*
Y137214D01*
X159350D01*
Y137338D01*
D02*
G37*
G36*
X172056Y144123D02*
X171316D01*
Y143999D01*
X170823D01*
Y143876D01*
X170452D01*
Y143752D01*
X170082D01*
Y143629D01*
X169836D01*
Y143506D01*
X169466D01*
Y143382D01*
X169219D01*
Y143259D01*
X169096D01*
Y143136D01*
X168849D01*
Y143012D01*
X168602D01*
Y142889D01*
X168479D01*
Y142766D01*
X168232D01*
Y142642D01*
X168109D01*
Y142519D01*
X167985D01*
Y142395D01*
X167862D01*
Y142272D01*
X167739D01*
Y142149D01*
X167492D01*
Y142025D01*
X167368D01*
Y141902D01*
X167245D01*
Y141779D01*
X167122D01*
Y141655D01*
X166998D01*
Y141532D01*
X166875D01*
Y141409D01*
X166752D01*
Y141285D01*
X166628D01*
Y141162D01*
Y141039D01*
X166752D01*
Y140915D01*
Y140792D01*
X166875D01*
Y140668D01*
Y140545D01*
X166998D01*
Y140422D01*
Y140298D01*
X167122D01*
Y140175D01*
Y140052D01*
Y139928D01*
X167245D01*
Y139805D01*
Y139682D01*
X167368D01*
Y139558D01*
Y139435D01*
X167492D01*
Y139311D01*
Y139188D01*
Y139065D01*
X167615D01*
Y138941D01*
Y138818D01*
Y138695D01*
X167739D01*
Y138571D01*
Y138448D01*
Y138325D01*
Y138201D01*
X167862D01*
Y138078D01*
Y137954D01*
Y137831D01*
Y137708D01*
Y137584D01*
Y137461D01*
X167985D01*
Y137338D01*
Y137214D01*
Y137091D01*
Y136968D01*
Y136844D01*
Y136721D01*
Y136598D01*
Y136474D01*
Y136351D01*
Y136227D01*
Y136104D01*
Y135981D01*
Y135857D01*
Y135734D01*
Y135611D01*
Y135487D01*
X167862D01*
Y135364D01*
Y135241D01*
Y135117D01*
Y134994D01*
Y134870D01*
Y134747D01*
X167739D01*
Y134624D01*
Y134500D01*
Y134377D01*
Y134254D01*
X167615D01*
Y134130D01*
Y134007D01*
Y133884D01*
X167492D01*
Y133760D01*
Y133637D01*
Y133514D01*
X167368D01*
Y133390D01*
Y133267D01*
X167245D01*
Y133143D01*
Y133020D01*
X167122D01*
Y132897D01*
Y132773D01*
X166998D01*
Y132650D01*
Y132527D01*
Y132403D01*
X166875D01*
Y132280D01*
Y132157D01*
X166752D01*
Y132033D01*
Y131910D01*
Y131786D01*
Y131663D01*
X167122D01*
Y131786D01*
X167245D01*
Y131910D01*
X167368D01*
Y132033D01*
Y132157D01*
X167492D01*
Y132280D01*
Y132403D01*
Y132527D01*
X167615D01*
Y132650D01*
Y132773D01*
Y132897D01*
X167739D01*
Y133020D01*
Y133143D01*
Y133267D01*
X167862D01*
Y133390D01*
Y133514D01*
X167985D01*
Y133637D01*
Y133760D01*
X168109D01*
Y133884D01*
Y134007D01*
X168232D01*
Y134130D01*
X168355D01*
Y134254D01*
Y134377D01*
X168479D01*
Y134500D01*
Y134624D01*
X168602D01*
Y134747D01*
X168725D01*
Y134870D01*
X168849D01*
Y134994D01*
Y135117D01*
X168972D01*
Y135241D01*
X169096D01*
Y135364D01*
X169219D01*
Y135487D01*
X169342D01*
Y135611D01*
X169466D01*
Y135734D01*
X169589D01*
Y135857D01*
X169712D01*
Y135981D01*
X169836D01*
Y136104D01*
X169959D01*
Y136227D01*
X170082D01*
Y136351D01*
X170206D01*
Y136474D01*
X170452D01*
Y136598D01*
X170576D01*
Y136721D01*
X170699D01*
Y136844D01*
X170946D01*
Y136968D01*
X171069D01*
Y137091D01*
X171316D01*
Y137214D01*
X171563D01*
Y137338D01*
X171686D01*
Y137461D01*
X172056D01*
Y137584D01*
X172303D01*
Y137708D01*
X172550D01*
Y137831D01*
X172920D01*
Y137954D01*
X173290D01*
Y138078D01*
X173660D01*
Y138201D01*
X173783D01*
Y138325D01*
Y138448D01*
Y138571D01*
Y138695D01*
Y138818D01*
Y138941D01*
Y139065D01*
Y139188D01*
Y139311D01*
Y139435D01*
Y139558D01*
Y139682D01*
Y139805D01*
Y139928D01*
Y140052D01*
Y140175D01*
Y140298D01*
Y140422D01*
X173660D01*
Y140545D01*
Y140668D01*
Y140792D01*
Y140915D01*
Y141039D01*
X173536D01*
Y141162D01*
Y141285D01*
Y141409D01*
Y141532D01*
X173413D01*
Y141655D01*
Y141779D01*
Y141902D01*
X173290D01*
Y142025D01*
Y142149D01*
Y142272D01*
X173166D01*
Y142395D01*
Y142519D01*
X173043D01*
Y142642D01*
Y142766D01*
X172920D01*
Y142889D01*
Y143012D01*
X172796D01*
Y143136D01*
Y143259D01*
X172673D01*
Y143382D01*
Y143506D01*
X172550D01*
Y143629D01*
X172426D01*
Y143752D01*
X172303D01*
Y143876D01*
Y143999D01*
X172056D01*
Y144123D01*
D02*
G37*
G36*
X161077D02*
X160337D01*
Y143999D01*
X160214D01*
Y143876D01*
X160090D01*
Y143752D01*
X159967D01*
Y143629D01*
X159843D01*
Y143506D01*
Y143382D01*
X159720D01*
Y143259D01*
Y143136D01*
X159597D01*
Y143012D01*
X159473D01*
Y142889D01*
Y142766D01*
X159350D01*
Y142642D01*
Y142519D01*
X159227D01*
Y142395D01*
Y142272D01*
Y142149D01*
X159103D01*
Y142025D01*
Y141902D01*
X158980D01*
Y141779D01*
Y141655D01*
Y141532D01*
Y141409D01*
X158857D01*
Y141285D01*
Y141162D01*
Y141039D01*
Y140915D01*
X158733D01*
Y140792D01*
Y140668D01*
Y140545D01*
Y140422D01*
Y140298D01*
X158610D01*
Y140175D01*
Y140052D01*
Y139928D01*
Y139805D01*
Y139682D01*
Y139558D01*
Y139435D01*
Y139311D01*
Y139188D01*
Y139065D01*
Y138941D01*
Y138818D01*
X158486D01*
Y138695D01*
Y138571D01*
Y138448D01*
Y138325D01*
Y138201D01*
X158733D01*
Y138078D01*
X159227D01*
Y137954D01*
X159597D01*
Y137831D01*
X159843D01*
Y137708D01*
X160090D01*
Y137584D01*
X160337D01*
Y137461D01*
X160584D01*
Y137338D01*
X160830D01*
Y137214D01*
X161077D01*
Y137091D01*
X161324D01*
Y136968D01*
X161447D01*
Y136844D01*
X161694D01*
Y136721D01*
X161817D01*
Y136598D01*
X162064D01*
Y136474D01*
X162187D01*
Y136351D01*
X162311D01*
Y136227D01*
X162434D01*
Y136104D01*
X162681D01*
Y135981D01*
X162804D01*
Y135857D01*
X162927D01*
Y135734D01*
X163051D01*
Y135611D01*
Y135487D01*
X163174D01*
Y135364D01*
X163298D01*
Y135241D01*
X163421D01*
Y135117D01*
X163544D01*
Y134994D01*
Y134870D01*
X163668D01*
Y134747D01*
X163791D01*
Y134624D01*
Y134500D01*
X163914D01*
Y134377D01*
Y134254D01*
X164038D01*
Y134130D01*
X164161D01*
Y134007D01*
Y133884D01*
X164284D01*
Y133760D01*
Y133637D01*
X164408D01*
Y133514D01*
Y133390D01*
X164531D01*
Y133267D01*
Y133143D01*
X164655D01*
Y133020D01*
Y132897D01*
X164778D01*
Y132773D01*
Y132650D01*
Y132527D01*
X164901D01*
Y132403D01*
Y132280D01*
Y132157D01*
X165025D01*
Y132033D01*
Y131910D01*
X165148D01*
Y131786D01*
X165271D01*
Y131663D01*
X165518D01*
Y131786D01*
X165641D01*
Y131910D01*
Y132033D01*
Y132157D01*
X165518D01*
Y132280D01*
Y132403D01*
Y132527D01*
X165395D01*
Y132650D01*
Y132773D01*
X165271D01*
Y132897D01*
Y133020D01*
Y133143D01*
X165148D01*
Y133267D01*
Y133390D01*
X165025D01*
Y133514D01*
Y133637D01*
Y133760D01*
X164901D01*
Y133884D01*
Y134007D01*
Y134130D01*
X164778D01*
Y134254D01*
Y134377D01*
Y134500D01*
X164655D01*
Y134624D01*
Y134747D01*
Y134870D01*
Y134994D01*
X164531D01*
Y135117D01*
Y135241D01*
Y135364D01*
Y135487D01*
Y135611D01*
Y135734D01*
Y135857D01*
Y135981D01*
X164408D01*
Y136104D01*
Y136227D01*
Y136351D01*
Y136474D01*
Y136598D01*
Y136721D01*
Y136844D01*
Y136968D01*
Y137091D01*
X164531D01*
Y137214D01*
Y137338D01*
Y137461D01*
Y137584D01*
Y137708D01*
Y137831D01*
Y137954D01*
Y138078D01*
X164655D01*
Y138201D01*
Y138325D01*
Y138448D01*
Y138571D01*
Y138695D01*
X164778D01*
Y138818D01*
Y138941D01*
Y139065D01*
X164901D01*
Y139188D01*
Y139311D01*
Y139435D01*
X165025D01*
Y139558D01*
Y139682D01*
Y139805D01*
X165148D01*
Y139928D01*
Y140052D01*
X165271D01*
Y140175D01*
Y140298D01*
X165395D01*
Y140422D01*
Y140545D01*
X165518D01*
Y140668D01*
Y140792D01*
Y140915D01*
X165641D01*
Y141039D01*
Y141162D01*
Y141285D01*
X165518D01*
Y141409D01*
Y141532D01*
X165395D01*
Y141655D01*
X165271D01*
Y141779D01*
X165148D01*
Y141902D01*
X165025D01*
Y142025D01*
X164901D01*
Y142149D01*
X164778D01*
Y142272D01*
X164655D01*
Y142395D01*
X164531D01*
Y142519D01*
X164284D01*
Y142642D01*
X164161D01*
Y142766D01*
X163914D01*
Y142889D01*
X163791D01*
Y143012D01*
X163544D01*
Y143136D01*
X163421D01*
Y143259D01*
X163174D01*
Y143382D01*
X162927D01*
Y143506D01*
X162681D01*
Y143629D01*
X162311D01*
Y143752D01*
X161941D01*
Y143876D01*
X161571D01*
Y143999D01*
X161077D01*
Y144123D01*
D02*
G37*
G36*
X176127Y137708D02*
X174400D01*
Y137584D01*
X174277D01*
Y137461D01*
Y137338D01*
Y137214D01*
X174153D01*
Y137091D01*
Y136968D01*
Y136844D01*
X174030D01*
Y136721D01*
Y136598D01*
Y136474D01*
X173907D01*
Y136351D01*
Y136227D01*
X173783D01*
Y136104D01*
Y135981D01*
Y135857D01*
X173660D01*
Y135734D01*
Y135611D01*
X173536D01*
Y135487D01*
Y135364D01*
X173413D01*
Y135241D01*
X173290D01*
Y135117D01*
Y134994D01*
X173166D01*
Y134870D01*
Y134747D01*
X173043D01*
Y134624D01*
X172920D01*
Y134500D01*
Y134377D01*
X172796D01*
Y134254D01*
X172673D01*
Y134130D01*
X172550D01*
Y134007D01*
X172426D01*
Y133884D01*
X172303D01*
Y133760D01*
Y133637D01*
X172180D01*
Y133514D01*
X172056D01*
Y133390D01*
X171933D01*
Y133267D01*
X171809D01*
Y133143D01*
X171563D01*
Y133020D01*
X171439D01*
Y132897D01*
X171316D01*
Y132773D01*
X171069D01*
Y132650D01*
X170946D01*
Y132527D01*
X170699D01*
Y132403D01*
X170576D01*
Y132280D01*
X170329D01*
Y132157D01*
X170082D01*
Y132033D01*
X169836D01*
Y131910D01*
X169712D01*
Y131786D01*
X169466D01*
Y131663D01*
X169096D01*
Y131540D01*
X168849D01*
Y131416D01*
X168479D01*
Y131293D01*
X168109D01*
Y131170D01*
X167985D01*
Y131046D01*
X167862D01*
Y130923D01*
Y130800D01*
Y130676D01*
X167985D01*
Y130553D01*
X168109D01*
Y130676D01*
X168479D01*
Y130800D01*
X168849D01*
Y130923D01*
X169096D01*
Y131046D01*
X169466D01*
Y131170D01*
X169712D01*
Y131293D01*
X170082D01*
Y131416D01*
X170452D01*
Y131540D01*
X170946D01*
Y131663D01*
X171563D01*
Y131786D01*
X173907D01*
Y131663D01*
X174647D01*
Y131540D01*
X175017D01*
Y131416D01*
X175387D01*
Y131293D01*
X175757D01*
Y131170D01*
X176004D01*
Y131046D01*
X176250D01*
Y130923D01*
X176497D01*
Y130800D01*
X176867D01*
Y130676D01*
X177484D01*
Y130800D01*
X177731D01*
Y130923D01*
X177854D01*
Y131046D01*
X178101D01*
Y131170D01*
X178224D01*
Y131293D01*
Y131416D01*
X178348D01*
Y131540D01*
X178471D01*
Y131663D01*
X178594D01*
Y131786D01*
X178718D01*
Y131910D01*
Y132033D01*
X178841D01*
Y132157D01*
X178964D01*
Y132280D01*
Y132403D01*
X179088D01*
Y132527D01*
X179211D01*
Y132650D01*
Y132773D01*
X179334D01*
Y132897D01*
Y133020D01*
X179458D01*
Y133143D01*
Y133267D01*
X179581D01*
Y133390D01*
Y133514D01*
X179705D01*
Y133637D01*
Y133760D01*
X179828D01*
Y133884D01*
Y134007D01*
Y134130D01*
X179951D01*
Y134254D01*
Y134377D01*
Y134500D01*
X180075D01*
Y134624D01*
Y134747D01*
Y134870D01*
Y134994D01*
Y135117D01*
X180198D01*
Y135241D01*
Y135364D01*
Y135487D01*
Y135611D01*
Y135734D01*
Y135857D01*
X180075D01*
Y135981D01*
Y136104D01*
X179951D01*
Y136227D01*
X179828D01*
Y136351D01*
X179705D01*
Y136474D01*
X179458D01*
Y136598D01*
X179211D01*
Y136721D01*
X179088D01*
Y136844D01*
X178841D01*
Y136968D01*
X178471D01*
Y137091D01*
X178224D01*
Y137214D01*
X177854D01*
Y137338D01*
X177361D01*
Y137461D01*
X176867D01*
Y137584D01*
X176127D01*
Y137708D01*
D02*
G37*
G36*
X158116D02*
X156513D01*
Y137584D01*
X155649D01*
Y137461D01*
X155032D01*
Y137338D01*
X154539D01*
Y137214D01*
X154169D01*
Y137091D01*
X153922D01*
Y136968D01*
X153552D01*
Y136844D01*
X153305D01*
Y136721D01*
X153059D01*
Y136598D01*
X152935D01*
Y136474D01*
X152689D01*
Y136351D01*
X152565D01*
Y136227D01*
X152442D01*
Y136104D01*
X152195D01*
Y135981D01*
X152072D01*
Y135857D01*
Y135734D01*
Y135611D01*
Y135487D01*
Y135364D01*
X152195D01*
Y135241D01*
Y135117D01*
Y134994D01*
X152318D01*
Y134870D01*
Y134747D01*
Y134624D01*
Y134500D01*
X152442D01*
Y134377D01*
Y134254D01*
Y134130D01*
X152565D01*
Y134007D01*
Y133884D01*
Y133760D01*
X152689D01*
Y133637D01*
Y133514D01*
X152812D01*
Y133390D01*
Y133267D01*
X152935D01*
Y133143D01*
Y133020D01*
X153059D01*
Y132897D01*
Y132773D01*
X153182D01*
Y132650D01*
Y132527D01*
X153305D01*
Y132403D01*
X153429D01*
Y132280D01*
Y132157D01*
X153552D01*
Y132033D01*
X153675D01*
Y131910D01*
X153799D01*
Y131786D01*
Y131663D01*
X153922D01*
Y131540D01*
X154046D01*
Y131416D01*
X154169D01*
Y131293D01*
X154292D01*
Y131170D01*
X154416D01*
Y131046D01*
X154539D01*
Y130923D01*
X154662D01*
Y130800D01*
X154786D01*
Y130676D01*
X155526D01*
Y130800D01*
X155896D01*
Y130923D01*
X156143D01*
Y131046D01*
X156513D01*
Y131170D01*
X156759D01*
Y131293D01*
X157130D01*
Y131416D01*
X157500D01*
Y131540D01*
X157993D01*
Y131663D01*
X158610D01*
Y131786D01*
X160954D01*
Y131663D01*
X161694D01*
Y131540D01*
X162064D01*
Y131416D01*
X162434D01*
Y131293D01*
X162804D01*
Y131170D01*
X163051D01*
Y131046D01*
X163298D01*
Y130923D01*
X163544D01*
Y130800D01*
X163791D01*
Y130676D01*
X164161D01*
Y130553D01*
X164408D01*
Y130676D01*
X164531D01*
Y130800D01*
Y130923D01*
Y131046D01*
X164408D01*
Y131170D01*
X164284D01*
Y131293D01*
X163914D01*
Y131416D01*
X163544D01*
Y131540D01*
X163298D01*
Y131663D01*
X162927D01*
Y131786D01*
X162681D01*
Y131910D01*
X162557D01*
Y132033D01*
X162311D01*
Y132157D01*
X162064D01*
Y132280D01*
X161817D01*
Y132403D01*
X161694D01*
Y132527D01*
X161447D01*
Y132650D01*
X161324D01*
Y132773D01*
X161077D01*
Y132897D01*
X160954D01*
Y133020D01*
X160830D01*
Y133143D01*
X160707D01*
Y133267D01*
X160460D01*
Y133390D01*
X160337D01*
Y133514D01*
X160214D01*
Y133637D01*
X160090D01*
Y133760D01*
Y133884D01*
X159967D01*
Y134007D01*
X159843D01*
Y134130D01*
X159720D01*
Y134254D01*
X159597D01*
Y134377D01*
Y134500D01*
X159473D01*
Y134624D01*
X159350D01*
Y134747D01*
Y134870D01*
X159227D01*
Y134994D01*
Y135117D01*
X159103D01*
Y135241D01*
X158980D01*
Y135364D01*
Y135487D01*
X158857D01*
Y135611D01*
Y135734D01*
X158733D01*
Y135857D01*
Y135981D01*
X158610D01*
Y136104D01*
Y136227D01*
X158486D01*
Y136351D01*
Y136474D01*
Y136598D01*
X158363D01*
Y136721D01*
Y136844D01*
Y136968D01*
X158240D01*
Y137091D01*
Y137214D01*
Y137338D01*
X158116D01*
Y137461D01*
Y137584D01*
Y137708D01*
D02*
G37*
G36*
X166382Y131046D02*
X166012D01*
Y130923D01*
X165765D01*
Y130800D01*
X165641D01*
Y130676D01*
X165518D01*
Y130553D01*
X165395D01*
Y130429D01*
X165271D01*
Y130306D01*
Y130183D01*
Y130059D01*
Y129936D01*
Y129813D01*
Y129689D01*
X165395D01*
Y129566D01*
X165518D01*
Y129443D01*
X165641D01*
Y129319D01*
X165765D01*
Y129196D01*
X166012D01*
Y129073D01*
X166382D01*
Y129196D01*
X166628D01*
Y129319D01*
X166752D01*
Y129443D01*
X166875D01*
Y129566D01*
X166998D01*
Y129689D01*
X167122D01*
Y129813D01*
Y129936D01*
Y130059D01*
Y130183D01*
Y130306D01*
Y130429D01*
X166998D01*
Y130553D01*
X166875D01*
Y130676D01*
X166752D01*
Y130800D01*
X166628D01*
Y130923D01*
X166382D01*
Y131046D01*
D02*
G37*
G36*
X173413Y131170D02*
X171933D01*
Y131046D01*
X171069D01*
Y130923D01*
X170452D01*
Y130800D01*
X170082D01*
Y130676D01*
X169712D01*
Y130553D01*
X169466D01*
Y130429D01*
X169219D01*
Y130306D01*
X168972D01*
Y130183D01*
X168725D01*
Y130059D01*
Y129936D01*
X168972D01*
Y129813D01*
X169096D01*
Y129689D01*
X169466D01*
Y129566D01*
X169712D01*
Y129443D01*
X170082D01*
Y129319D01*
X170452D01*
Y129196D01*
X170823D01*
Y129073D01*
X171316D01*
Y128949D01*
X173413D01*
Y129073D01*
X174277D01*
Y129196D01*
X174893D01*
Y129319D01*
X175264D01*
Y129443D01*
X175634D01*
Y129566D01*
X175880D01*
Y129689D01*
X176250D01*
Y129813D01*
X176374D01*
Y129936D01*
X176621D01*
Y130059D01*
Y130183D01*
X176374D01*
Y130306D01*
X176250D01*
Y130429D01*
X175880D01*
Y130553D01*
X175634D01*
Y130676D01*
X175264D01*
Y130800D01*
X174893D01*
Y130923D01*
X174400D01*
Y131046D01*
X173413D01*
Y131170D01*
D02*
G37*
G36*
X160460D02*
X158980D01*
Y131046D01*
X158116D01*
Y130923D01*
X157500D01*
Y130800D01*
X157130D01*
Y130676D01*
X156759D01*
Y130553D01*
X156513D01*
Y130429D01*
X156266D01*
Y130306D01*
X156019D01*
Y130183D01*
X155773D01*
Y130059D01*
Y129936D01*
X156019D01*
Y129813D01*
X156143D01*
Y129689D01*
X156513D01*
Y129566D01*
X156759D01*
Y129443D01*
X157130D01*
Y129319D01*
X157500D01*
Y129196D01*
X157870D01*
Y129073D01*
X158363D01*
Y128949D01*
X160460D01*
Y129073D01*
X161324D01*
Y129196D01*
X161941D01*
Y129319D01*
X162311D01*
Y129443D01*
X162681D01*
Y129566D01*
X162927D01*
Y129689D01*
X163298D01*
Y129813D01*
X163421D01*
Y129936D01*
X163668D01*
Y130059D01*
Y130183D01*
X163421D01*
Y130306D01*
X163298D01*
Y130429D01*
X162927D01*
Y130553D01*
X162681D01*
Y130676D01*
X162311D01*
Y130800D01*
X161941D01*
Y130923D01*
X161447D01*
Y131046D01*
X160460D01*
Y131170D01*
D02*
G37*
G36*
X139489Y133020D02*
X138995D01*
Y132897D01*
Y132773D01*
Y132650D01*
X138872D01*
Y132527D01*
Y132403D01*
Y132280D01*
Y132157D01*
Y132033D01*
Y131910D01*
Y131786D01*
Y131663D01*
Y131540D01*
Y131416D01*
Y131293D01*
Y131170D01*
X138749D01*
Y131046D01*
Y130923D01*
Y130800D01*
Y130676D01*
Y130553D01*
Y130429D01*
Y130306D01*
Y130183D01*
Y130059D01*
Y129936D01*
Y129813D01*
Y129689D01*
Y129566D01*
Y129443D01*
Y129319D01*
Y129196D01*
Y129073D01*
Y128949D01*
Y128826D01*
Y128702D01*
Y128579D01*
Y128456D01*
Y128332D01*
Y128209D01*
Y128086D01*
Y127962D01*
X138872D01*
Y127839D01*
Y127716D01*
Y127592D01*
Y127469D01*
Y127345D01*
X138995D01*
Y127222D01*
X139119D01*
Y127099D01*
X139489D01*
Y127222D01*
X139736D01*
Y127345D01*
X139982D01*
Y127469D01*
X140229D01*
Y127592D01*
X140352D01*
Y127716D01*
X140476D01*
Y127839D01*
X140599D01*
Y127962D01*
X140723D01*
Y128086D01*
X140846D01*
Y128209D01*
Y128332D01*
X140969D01*
Y128456D01*
Y128579D01*
X141093D01*
Y128702D01*
Y128826D01*
X141216D01*
Y128949D01*
Y129073D01*
Y129196D01*
X141339D01*
Y129319D01*
Y129443D01*
Y129566D01*
Y129689D01*
Y129813D01*
Y129936D01*
Y130059D01*
Y130183D01*
Y130306D01*
Y130429D01*
Y130553D01*
Y130676D01*
Y130800D01*
Y130923D01*
X141216D01*
Y131046D01*
Y131170D01*
Y131293D01*
X141093D01*
Y131416D01*
Y131540D01*
X140969D01*
Y131663D01*
Y131786D01*
X140846D01*
Y131910D01*
X140723D01*
Y132033D01*
X140599D01*
Y132157D01*
Y132280D01*
X140352D01*
Y132403D01*
X140229D01*
Y132527D01*
X140106D01*
Y132650D01*
X139982D01*
Y132773D01*
X139736D01*
Y132897D01*
X139489D01*
Y133020D01*
D02*
G37*
G36*
X137885Y133267D02*
X137639D01*
Y133143D01*
X137268D01*
Y133020D01*
X137022D01*
Y132897D01*
X136775D01*
Y132773D01*
X136528D01*
Y132650D01*
X136405D01*
Y132527D01*
X136282D01*
Y132403D01*
X136158D01*
Y132280D01*
X136035D01*
Y132157D01*
X135911D01*
Y132033D01*
X135788D01*
Y131910D01*
X135665D01*
Y131786D01*
Y131663D01*
X135541D01*
Y131540D01*
X135418D01*
Y131416D01*
Y131293D01*
Y131170D01*
X135295D01*
Y131046D01*
Y130923D01*
X135171D01*
Y130800D01*
Y130676D01*
Y130553D01*
Y130429D01*
Y130306D01*
X135048D01*
Y130183D01*
Y130059D01*
Y129936D01*
Y129813D01*
Y129689D01*
X135171D01*
Y129566D01*
Y129443D01*
Y129319D01*
Y129196D01*
Y129073D01*
X135295D01*
Y128949D01*
Y128826D01*
X135418D01*
Y128702D01*
Y128579D01*
X135541D01*
Y128456D01*
X135665D01*
Y128332D01*
Y128209D01*
X135788D01*
Y128086D01*
X135911D01*
Y127962D01*
X136035D01*
Y127839D01*
X136158D01*
Y127716D01*
X136282D01*
Y127592D01*
X136405D01*
Y127469D01*
X136528D01*
Y127345D01*
X136775D01*
Y127222D01*
X137022D01*
Y127099D01*
X137268D01*
Y126975D01*
X137515D01*
Y126852D01*
X137885D01*
Y126975D01*
X138009D01*
Y127099D01*
X138132D01*
Y127222D01*
Y127345D01*
Y127469D01*
Y127592D01*
Y127716D01*
Y127839D01*
Y127962D01*
X138255D01*
Y128086D01*
Y128209D01*
Y128332D01*
Y128456D01*
Y128579D01*
Y128702D01*
Y128826D01*
Y128949D01*
Y129073D01*
Y129196D01*
Y129319D01*
Y129443D01*
Y129566D01*
Y129689D01*
Y129813D01*
Y129936D01*
Y130059D01*
Y130183D01*
Y130306D01*
Y130429D01*
Y130553D01*
Y130676D01*
Y130800D01*
Y130923D01*
Y131046D01*
Y131170D01*
Y131293D01*
Y131416D01*
Y131540D01*
Y131663D01*
Y131786D01*
Y131910D01*
Y132033D01*
Y132157D01*
X138132D01*
Y132280D01*
Y132403D01*
Y132527D01*
Y132650D01*
Y132773D01*
Y132897D01*
Y133020D01*
X138009D01*
Y133143D01*
X137885D01*
Y133267D01*
D02*
G37*
G36*
X180938Y135364D02*
X180815D01*
Y135241D01*
Y135117D01*
Y134994D01*
Y134870D01*
X180691D01*
Y134747D01*
Y134624D01*
Y134500D01*
Y134377D01*
Y134254D01*
X180568D01*
Y134130D01*
Y134007D01*
Y133884D01*
X180445D01*
Y133760D01*
Y133637D01*
Y133514D01*
X180321D01*
Y133390D01*
Y133267D01*
X180198D01*
Y133143D01*
Y133020D01*
X180075D01*
Y132897D01*
Y132773D01*
X179951D01*
Y132650D01*
Y132527D01*
X179828D01*
Y132403D01*
Y132280D01*
X179705D01*
Y132157D01*
X179581D01*
Y132033D01*
Y131910D01*
X179458D01*
Y131786D01*
X179334D01*
Y131663D01*
Y131540D01*
X179211D01*
Y131416D01*
X179088D01*
Y131293D01*
X178964D01*
Y131170D01*
X178841D01*
Y131046D01*
Y130923D01*
X178718D01*
Y130800D01*
X178594D01*
Y130676D01*
X178471D01*
Y130553D01*
X178348D01*
Y130429D01*
X178224D01*
Y130306D01*
X178101D01*
Y130183D01*
X177977D01*
Y130059D01*
Y129936D01*
X178101D01*
Y129813D01*
X178224D01*
Y129689D01*
X178348D01*
Y129566D01*
X178471D01*
Y129443D01*
X178594D01*
Y129319D01*
X178718D01*
Y129196D01*
X178841D01*
Y129073D01*
Y128949D01*
X178964D01*
Y128826D01*
X179088D01*
Y128702D01*
X179211D01*
Y128579D01*
Y128456D01*
X179334D01*
Y128332D01*
X179458D01*
Y128209D01*
X179581D01*
Y128086D01*
Y127962D01*
X179705D01*
Y127839D01*
Y127716D01*
X179828D01*
Y127592D01*
Y127469D01*
X179951D01*
Y127345D01*
X180075D01*
Y127222D01*
Y127099D01*
X180198D01*
Y126975D01*
Y126852D01*
Y126729D01*
X180321D01*
Y126605D01*
Y126482D01*
X180445D01*
Y126359D01*
Y126235D01*
Y126112D01*
X180568D01*
Y125989D01*
Y125865D01*
Y125742D01*
X180691D01*
Y125618D01*
Y125495D01*
Y125372D01*
Y125248D01*
Y125125D01*
X180815D01*
Y125002D01*
Y124878D01*
Y124755D01*
X180938D01*
Y124878D01*
X181062D01*
Y125002D01*
X181185D01*
Y125125D01*
X181308D01*
Y125248D01*
Y125372D01*
X181432D01*
Y125495D01*
X181555D01*
Y125618D01*
X181678D01*
Y125742D01*
X181802D01*
Y125865D01*
Y125989D01*
X181925D01*
Y126112D01*
X182048D01*
Y126235D01*
Y126359D01*
X182172D01*
Y126482D01*
Y126605D01*
X182295D01*
Y126729D01*
Y126852D01*
X182418D01*
Y126975D01*
Y127099D01*
X182542D01*
Y127222D01*
Y127345D01*
X182665D01*
Y127469D01*
Y127592D01*
Y127716D01*
X182789D01*
Y127839D01*
Y127962D01*
Y128086D01*
Y128209D01*
Y128332D01*
X182912D01*
Y128456D01*
Y128579D01*
Y128702D01*
Y128826D01*
Y128949D01*
Y129073D01*
Y129196D01*
Y129319D01*
Y129443D01*
Y129566D01*
Y129689D01*
Y129813D01*
X183035D01*
Y129936D01*
Y130059D01*
Y130183D01*
Y130306D01*
Y130429D01*
X182912D01*
Y130553D01*
Y130676D01*
Y130800D01*
Y130923D01*
Y131046D01*
Y131170D01*
Y131293D01*
Y131416D01*
Y131540D01*
Y131663D01*
Y131786D01*
X182789D01*
Y131910D01*
Y132033D01*
Y132157D01*
Y132280D01*
Y132403D01*
X182665D01*
Y132527D01*
Y132650D01*
Y132773D01*
X182542D01*
Y132897D01*
Y133020D01*
Y133143D01*
X182418D01*
Y133267D01*
Y133390D01*
X182295D01*
Y133514D01*
Y133637D01*
X182172D01*
Y133760D01*
X182048D01*
Y133884D01*
Y134007D01*
X181925D01*
Y134130D01*
X181802D01*
Y134254D01*
Y134377D01*
X181678D01*
Y134500D01*
X181555D01*
Y134624D01*
X181432D01*
Y134747D01*
X181308D01*
Y134870D01*
Y134994D01*
X181185D01*
Y135117D01*
X181062D01*
Y135241D01*
X180938D01*
Y135364D01*
D02*
G37*
G36*
X151578Y135241D02*
X151332D01*
Y135117D01*
X151208D01*
Y134994D01*
X151085D01*
Y134870D01*
X150961D01*
Y134747D01*
Y134624D01*
X150838D01*
Y134500D01*
X150715D01*
Y134377D01*
X150591D01*
Y134254D01*
Y134130D01*
X150468D01*
Y134007D01*
Y133884D01*
X150345D01*
Y133760D01*
Y133637D01*
X150221D01*
Y133514D01*
Y133390D01*
X150098D01*
Y133267D01*
Y133143D01*
X149975D01*
Y133020D01*
Y132897D01*
X149851D01*
Y132773D01*
Y132650D01*
Y132527D01*
X149728D01*
Y132403D01*
Y132280D01*
Y132157D01*
X149605D01*
Y132033D01*
Y131910D01*
Y131786D01*
X149481D01*
Y131663D01*
Y131540D01*
Y131416D01*
Y131293D01*
Y131170D01*
X149358D01*
Y131046D01*
Y130923D01*
Y130800D01*
Y130676D01*
Y130553D01*
Y130429D01*
Y130306D01*
Y130183D01*
Y130059D01*
Y129936D01*
Y129813D01*
Y129689D01*
Y129566D01*
Y129443D01*
Y129319D01*
Y129196D01*
Y129073D01*
X149481D01*
Y128949D01*
Y128826D01*
Y128702D01*
Y128579D01*
Y128456D01*
Y128332D01*
X149605D01*
Y128209D01*
Y128086D01*
Y127962D01*
Y127839D01*
X149728D01*
Y127716D01*
Y127592D01*
Y127469D01*
X149851D01*
Y127345D01*
Y127222D01*
Y127099D01*
X149975D01*
Y126975D01*
Y126852D01*
X150098D01*
Y126729D01*
Y126605D01*
X150221D01*
Y126482D01*
Y126359D01*
X150345D01*
Y126235D01*
Y126112D01*
X150468D01*
Y125989D01*
X150591D01*
Y125865D01*
Y125742D01*
X150715D01*
Y125618D01*
X150838D01*
Y125495D01*
X150961D01*
Y125372D01*
Y125248D01*
X151085D01*
Y125125D01*
X151208D01*
Y125002D01*
X151332D01*
Y124878D01*
X151455D01*
Y124755D01*
X151578D01*
Y124878D01*
Y125002D01*
Y125125D01*
Y125248D01*
X151702D01*
Y125372D01*
Y125495D01*
Y125618D01*
Y125742D01*
X151825D01*
Y125865D01*
Y125989D01*
Y126112D01*
X151948D01*
Y126235D01*
Y126359D01*
Y126482D01*
X152072D01*
Y126605D01*
Y126729D01*
Y126852D01*
X152195D01*
Y126975D01*
Y127099D01*
X152318D01*
Y127222D01*
Y127345D01*
X152442D01*
Y127469D01*
Y127592D01*
X152565D01*
Y127716D01*
Y127839D01*
X152689D01*
Y127962D01*
X152812D01*
Y128086D01*
Y128209D01*
X152935D01*
Y128332D01*
X153059D01*
Y128456D01*
X153182D01*
Y128579D01*
Y128702D01*
X153305D01*
Y128826D01*
X153429D01*
Y128949D01*
X153552D01*
Y129073D01*
X153675D01*
Y129196D01*
Y129319D01*
X153799D01*
Y129443D01*
X153922D01*
Y129566D01*
X154046D01*
Y129689D01*
X154169D01*
Y129813D01*
X154292D01*
Y129936D01*
X154416D01*
Y130059D01*
Y130183D01*
X154292D01*
Y130306D01*
X154169D01*
Y130429D01*
X154046D01*
Y130553D01*
X153922D01*
Y130676D01*
X153799D01*
Y130800D01*
X153675D01*
Y130923D01*
X153552D01*
Y131046D01*
Y131170D01*
X153429D01*
Y131293D01*
X153305D01*
Y131416D01*
X153182D01*
Y131540D01*
X153059D01*
Y131663D01*
Y131786D01*
X152935D01*
Y131910D01*
X152812D01*
Y132033D01*
Y132157D01*
X152689D01*
Y132280D01*
Y132403D01*
X152565D01*
Y132527D01*
X152442D01*
Y132650D01*
Y132773D01*
X152318D01*
Y132897D01*
Y133020D01*
Y133143D01*
X152195D01*
Y133267D01*
Y133390D01*
X152072D01*
Y133514D01*
Y133637D01*
X151948D01*
Y133760D01*
Y133884D01*
Y134007D01*
X151825D01*
Y134130D01*
Y134254D01*
Y134377D01*
X151702D01*
Y134500D01*
Y134624D01*
Y134747D01*
Y134870D01*
X151578D01*
Y134994D01*
Y135117D01*
Y135241D01*
D02*
G37*
G36*
X140229Y136351D02*
X139612D01*
Y136227D01*
X139489D01*
Y136104D01*
Y135981D01*
X139366D01*
Y135857D01*
Y135734D01*
Y135611D01*
X139242D01*
Y135487D01*
Y135364D01*
Y135241D01*
Y135117D01*
Y134994D01*
Y134870D01*
Y134747D01*
Y134624D01*
X139119D01*
Y134500D01*
Y134377D01*
Y134254D01*
Y134130D01*
Y134007D01*
Y133884D01*
Y133760D01*
X139366D01*
Y133637D01*
X139736D01*
Y133514D01*
X139982D01*
Y133390D01*
X140229D01*
Y133267D01*
X140352D01*
Y133143D01*
X140599D01*
Y133020D01*
X140723D01*
Y132897D01*
X140846D01*
Y132773D01*
X140969D01*
Y132650D01*
X141093D01*
Y132527D01*
X141216D01*
Y132403D01*
Y132280D01*
X141339D01*
Y132157D01*
X141463D01*
Y132033D01*
X141586D01*
Y131910D01*
Y131786D01*
X141709D01*
Y131663D01*
Y131540D01*
X141833D01*
Y131416D01*
Y131293D01*
Y131170D01*
X141956D01*
Y131046D01*
Y130923D01*
Y130800D01*
Y130676D01*
X142080D01*
Y130553D01*
Y130429D01*
Y130306D01*
Y130183D01*
Y130059D01*
Y129936D01*
Y129813D01*
Y129689D01*
Y129566D01*
Y129443D01*
X141956D01*
Y129319D01*
Y129196D01*
Y129073D01*
Y128949D01*
X141833D01*
Y128826D01*
Y128702D01*
Y128579D01*
X141709D01*
Y128456D01*
Y128332D01*
X141586D01*
Y128209D01*
Y128086D01*
X141463D01*
Y127962D01*
Y127839D01*
X141339D01*
Y127716D01*
X141216D01*
Y127592D01*
X141093D01*
Y127469D01*
X140969D01*
Y127345D01*
X140846D01*
Y127222D01*
X140723D01*
Y127099D01*
X140599D01*
Y126975D01*
X140476D01*
Y126852D01*
X140229D01*
Y126729D01*
X139982D01*
Y126605D01*
X139736D01*
Y126482D01*
X139489D01*
Y126359D01*
X139242D01*
Y126235D01*
X138995D01*
Y126112D01*
Y125989D01*
Y125865D01*
X139119D01*
Y125742D01*
Y125618D01*
Y125495D01*
Y125372D01*
Y125248D01*
Y125125D01*
X139242D01*
Y125002D01*
Y124878D01*
Y124755D01*
Y124632D01*
Y124508D01*
X139366D01*
Y124385D01*
Y124261D01*
Y124138D01*
X139489D01*
Y124015D01*
Y123891D01*
X139612D01*
Y123768D01*
X140229D01*
Y123891D01*
X140476D01*
Y124015D01*
X140723D01*
Y124138D01*
X140969D01*
Y124261D01*
X141216D01*
Y124385D01*
X141463D01*
Y124508D01*
X141709D01*
Y124632D01*
X141833D01*
Y124755D01*
X142080D01*
Y124878D01*
X142203D01*
Y125002D01*
X142326D01*
Y125125D01*
X142573D01*
Y125248D01*
X142696D01*
Y125372D01*
X142820D01*
Y125495D01*
X142943D01*
Y125618D01*
X143066D01*
Y125742D01*
X143190D01*
Y125865D01*
Y125989D01*
X143313D01*
Y126112D01*
X143436D01*
Y126235D01*
X143560D01*
Y126359D01*
Y126482D01*
X143683D01*
Y126605D01*
X143807D01*
Y126729D01*
Y126852D01*
X143930D01*
Y126975D01*
Y127099D01*
X144053D01*
Y127222D01*
X144177D01*
Y127345D01*
Y127469D01*
Y127592D01*
X144300D01*
Y127716D01*
Y127839D01*
X144423D01*
Y127962D01*
Y128086D01*
Y128209D01*
X144547D01*
Y128332D01*
Y128456D01*
Y128579D01*
Y128702D01*
X144670D01*
Y128826D01*
Y128949D01*
Y129073D01*
Y129196D01*
Y129319D01*
Y129443D01*
Y129566D01*
Y129689D01*
Y129813D01*
Y129936D01*
Y130059D01*
Y130183D01*
Y130306D01*
Y130429D01*
Y130553D01*
Y130676D01*
Y130800D01*
Y130923D01*
Y131046D01*
Y131170D01*
Y131293D01*
Y131416D01*
X144547D01*
Y131540D01*
Y131663D01*
Y131786D01*
Y131910D01*
X144423D01*
Y132033D01*
Y132157D01*
Y132280D01*
X144300D01*
Y132403D01*
Y132527D01*
X144177D01*
Y132650D01*
Y132773D01*
Y132897D01*
X144053D01*
Y133020D01*
X143930D01*
Y133143D01*
Y133267D01*
X143807D01*
Y133390D01*
Y133514D01*
X143683D01*
Y133637D01*
X143560D01*
Y133760D01*
Y133884D01*
X143436D01*
Y134007D01*
X143313D01*
Y134130D01*
X143190D01*
Y134254D01*
Y134377D01*
X143066D01*
Y134500D01*
X142943D01*
Y134624D01*
X142820D01*
Y134747D01*
X142696D01*
Y134870D01*
X142573D01*
Y134994D01*
X142326D01*
Y135117D01*
X142203D01*
Y135241D01*
X142080D01*
Y135364D01*
X141833D01*
Y135487D01*
X141709D01*
Y135611D01*
X141463D01*
Y135734D01*
X141216D01*
Y135857D01*
X140969D01*
Y135981D01*
X140723D01*
Y136104D01*
X140476D01*
Y136227D01*
X140229D01*
Y136351D01*
D02*
G37*
G36*
X138872Y136598D02*
X137762D01*
Y136474D01*
X136898D01*
Y136351D01*
X136528D01*
Y136227D01*
X136158D01*
Y136104D01*
X135788D01*
Y135981D01*
X135541D01*
Y135857D01*
X135295D01*
Y135734D01*
X135048D01*
Y135611D01*
X134925D01*
Y135487D01*
X134678D01*
Y135364D01*
X134555D01*
Y135241D01*
X134308D01*
Y135117D01*
X134184D01*
Y134994D01*
X134061D01*
Y134870D01*
X133938D01*
Y134747D01*
X133814D01*
Y134624D01*
X133691D01*
Y134500D01*
X133568D01*
Y134377D01*
X133444D01*
Y134254D01*
X133321D01*
Y134130D01*
X133198D01*
Y134007D01*
X133074D01*
Y133884D01*
X132951D01*
Y133760D01*
Y133637D01*
X132827D01*
Y133514D01*
X132704D01*
Y133390D01*
Y133267D01*
X132581D01*
Y133143D01*
X132457D01*
Y133020D01*
Y132897D01*
X132334D01*
Y132773D01*
Y132650D01*
X132211D01*
Y132527D01*
Y132403D01*
Y132280D01*
X132087D01*
Y132157D01*
Y132033D01*
Y131910D01*
X131964D01*
Y131786D01*
Y131663D01*
Y131540D01*
Y131416D01*
X131841D01*
Y131293D01*
Y131170D01*
Y131046D01*
Y130923D01*
Y130800D01*
Y130676D01*
Y130553D01*
Y130429D01*
Y130306D01*
Y130183D01*
Y130059D01*
Y129936D01*
Y129813D01*
Y129689D01*
Y129566D01*
Y129443D01*
Y129319D01*
Y129196D01*
Y129073D01*
Y128949D01*
Y128826D01*
Y128702D01*
X131964D01*
Y128579D01*
Y128456D01*
Y128332D01*
Y128209D01*
X132087D01*
Y128086D01*
Y127962D01*
Y127839D01*
X132211D01*
Y127716D01*
Y127592D01*
X132334D01*
Y127469D01*
Y127345D01*
Y127222D01*
X132457D01*
Y127099D01*
Y126975D01*
X132581D01*
Y126852D01*
X132704D01*
Y126729D01*
Y126605D01*
X132827D01*
Y126482D01*
X132951D01*
Y126359D01*
Y126235D01*
X133074D01*
Y126112D01*
X133198D01*
Y125989D01*
X133321D01*
Y125865D01*
Y125742D01*
X133444D01*
Y125618D01*
X133568D01*
Y125495D01*
X133691D01*
Y125372D01*
X133814D01*
Y125248D01*
X133938D01*
Y125125D01*
X134184D01*
Y125002D01*
X134308D01*
Y124878D01*
X134431D01*
Y124755D01*
X134555D01*
Y124632D01*
X134801D01*
Y124508D01*
X135048D01*
Y124385D01*
X135171D01*
Y124261D01*
X135418D01*
Y124138D01*
X135665D01*
Y124015D01*
X136035D01*
Y123891D01*
X136282D01*
Y123768D01*
X136775D01*
Y123645D01*
X137515D01*
Y123521D01*
X138625D01*
Y123645D01*
X138872D01*
Y123768D01*
Y123891D01*
X138749D01*
Y124015D01*
Y124138D01*
Y124261D01*
Y124385D01*
Y124508D01*
X138625D01*
Y124632D01*
Y124755D01*
Y124878D01*
Y125002D01*
Y125125D01*
Y125248D01*
X138502D01*
Y125372D01*
Y125495D01*
Y125618D01*
Y125742D01*
Y125865D01*
X138379D01*
Y125989D01*
Y126112D01*
X138132D01*
Y126235D01*
X137639D01*
Y126359D01*
X137145D01*
Y126482D01*
X136775D01*
Y126605D01*
X136528D01*
Y126729D01*
X136405D01*
Y126852D01*
X136158D01*
Y126975D01*
X136035D01*
Y127099D01*
X135788D01*
Y127222D01*
X135665D01*
Y127345D01*
X135541D01*
Y127469D01*
X135418D01*
Y127592D01*
X135295D01*
Y127716D01*
X135171D01*
Y127839D01*
Y127962D01*
X135048D01*
Y128086D01*
X134925D01*
Y128209D01*
Y128332D01*
X134801D01*
Y128456D01*
Y128579D01*
X134678D01*
Y128702D01*
Y128826D01*
Y128949D01*
Y129073D01*
X134555D01*
Y129196D01*
Y129319D01*
Y129443D01*
Y129566D01*
Y129689D01*
Y129813D01*
Y129936D01*
Y130059D01*
Y130183D01*
Y130306D01*
Y130429D01*
Y130553D01*
Y130676D01*
Y130800D01*
Y130923D01*
Y131046D01*
Y131170D01*
X134678D01*
Y131293D01*
Y131416D01*
Y131540D01*
X134801D01*
Y131663D01*
Y131786D01*
X134925D01*
Y131910D01*
Y132033D01*
X135048D01*
Y132157D01*
X135171D01*
Y132280D01*
Y132403D01*
X135295D01*
Y132527D01*
X135418D01*
Y132650D01*
X135541D01*
Y132773D01*
X135665D01*
Y132897D01*
X135788D01*
Y133020D01*
X136035D01*
Y133143D01*
X136158D01*
Y133267D01*
X136405D01*
Y133390D01*
X136652D01*
Y133514D01*
X136898D01*
Y133637D01*
X137268D01*
Y133760D01*
X137762D01*
Y133884D01*
X138132D01*
Y134007D01*
X138379D01*
Y134130D01*
Y134254D01*
X138502D01*
Y134377D01*
Y134500D01*
Y134624D01*
Y134747D01*
Y134870D01*
X138625D01*
Y134994D01*
Y135117D01*
Y135241D01*
Y135364D01*
Y135487D01*
Y135611D01*
X138749D01*
Y135734D01*
Y135857D01*
Y135981D01*
Y136104D01*
Y136227D01*
X138872D01*
Y136351D01*
Y136474D01*
Y136598D01*
D02*
G37*
%LPD*%
G36*
X134555Y144739D02*
X134801D01*
Y144616D01*
X134925D01*
Y144493D01*
X135048D01*
Y144369D01*
X135171D01*
Y144246D01*
X135295D01*
Y144123D01*
Y143999D01*
X135418D01*
Y143876D01*
Y143752D01*
Y143629D01*
X135541D01*
Y143506D01*
Y143382D01*
Y143259D01*
Y143136D01*
Y143012D01*
X135418D01*
Y142889D01*
Y142766D01*
Y142642D01*
X135295D01*
Y142519D01*
Y142395D01*
X135171D01*
Y142272D01*
X135048D01*
Y142149D01*
X134801D01*
Y142025D01*
X134555D01*
Y141902D01*
X134308D01*
Y141779D01*
X133691D01*
Y141902D01*
X133321D01*
Y142025D01*
X133198D01*
Y142149D01*
X132951D01*
Y142272D01*
X132827D01*
Y142395D01*
Y142519D01*
X132704D01*
Y142642D01*
X132581D01*
Y142766D01*
Y142889D01*
Y143012D01*
Y143136D01*
X132457D01*
Y143259D01*
Y143382D01*
Y143506D01*
Y143629D01*
Y143752D01*
X132581D01*
Y143876D01*
Y143999D01*
Y144123D01*
X132704D01*
Y144246D01*
X132827D01*
Y144369D01*
Y144493D01*
X133074D01*
Y144616D01*
X133198D01*
Y144739D01*
X133444D01*
Y144863D01*
X134555D01*
Y144739D01*
D02*
G37*
%LPC*%
G36*
X134184Y144369D02*
X133814D01*
Y144246D01*
X133691D01*
Y144123D01*
X133568D01*
Y143999D01*
X133444D01*
Y143876D01*
X133321D01*
Y143752D01*
X133198D01*
Y143629D01*
X133074D01*
Y143506D01*
Y143382D01*
Y143259D01*
Y143136D01*
X133198D01*
Y143012D01*
X133321D01*
Y142889D01*
X133444D01*
Y142766D01*
X133568D01*
Y142642D01*
X133691D01*
Y142519D01*
X133814D01*
Y142395D01*
X134184D01*
Y142519D01*
X134308D01*
Y142642D01*
X134431D01*
Y142766D01*
X134555D01*
Y142889D01*
X134678D01*
Y143012D01*
X134801D01*
Y143136D01*
X134925D01*
Y143259D01*
Y143382D01*
Y143506D01*
Y143629D01*
X134801D01*
Y143752D01*
X134678D01*
Y143876D01*
X134555D01*
Y143999D01*
X134431D01*
Y144123D01*
X134308D01*
Y144246D01*
X134184D01*
Y144369D01*
D02*
G37*
%LPD*%
M02*
