G04*
G04 #@! TF.GenerationSoftware,Altium Limited,Altium Designer,18.1.9 (240)*
G04*
G04 Layer_Color=32896*
%FSLAX43Y43*%
%MOMM*%
G71*
G01*
G75*
%ADD12C,0.254*%
D12*
X183921Y145025D02*
Y146040D01*
X183413Y146548D01*
X182905Y146040D01*
Y145025D01*
Y145786D01*
X183921D01*
X182397Y146040D02*
Y145279D01*
X182144Y145025D01*
X181382D01*
Y146040D01*
X179858Y146548D02*
Y145025D01*
X180620D01*
X180874Y145279D01*
Y145786D01*
X180620Y146040D01*
X179858D01*
X179350Y145025D02*
X178843D01*
X179097D01*
Y146040D01*
X179350D01*
X177827Y145025D02*
X177319D01*
X177065Y145279D01*
Y145786D01*
X177319Y146040D01*
X177827D01*
X178081Y145786D01*
Y145279D01*
X177827Y145025D01*
X175034Y146548D02*
X174526D01*
X174780D01*
Y145025D01*
X175034D01*
X174526D01*
X173003Y146548D02*
X173510D01*
X173764Y146294D01*
Y145279D01*
X173510Y145025D01*
X173003D01*
X172749Y145279D01*
Y146294D01*
X173003Y146548D01*
X169702Y146294D02*
X169956Y146548D01*
X170463D01*
X170717Y146294D01*
Y146040D01*
X170463Y145786D01*
X169956D01*
X169702Y145532D01*
Y145279D01*
X169956Y145025D01*
X170463D01*
X170717Y145279D01*
X169194Y146040D02*
Y145279D01*
X168940Y145025D01*
X168686Y145279D01*
X168432Y145025D01*
X168178Y145279D01*
Y146040D01*
X167670Y145025D02*
X167162D01*
X167416D01*
Y146040D01*
X167670D01*
X166147Y146294D02*
Y146040D01*
X166401D01*
X165893D01*
X166147D01*
Y145279D01*
X165893Y145025D01*
X164115Y146040D02*
X164877D01*
X165131Y145786D01*
Y145279D01*
X164877Y145025D01*
X164115D01*
X163608Y146548D02*
Y145025D01*
Y145786D01*
X163354Y146040D01*
X162846D01*
X162592Y145786D01*
Y145025D01*
X159545Y146548D02*
X160561D01*
Y145786D01*
X160053D01*
X160561D01*
Y145025D01*
X158783Y146040D02*
X158275D01*
X158021Y145786D01*
Y145025D01*
X158783D01*
X159037Y145279D01*
X158783Y145532D01*
X158021D01*
X156498Y146040D02*
X157260D01*
X157514Y145786D01*
Y145279D01*
X157260Y145025D01*
X156498D01*
X155228D02*
X155736D01*
X155990Y145279D01*
Y145786D01*
X155736Y146040D01*
X155228D01*
X154974Y145786D01*
Y145532D01*
X155990D01*
X154467Y144517D02*
Y146040D01*
X153705D01*
X153451Y145786D01*
Y145279D01*
X153705Y145025D01*
X154467D01*
X152943D02*
X152435D01*
X152689D01*
Y146548D01*
X152943D01*
X151420Y146040D02*
X150912D01*
X150658Y145786D01*
Y145025D01*
X151420D01*
X151673Y145279D01*
X151420Y145532D01*
X150658D01*
X149896Y146294D02*
Y146040D01*
X150150D01*
X149642D01*
X149896D01*
Y145279D01*
X149642Y145025D01*
X148119D02*
X148626D01*
X148880Y145279D01*
Y145786D01*
X148626Y146040D01*
X148119D01*
X147865Y145786D01*
Y145532D01*
X148880D01*
X183921Y143095D02*
X183413Y142079D01*
X182905Y143095D01*
X182397Y142079D02*
X181890D01*
X182144D01*
Y143603D01*
X182397Y143349D01*
X181128Y142079D02*
Y142333D01*
X180874D01*
Y142079D01*
X181128D01*
X179858Y143349D02*
X179604Y143603D01*
X179097D01*
X178843Y143349D01*
Y142333D01*
X179097Y142079D01*
X179604D01*
X179858Y142333D01*
Y143349D01*
X172749Y142079D02*
X173764D01*
X172749Y143095D01*
Y143349D01*
X173003Y143603D01*
X173510D01*
X173764Y143349D01*
X172241D02*
X171987Y143603D01*
X171479D01*
X171225Y143349D01*
Y142333D01*
X171479Y142079D01*
X171987D01*
X172241Y142333D01*
Y143349D01*
X169702Y142079D02*
X170717D01*
X169702Y143095D01*
Y143349D01*
X169956Y143603D01*
X170463D01*
X170717Y143349D01*
X169194Y142079D02*
X168686D01*
X168940D01*
Y143603D01*
X169194Y143349D01*
X167924D02*
X167670Y143603D01*
X167162D01*
X166909Y143349D01*
Y142333D01*
X167162Y142079D01*
X167670D01*
X167924Y142333D01*
Y143349D01*
X166401Y142079D02*
X165893D01*
X166147D01*
Y143603D01*
X166401Y143349D01*
X165131D02*
X164877Y143603D01*
X164369D01*
X164115Y143349D01*
Y143095D01*
X164369Y142841D01*
X164623D01*
X164369D01*
X164115Y142587D01*
Y142333D01*
X164369Y142079D01*
X164877D01*
X165131Y142333D01*
X163608Y143349D02*
X163354Y143603D01*
X162846D01*
X162592Y143349D01*
Y142333D01*
X162846Y142079D01*
X163354D01*
X163608Y142333D01*
Y143349D01*
X183667Y128278D02*
X183159D01*
X182905Y128024D01*
Y127262D01*
X183667D01*
X183921Y127516D01*
X183667Y127770D01*
X182905D01*
X181382Y128785D02*
Y127262D01*
X182144D01*
X182397Y127516D01*
Y128024D01*
X182144Y128278D01*
X181382D01*
X180620D02*
X180112D01*
X179858Y128024D01*
Y127262D01*
X180620D01*
X180874Y127516D01*
X180620Y127770D01*
X179858D01*
X179350Y127262D02*
Y128278D01*
X179097D01*
X178843Y128024D01*
Y127262D01*
Y128024D01*
X178589Y128278D01*
X178335Y128024D01*
Y127262D01*
X177319Y126754D02*
X177065D01*
X176811Y127008D01*
Y128278D01*
X177573D01*
X177827Y128024D01*
Y127516D01*
X177573Y127262D01*
X176811D01*
X176303Y128278D02*
Y127516D01*
X176050Y127262D01*
X175288D01*
Y128278D01*
X174780Y127262D02*
X174272D01*
X174526D01*
Y128785D01*
X174780D01*
X173510Y128278D02*
Y127516D01*
X173256Y127262D01*
X172495D01*
Y127008D01*
X172749Y126754D01*
X173003D01*
X172495Y127262D02*
Y128278D01*
X171733D02*
X171225D01*
X170971Y128024D01*
Y127262D01*
X171733D01*
X171987Y127516D01*
X171733Y127770D01*
X170971D01*
X170463Y127262D02*
X169702D01*
X169448Y127516D01*
X169702Y127770D01*
X170209D01*
X170463Y128024D01*
X170209Y128278D01*
X169448D01*
X168940Y127262D02*
Y127516D01*
X168686D01*
Y127262D01*
X168940D01*
X166655Y128278D02*
X167416D01*
X167670Y128024D01*
Y127516D01*
X167416Y127262D01*
X166655D01*
X165893Y128278D02*
X165385D01*
X165131Y128024D01*
Y127262D01*
X165893D01*
X166147Y127516D01*
X165893Y127770D01*
X165131D01*
X143680Y128378D02*
X144188D01*
X143934D01*
Y127108D01*
X144188Y126854D01*
X144442D01*
X144696Y127108D01*
X143172Y128378D02*
Y126854D01*
X142157D01*
X140633Y128124D02*
X140887Y128378D01*
X141395D01*
X141649Y128124D01*
Y127108D01*
X141395Y126854D01*
X140887D01*
X140633Y127108D01*
X139110Y128378D02*
X139618D01*
X139364D01*
Y127108D01*
X139618Y126854D01*
X139872D01*
X140125Y127108D01*
X138602Y128378D02*
Y126854D01*
X137586D01*
X136063Y128124D02*
X136317Y128378D01*
X136825D01*
X137078Y128124D01*
Y127108D01*
X136825Y126854D01*
X136317D01*
X136063Y127108D01*
X134539Y128378D02*
X135047D01*
X134793D01*
Y127108D01*
X135047Y126854D01*
X135301D01*
X135555Y127108D01*
X134031Y128378D02*
Y126854D01*
X133016D01*
X131492Y128124D02*
X131746Y128378D01*
X132254D01*
X132508Y128124D01*
Y127108D01*
X132254Y126854D01*
X131746D01*
X131492Y127108D01*
X129969Y128378D02*
X130477D01*
X130223D01*
Y127108D01*
X130477Y126854D01*
X130731D01*
X130984Y127108D01*
X129461Y128378D02*
Y126854D01*
X128445D01*
X126922Y128124D02*
X127176Y128378D01*
X127684D01*
X127937Y128124D01*
Y127108D01*
X127684Y126854D01*
X127176D01*
X126922Y127108D01*
M02*
