G04*
G04 #@! TF.GenerationSoftware,Altium Limited,Altium Designer,18.1.9 (240)*
G04*
G04 Layer_Physical_Order=1*
G04 Layer_Color=255*
%FSLAX43Y43*%
%MOMM*%
G71*
G01*
G75*
%ADD10C,0.200*%
%ADD14C,3.000*%
%ADD15O,2.000X4.000*%
%ADD16O,3.000X3.900*%
%ADD17C,0.800*%
%ADD18C,3.200*%
G36*
X82562Y79199D02*
X82512Y79165D01*
Y76955D01*
Y74745D01*
X82562Y74711D01*
X82562Y34400D01*
X82512Y34367D01*
Y32156D01*
Y29946D01*
X82562Y29912D01*
Y25900D01*
X50716Y25900D01*
Y28706D01*
X50716D01*
X50704Y29005D01*
X50611Y29596D01*
X50426Y30166D01*
X50154Y30699D01*
X49802Y31184D01*
X49378Y31607D01*
X48894Y31959D01*
X48360Y32231D01*
X47791Y32416D01*
X47199Y32510D01*
X46601D01*
X46009Y32416D01*
X45440Y32231D01*
X44906Y31959D01*
X44422Y31607D01*
X43998Y31184D01*
X43646Y30699D01*
X43374Y30166D01*
X43189Y29596D01*
X43096Y29005D01*
X43084Y28706D01*
X43084D01*
Y25900D01*
X25900Y25900D01*
Y28212D01*
X25950Y28246D01*
Y30456D01*
Y32667D01*
X25900Y32700D01*
X25900Y73011D01*
X25950Y73045D01*
Y75255D01*
Y77465D01*
X25900Y77499D01*
Y81511D01*
X43084Y81511D01*
Y78706D01*
X43084D01*
X43096Y78406D01*
X43189Y77815D01*
X43374Y77245D01*
X43646Y76712D01*
X43998Y76227D01*
X44422Y75804D01*
X44906Y75452D01*
X45440Y75180D01*
X46009Y74995D01*
X46601Y74901D01*
X47199D01*
X47791Y74995D01*
X48360Y75180D01*
X48894Y75452D01*
X49378Y75804D01*
X49802Y76227D01*
X50154Y76712D01*
X50426Y77245D01*
X50611Y77815D01*
X50704Y78406D01*
X50716Y78706D01*
X50716D01*
Y81511D01*
X82562Y81511D01*
Y79199D01*
D02*
G37*
%LPC*%
G36*
X53800Y80366D02*
X53447Y80319D01*
X53219Y80225D01*
X53212Y80223D01*
X53206Y80219D01*
X53117Y80183D01*
X52834Y79966D01*
X52617Y79683D01*
X52481Y79353D01*
X52434Y79000D01*
X52481Y78647D01*
X52617Y78317D01*
X52834Y78034D01*
X53117Y77817D01*
X53447Y77681D01*
X53800Y77634D01*
X54153Y77681D01*
X54483Y77817D01*
X54766Y78034D01*
X54983Y78317D01*
X55119Y78647D01*
X55166Y79000D01*
X55119Y79353D01*
X54983Y79683D01*
X54766Y79966D01*
X54483Y80183D01*
X54394Y80219D01*
X54388Y80223D01*
X54381Y80225D01*
X54153Y80319D01*
X53800Y80366D01*
D02*
G37*
G36*
X28900Y79520D02*
X28573Y79477D01*
X28268Y79350D01*
X28006Y79149D01*
X27805Y78887D01*
X27678Y78582D01*
X27635Y78255D01*
Y76979D01*
X27508Y76936D01*
X27344Y77149D01*
X27082Y77350D01*
X26950Y77405D01*
Y75255D01*
Y73105D01*
X27082Y73160D01*
X27344Y73361D01*
X27545Y73623D01*
X27611Y73780D01*
X27738Y73755D01*
Y66745D01*
X27771Y66401D01*
X27872Y66071D01*
X28035Y65766D01*
X28254Y65499D01*
X32138Y61615D01*
Y51150D01*
X32171Y50806D01*
X32272Y50476D01*
X32435Y50171D01*
X32654Y49904D01*
X34803Y47755D01*
X34803Y47755D01*
X35070Y47536D01*
X35375Y47373D01*
X35705Y47272D01*
X36049Y47239D01*
X36680D01*
X36867Y47086D01*
X37172Y46923D01*
X37502Y46822D01*
X37846Y46789D01*
X38190Y46822D01*
X38520Y46923D01*
X38825Y47086D01*
X39092Y47305D01*
X39311Y47572D01*
X39474Y47877D01*
X39575Y48207D01*
X39608Y48551D01*
Y49451D01*
X39575Y49795D01*
X39474Y50125D01*
X39311Y50430D01*
X39092Y50697D01*
X38825Y50916D01*
X38520Y51079D01*
X38190Y51180D01*
X37846Y51213D01*
X37502Y51180D01*
X37172Y51079D01*
X36867Y50916D01*
X36735Y50808D01*
X35662Y51880D01*
Y62345D01*
X35662Y62345D01*
X35629Y62689D01*
X35528Y63019D01*
X35365Y63324D01*
X35146Y63591D01*
X35146Y63591D01*
X31262Y67475D01*
Y77750D01*
X31229Y78094D01*
X31128Y78424D01*
X30965Y78729D01*
X30746Y78996D01*
X30479Y79215D01*
X30174Y79378D01*
X29844Y79479D01*
X29500Y79512D01*
X29189Y79482D01*
X28900Y79520D01*
D02*
G37*
G36*
X81512Y79105D02*
X81380Y79050D01*
X81118Y78849D01*
X80917Y78587D01*
X80790Y78282D01*
X80747Y77955D01*
Y76679D01*
X80620Y76636D01*
X80456Y76849D01*
X80194Y77050D01*
X79889Y77177D01*
X79562Y77220D01*
X79235Y77177D01*
X79176Y77153D01*
X79075Y77162D01*
X78731Y77129D01*
X78401Y77028D01*
X78096Y76865D01*
X77829Y76646D01*
X77610Y76379D01*
X77447Y76074D01*
X77346Y75744D01*
X77313Y75400D01*
Y67588D01*
X73114Y63389D01*
X72895Y63122D01*
X72732Y62817D01*
X72631Y62487D01*
X72597Y62143D01*
Y51880D01*
X71616Y50899D01*
X71595Y50916D01*
X71290Y51079D01*
X70960Y51180D01*
X70616Y51213D01*
X70272Y51180D01*
X69941Y51079D01*
X69637Y50916D01*
X69370Y50697D01*
X69151Y50430D01*
X68988Y50125D01*
X68887Y49795D01*
X68853Y49451D01*
Y48551D01*
X68887Y48207D01*
X68988Y47877D01*
X69151Y47572D01*
X69370Y47305D01*
X69637Y47086D01*
X69941Y46923D01*
X70272Y46822D01*
X70616Y46789D01*
X70960Y46822D01*
X71290Y46923D01*
X71595Y47086D01*
X71782Y47239D01*
X72211D01*
X72555Y47272D01*
X72885Y47373D01*
X73190Y47536D01*
X73457Y47755D01*
X75606Y49904D01*
X75825Y50171D01*
X75988Y50476D01*
X76089Y50806D01*
X76122Y51150D01*
Y61413D01*
X80321Y65612D01*
X80321Y65612D01*
X80540Y65879D01*
X80703Y66184D01*
X80804Y66514D01*
X80837Y66858D01*
X80837Y66858D01*
Y75217D01*
X80964Y75260D01*
X81118Y75061D01*
X81380Y74860D01*
X81512Y74805D01*
Y76955D01*
Y79105D01*
D02*
G37*
G36*
X73962Y77220D02*
X73635Y77177D01*
X73330Y77050D01*
X73068Y76849D01*
X72966Y76717D01*
X65955D01*
X65611Y76684D01*
X65281Y76583D01*
X64976Y76420D01*
X64709Y76201D01*
X59714Y71206D01*
X59495Y70939D01*
X59332Y70634D01*
X59231Y70304D01*
X59197Y69960D01*
Y63840D01*
X59231Y63496D01*
X59332Y63166D01*
X59495Y62861D01*
X59714Y62594D01*
X61253Y61054D01*
Y50994D01*
X61287Y50650D01*
X61388Y50320D01*
X61551Y50015D01*
X61770Y49748D01*
X63763Y47755D01*
X64030Y47536D01*
X64334Y47373D01*
X64665Y47272D01*
X65009Y47239D01*
X65640D01*
X65827Y47086D01*
X66131Y46923D01*
X66462Y46822D01*
X66806Y46789D01*
X67150Y46822D01*
X67480Y46923D01*
X67785Y47086D01*
X68052Y47305D01*
X68271Y47572D01*
X68434Y47877D01*
X68535Y48207D01*
X68568Y48551D01*
Y49451D01*
X68535Y49795D01*
X68434Y50125D01*
X68271Y50430D01*
X68052Y50697D01*
X67785Y50916D01*
X67480Y51079D01*
X67150Y51180D01*
X66806Y51213D01*
X66462Y51180D01*
X66131Y51079D01*
X65827Y50916D01*
X65695Y50808D01*
X64778Y51724D01*
Y61784D01*
X64778Y61784D01*
X64745Y62128D01*
X64644Y62458D01*
X64481Y62763D01*
X64262Y63030D01*
X62722Y64570D01*
Y69230D01*
X66685Y73193D01*
X72966D01*
X73068Y73061D01*
X73330Y72860D01*
X73635Y72733D01*
X73962Y72690D01*
X74289Y72733D01*
X74594Y72860D01*
X74856Y73061D01*
X75057Y73323D01*
X75184Y73628D01*
X75193Y73696D01*
X75208Y73709D01*
X75427Y73976D01*
X75590Y74281D01*
X75691Y74611D01*
X75724Y74955D01*
X75691Y75299D01*
X75590Y75629D01*
X75427Y75934D01*
X75208Y76201D01*
X75193Y76214D01*
X75184Y76282D01*
X75057Y76587D01*
X74856Y76849D01*
X74594Y77050D01*
X74289Y77177D01*
X73962Y77220D01*
D02*
G37*
G36*
X70616Y60611D02*
X70272Y60578D01*
X69941Y60477D01*
X69637Y60314D01*
X69370Y60095D01*
X69151Y59828D01*
X68988Y59523D01*
X68887Y59193D01*
X68853Y58849D01*
Y57949D01*
X68887Y57605D01*
X68988Y57275D01*
X69151Y56970D01*
X69370Y56703D01*
X69637Y56484D01*
X69941Y56321D01*
X70272Y56220D01*
X70616Y56187D01*
X70960Y56220D01*
X71290Y56321D01*
X71595Y56484D01*
X71862Y56703D01*
X72081Y56970D01*
X72244Y57275D01*
X72345Y57605D01*
X72378Y57949D01*
Y58849D01*
X72345Y59193D01*
X72244Y59523D01*
X72081Y59828D01*
X71862Y60095D01*
X71595Y60314D01*
X71290Y60477D01*
X70960Y60578D01*
X70616Y60611D01*
D02*
G37*
G36*
X66806D02*
X66462Y60578D01*
X66131Y60477D01*
X65827Y60314D01*
X65560Y60095D01*
X65341Y59828D01*
X65178Y59523D01*
X65077Y59193D01*
X65043Y58849D01*
Y57949D01*
X65077Y57605D01*
X65178Y57275D01*
X65341Y56970D01*
X65560Y56703D01*
X65827Y56484D01*
X66131Y56321D01*
X66462Y56220D01*
X66806Y56187D01*
X67150Y56220D01*
X67480Y56321D01*
X67785Y56484D01*
X68052Y56703D01*
X68271Y56970D01*
X68434Y57275D01*
X68535Y57605D01*
X68568Y57949D01*
Y58849D01*
X68535Y59193D01*
X68434Y59523D01*
X68271Y59828D01*
X68052Y60095D01*
X67785Y60314D01*
X67480Y60477D01*
X67150Y60578D01*
X66806Y60611D01*
D02*
G37*
G36*
X41656D02*
X41312Y60578D01*
X40982Y60477D01*
X40677Y60314D01*
X40410Y60095D01*
X40191Y59828D01*
X40028Y59523D01*
X39927Y59193D01*
X39894Y58849D01*
Y57949D01*
X39927Y57605D01*
X40028Y57275D01*
X40191Y56970D01*
X40410Y56703D01*
X40677Y56484D01*
X40982Y56321D01*
X41312Y56220D01*
X41656Y56187D01*
X42000Y56220D01*
X42330Y56321D01*
X42635Y56484D01*
X42902Y56703D01*
X43121Y56970D01*
X43284Y57275D01*
X43385Y57605D01*
X43418Y57949D01*
Y58849D01*
X43385Y59193D01*
X43284Y59523D01*
X43121Y59828D01*
X42902Y60095D01*
X42635Y60314D01*
X42330Y60477D01*
X42000Y60578D01*
X41656Y60611D01*
D02*
G37*
G36*
X37846D02*
X37502Y60578D01*
X37172Y60477D01*
X36867Y60314D01*
X36600Y60095D01*
X36381Y59828D01*
X36218Y59523D01*
X36117Y59193D01*
X36084Y58849D01*
Y57949D01*
X36117Y57605D01*
X36218Y57275D01*
X36381Y56970D01*
X36600Y56703D01*
X36867Y56484D01*
X37172Y56321D01*
X37502Y56220D01*
X37846Y56187D01*
X38190Y56220D01*
X38520Y56321D01*
X38825Y56484D01*
X39092Y56703D01*
X39311Y56970D01*
X39474Y57275D01*
X39575Y57605D01*
X39608Y57949D01*
Y58849D01*
X39575Y59193D01*
X39474Y59523D01*
X39311Y59828D01*
X39092Y60095D01*
X38825Y60314D01*
X38520Y60477D01*
X38190Y60578D01*
X37846Y60611D01*
D02*
G37*
G36*
X70616Y55912D02*
X70272Y55879D01*
X69941Y55778D01*
X69637Y55615D01*
X69370Y55396D01*
X69151Y55129D01*
X68988Y54824D01*
X68887Y54494D01*
X68853Y54150D01*
Y53250D01*
X68887Y52906D01*
X68988Y52576D01*
X69151Y52271D01*
X69370Y52004D01*
X69637Y51785D01*
X69941Y51622D01*
X70272Y51521D01*
X70616Y51488D01*
X70960Y51521D01*
X71290Y51622D01*
X71595Y51785D01*
X71862Y52004D01*
X72081Y52271D01*
X72244Y52576D01*
X72345Y52906D01*
X72378Y53250D01*
Y54150D01*
X72345Y54494D01*
X72244Y54824D01*
X72081Y55129D01*
X71862Y55396D01*
X71595Y55615D01*
X71290Y55778D01*
X70960Y55879D01*
X70616Y55912D01*
D02*
G37*
G36*
X66806D02*
X66462Y55879D01*
X66131Y55778D01*
X65827Y55615D01*
X65560Y55396D01*
X65341Y55129D01*
X65178Y54824D01*
X65077Y54494D01*
X65043Y54150D01*
Y53250D01*
X65077Y52906D01*
X65178Y52576D01*
X65341Y52271D01*
X65560Y52004D01*
X65827Y51785D01*
X66131Y51622D01*
X66462Y51521D01*
X66806Y51488D01*
X67150Y51521D01*
X67480Y51622D01*
X67785Y51785D01*
X68052Y52004D01*
X68271Y52271D01*
X68434Y52576D01*
X68535Y52906D01*
X68568Y53250D01*
Y54150D01*
X68535Y54494D01*
X68434Y54824D01*
X68271Y55129D01*
X68052Y55396D01*
X67785Y55615D01*
X67480Y55778D01*
X67150Y55879D01*
X66806Y55912D01*
D02*
G37*
G36*
X41656D02*
X41312Y55879D01*
X40982Y55778D01*
X40677Y55615D01*
X40410Y55396D01*
X40191Y55129D01*
X40028Y54824D01*
X39927Y54494D01*
X39894Y54150D01*
Y53250D01*
X39927Y52906D01*
X40028Y52576D01*
X40191Y52271D01*
X40410Y52004D01*
X40677Y51785D01*
X40982Y51622D01*
X41312Y51521D01*
X41656Y51488D01*
X42000Y51521D01*
X42330Y51622D01*
X42635Y51785D01*
X42902Y52004D01*
X43121Y52271D01*
X43284Y52576D01*
X43385Y52906D01*
X43418Y53250D01*
Y54150D01*
X43385Y54494D01*
X43284Y54824D01*
X43121Y55129D01*
X42902Y55396D01*
X42635Y55615D01*
X42330Y55778D01*
X42000Y55879D01*
X41656Y55912D01*
D02*
G37*
G36*
X37846D02*
X37502Y55879D01*
X37172Y55778D01*
X36867Y55615D01*
X36600Y55396D01*
X36381Y55129D01*
X36218Y54824D01*
X36117Y54494D01*
X36084Y54150D01*
Y53250D01*
X36117Y52906D01*
X36218Y52576D01*
X36381Y52271D01*
X36600Y52004D01*
X36867Y51785D01*
X37172Y51622D01*
X37502Y51521D01*
X37846Y51488D01*
X38190Y51521D01*
X38520Y51622D01*
X38825Y51785D01*
X39092Y52004D01*
X39311Y52271D01*
X39474Y52576D01*
X39575Y52906D01*
X39608Y53250D01*
Y54150D01*
X39575Y54494D01*
X39474Y54824D01*
X39311Y55129D01*
X39092Y55396D01*
X38825Y55615D01*
X38520Y55778D01*
X38190Y55879D01*
X37846Y55912D01*
D02*
G37*
G36*
X34500Y79520D02*
X34173Y79477D01*
X33868Y79350D01*
X33606Y79149D01*
X33405Y78887D01*
X33278Y78582D01*
X33269Y78514D01*
X33254Y78501D01*
X33035Y78234D01*
X32872Y77929D01*
X32771Y77599D01*
X32738Y77255D01*
X32771Y76911D01*
X32872Y76581D01*
X33035Y76276D01*
X33254Y76009D01*
X33269Y75996D01*
X33278Y75928D01*
X33405Y75623D01*
X33606Y75361D01*
X33868Y75160D01*
X34173Y75033D01*
X34500Y74990D01*
X34827Y75033D01*
X35132Y75160D01*
X35394Y75361D01*
X35496Y75493D01*
X39490D01*
X45538Y69445D01*
Y64773D01*
X44154Y63389D01*
X43935Y63122D01*
X43772Y62817D01*
X43671Y62487D01*
X43638Y62143D01*
Y51880D01*
X42656Y50899D01*
X42635Y50916D01*
X42330Y51079D01*
X42000Y51180D01*
X41656Y51213D01*
X41312Y51180D01*
X40982Y51079D01*
X40677Y50916D01*
X40410Y50697D01*
X40191Y50430D01*
X40028Y50125D01*
X39927Y49795D01*
X39894Y49451D01*
Y48551D01*
X39927Y48207D01*
X40028Y47877D01*
X40191Y47572D01*
X40410Y47305D01*
X40677Y47086D01*
X40982Y46923D01*
X41312Y46822D01*
X41656Y46789D01*
X42000Y46822D01*
X42330Y46923D01*
X42635Y47086D01*
X42822Y47239D01*
X43251D01*
X43595Y47272D01*
X43925Y47373D01*
X44230Y47536D01*
X44497Y47755D01*
X46646Y49904D01*
X46865Y50171D01*
X47028Y50476D01*
X47129Y50806D01*
X47162Y51150D01*
Y61413D01*
X48546Y62797D01*
X48546Y62797D01*
X48765Y63064D01*
X48928Y63369D01*
X49029Y63699D01*
X49062Y64043D01*
X49062Y64043D01*
Y70175D01*
X49062Y70175D01*
X49029Y70519D01*
X48928Y70849D01*
X48765Y71154D01*
X48546Y71421D01*
X41466Y78501D01*
X41199Y78720D01*
X40894Y78883D01*
X40564Y78984D01*
X40220Y79017D01*
X35496D01*
X35394Y79149D01*
X35132Y79350D01*
X34827Y79477D01*
X34500Y79520D01*
D02*
G37*
G36*
X49952Y60161D02*
X49608Y60128D01*
X49278Y60027D01*
X48973Y59864D01*
X48706Y59645D01*
X48487Y59378D01*
X48324Y59073D01*
X48223Y58743D01*
X48190Y58399D01*
Y57423D01*
Y40682D01*
X41726Y34219D01*
X35496D01*
X35394Y34351D01*
X35132Y34552D01*
X34827Y34678D01*
X34500Y34721D01*
X34173Y34678D01*
X33868Y34552D01*
X33606Y34351D01*
X33405Y34089D01*
X33278Y33784D01*
X33269Y33715D01*
X33254Y33703D01*
X33035Y33435D01*
X32872Y33131D01*
X32771Y32800D01*
X32738Y32456D01*
X32771Y32112D01*
X32872Y31782D01*
X33035Y31477D01*
X33254Y31210D01*
X33269Y31197D01*
X33278Y31129D01*
X33405Y30824D01*
X33606Y30562D01*
X33868Y30361D01*
X34173Y30235D01*
X34500Y30191D01*
X34827Y30235D01*
X35132Y30361D01*
X35394Y30562D01*
X35496Y30694D01*
X42456D01*
X42800Y30728D01*
X43131Y30828D01*
X43435Y30991D01*
X43703Y31210D01*
X51198Y38706D01*
X51417Y38973D01*
X51580Y39278D01*
X51681Y39608D01*
X51714Y39952D01*
Y57423D01*
Y58399D01*
X51681Y58743D01*
X51580Y59073D01*
X51417Y59378D01*
X51198Y59645D01*
X50931Y59864D01*
X50626Y60027D01*
X50296Y60128D01*
X49952Y60161D01*
D02*
G37*
G36*
X29559Y60162D02*
X29215Y60130D01*
X28884Y60032D01*
X28578Y59870D01*
X28310Y59653D01*
X28090Y59387D01*
X27925Y59083D01*
X27823Y58753D01*
X27788Y58417D01*
X27788Y58409D01*
X27785Y57917D01*
Y57917D01*
X27782Y57433D01*
X27647Y33542D01*
X27635Y33456D01*
Y32180D01*
X27508Y32137D01*
X27344Y32351D01*
X27082Y32552D01*
X26950Y32606D01*
Y30456D01*
Y28306D01*
X27082Y28361D01*
X27344Y28562D01*
X27545Y28824D01*
X27672Y29129D01*
X27715Y29456D01*
Y30732D01*
X27842Y30775D01*
X28006Y30562D01*
X28268Y30361D01*
X28573Y30235D01*
X28900Y30191D01*
X29101Y30218D01*
X29390Y30188D01*
X29734Y30220D01*
X30065Y30318D01*
X30371Y30479D01*
X30639Y30697D01*
X30860Y30963D01*
X31024Y31266D01*
X31127Y31597D01*
X31162Y31940D01*
X31165Y32443D01*
X31307Y57413D01*
X31310Y57897D01*
X31312Y58389D01*
X31312Y58390D01*
X31312Y58390D01*
X31312Y58391D01*
X31281Y58723D01*
X31281Y58733D01*
X31281Y58733D01*
X31280Y58735D01*
X31182Y59066D01*
X31020Y59372D01*
X30803Y59640D01*
X30537Y59860D01*
X30233Y60025D01*
X29903Y60127D01*
X29559Y60162D01*
D02*
G37*
G36*
X79075Y60162D02*
X78731Y60129D01*
X78401Y60028D01*
X78096Y59865D01*
X77829Y59646D01*
X77610Y59379D01*
X77447Y59074D01*
X77346Y58744D01*
X77313Y58400D01*
Y57423D01*
Y29650D01*
X77346Y29306D01*
X77447Y28976D01*
X77610Y28671D01*
X77829Y28404D01*
X78096Y28185D01*
X78401Y28022D01*
X78731Y27921D01*
X79075Y27888D01*
X79371Y27917D01*
X79562Y27891D01*
X79889Y27935D01*
X80194Y28061D01*
X80456Y28262D01*
X80657Y28524D01*
X80784Y28829D01*
X80827Y29156D01*
Y29541D01*
X80837Y29650D01*
Y30418D01*
X80964Y30461D01*
X81118Y30262D01*
X81380Y30061D01*
X81512Y30006D01*
Y32156D01*
Y34306D01*
X81380Y34252D01*
X81118Y34051D01*
X80964Y33851D01*
X80837Y33894D01*
Y57423D01*
Y58400D01*
X80804Y58744D01*
X80703Y59074D01*
X80540Y59379D01*
X80321Y59646D01*
X80054Y59865D01*
X79749Y60028D01*
X79419Y60129D01*
X79075Y60162D01*
D02*
G37*
G36*
X58510Y60161D02*
X58166Y60128D01*
X57835Y60027D01*
X57531Y59864D01*
X57264Y59645D01*
X57045Y59378D01*
X56882Y59073D01*
X56781Y58743D01*
X56747Y58399D01*
Y57423D01*
Y39290D01*
X56781Y38946D01*
X56882Y38616D01*
X57045Y38311D01*
X57264Y38044D01*
X66397Y28910D01*
X66397Y28910D01*
X66665Y28691D01*
X66969Y28528D01*
X67300Y28428D01*
X67644Y28394D01*
X72966D01*
X73068Y28262D01*
X73330Y28061D01*
X73635Y27935D01*
X73962Y27891D01*
X74289Y27935D01*
X74594Y28061D01*
X74856Y28262D01*
X75057Y28524D01*
X75184Y28829D01*
X75193Y28897D01*
X75208Y28910D01*
X75427Y29177D01*
X75590Y29482D01*
X75691Y29812D01*
X75724Y30156D01*
X75691Y30500D01*
X75590Y30831D01*
X75427Y31135D01*
X75208Y31403D01*
X75193Y31415D01*
X75184Y31484D01*
X75057Y31789D01*
X74856Y32051D01*
X74594Y32252D01*
X74289Y32378D01*
X73962Y32421D01*
X73635Y32378D01*
X73330Y32252D01*
X73068Y32051D01*
X72966Y31919D01*
X68374D01*
X60272Y40020D01*
Y57423D01*
Y58399D01*
X60239Y58743D01*
X60138Y59073D01*
X59975Y59378D01*
X59756Y59645D01*
X59489Y59864D01*
X59184Y60027D01*
X58854Y60128D01*
X58510Y60161D01*
D02*
G37*
%LPD*%
D10*
X54800Y79000D02*
G03*
X54800Y79000I-1000J0D01*
G01*
X53973Y79450D02*
X54690D01*
X53973Y78550D02*
X54690D01*
X52800Y79000D02*
X53970D01*
Y78020D02*
Y79980D01*
D14*
X29500Y66745D02*
Y77750D01*
X29547Y57915D02*
X29550Y58399D01*
X29547Y57915D02*
Y57915D01*
X29547Y57907D02*
X29547Y57915D01*
X29547Y57907D02*
Y57907D01*
X29544Y57423D02*
X29547Y57907D01*
X29403Y32453D02*
X29544Y57423D01*
X29400Y31950D02*
X29403Y32453D01*
X49952Y57423D02*
Y57910D01*
Y58399D01*
X79075Y57423D02*
Y58399D01*
Y29650D02*
Y57423D01*
X58510D02*
Y58399D01*
X79075Y66858D02*
Y75400D01*
X29550Y58399D02*
X29550Y58400D01*
X49952Y39952D02*
Y57423D01*
X79075Y58399D02*
Y58400D01*
X58510Y39290D02*
Y57423D01*
X60960Y63840D02*
X63016Y61784D01*
Y50994D02*
Y61784D01*
Y50994D02*
X65009Y49001D01*
X58510Y39290D02*
X67644Y30156D01*
X42456Y32456D02*
X49952Y39952D01*
X60960Y69960D02*
X65955Y74955D01*
X60960Y63840D02*
Y69960D01*
X45400Y62143D02*
X47300Y64043D01*
Y70175D01*
X74360Y62143D02*
X79075Y66858D01*
X70616Y49001D02*
X72211D01*
X74360Y51150D01*
Y62143D01*
X65009Y49001D02*
X66806D01*
X36049D02*
X37846D01*
X33900Y51150D02*
X36049Y49001D01*
X33900Y51150D02*
Y62345D01*
X45400Y51150D02*
Y62143D01*
X43251Y49001D02*
X45400Y51150D01*
X41656Y49001D02*
X43251D01*
X29500Y66745D02*
X33900Y62345D01*
X67644Y30156D02*
X73962D01*
X34500Y32456D02*
X42456D01*
X65955Y74955D02*
X73962D01*
X34500Y77255D02*
X40220D01*
X47300Y70175D01*
D15*
X82012Y32156D02*
D03*
X79562Y30156D02*
D03*
X73962D02*
D03*
X26450Y30456D02*
D03*
X28900Y32456D02*
D03*
X34500D02*
D03*
X73962Y74955D02*
D03*
X79562D02*
D03*
X82012Y76955D02*
D03*
X34500Y77255D02*
D03*
X28900D02*
D03*
X26450Y75255D02*
D03*
D16*
X66806Y53700D02*
D03*
Y49001D02*
D03*
Y58399D02*
D03*
X70616D02*
D03*
Y49001D02*
D03*
Y53700D02*
D03*
X37846D02*
D03*
Y58399D02*
D03*
Y49001D02*
D03*
X41656D02*
D03*
Y58399D02*
D03*
Y53700D02*
D03*
D17*
X31900Y44800D02*
D03*
X31300Y61000D02*
D03*
X76700Y44800D02*
D03*
Y56000D02*
D03*
X58800Y62800D02*
D03*
X60700Y56000D02*
D03*
X47700D02*
D03*
X60862Y50200D02*
D03*
Y46700D02*
D03*
X64462D02*
D03*
X44000D02*
D03*
X47600D02*
D03*
Y50200D02*
D03*
X78231Y58889D02*
D03*
X78230Y57912D02*
D03*
X79921Y57910D02*
D03*
X79075Y57423D02*
D03*
Y59377D02*
D03*
X79920Y58888D02*
D03*
X57666Y58889D02*
D03*
X57665Y57912D02*
D03*
X59356Y57910D02*
D03*
X58510Y57423D02*
D03*
Y59377D02*
D03*
X59355Y58888D02*
D03*
X49108Y58889D02*
D03*
X49107Y57912D02*
D03*
X50798Y57910D02*
D03*
X49952Y57423D02*
D03*
Y59377D02*
D03*
X50797Y58888D02*
D03*
X30395D02*
D03*
X29550Y59377D02*
D03*
Y57423D02*
D03*
X30396Y57910D02*
D03*
X28705Y57912D02*
D03*
X28706Y58889D02*
D03*
X79075Y58399D02*
D03*
X29550D02*
D03*
X58510D02*
D03*
X49952D02*
D03*
X34400Y41900D02*
D03*
X49400Y62900D02*
D03*
X64650Y77150D02*
D03*
X59400Y72150D02*
D03*
X59650Y34150D02*
D03*
X54150Y30400D02*
D03*
Y35900D02*
D03*
Y41400D02*
D03*
Y76150D02*
D03*
Y69900D02*
D03*
Y62900D02*
D03*
Y46900D02*
D03*
X47150Y33400D02*
D03*
X42400Y29650D02*
D03*
X32150Y30400D02*
D03*
Y35150D02*
D03*
X47400Y41000D02*
D03*
X44900Y38400D02*
D03*
X41400Y34900D02*
D03*
X32150Y39400D02*
D03*
X35900Y64400D02*
D03*
X74150Y41900D02*
D03*
X61100Y40500D02*
D03*
X63900Y37400D02*
D03*
X68900Y32650D02*
D03*
X76400Y32150D02*
D03*
Y39150D02*
D03*
Y72150D02*
D03*
Y77150D02*
D03*
X72900Y64400D02*
D03*
X76400Y67900D02*
D03*
X63900Y64400D02*
D03*
X63650Y69400D02*
D03*
X66900Y72400D02*
D03*
X47650Y73900D02*
D03*
X39900Y46900D02*
D03*
X68650D02*
D03*
Y60650D02*
D03*
Y51400D02*
D03*
Y56150D02*
D03*
X39900Y51400D02*
D03*
Y56150D02*
D03*
Y60900D02*
D03*
X44650Y65150D02*
D03*
X41900Y71650D02*
D03*
X44900Y68900D02*
D03*
X39150Y74650D02*
D03*
X32150Y67900D02*
D03*
Y75150D02*
D03*
X81812Y72150D02*
D03*
Y37400D02*
D03*
Y42364D02*
D03*
Y47329D02*
D03*
Y52293D02*
D03*
Y57257D02*
D03*
Y62221D02*
D03*
Y67186D02*
D03*
X26650Y65186D02*
D03*
Y60221D02*
D03*
Y55257D02*
D03*
Y50293D02*
D03*
Y45329D02*
D03*
Y40364D02*
D03*
Y35400D02*
D03*
Y70150D02*
D03*
X61633Y80900D02*
D03*
X56549D02*
D03*
X66716D02*
D03*
X51466D02*
D03*
X71799D02*
D03*
X76883D02*
D03*
X81966D02*
D03*
Y26511D02*
D03*
X76883D02*
D03*
X71799D02*
D03*
X51466D02*
D03*
X66716D02*
D03*
X56549D02*
D03*
X61633D02*
D03*
X26650D02*
D03*
X42400D02*
D03*
X31900D02*
D03*
X37150D02*
D03*
Y80900D02*
D03*
X31900D02*
D03*
X42400D02*
D03*
X26650D02*
D03*
X54150Y56150D02*
D03*
Y51400D02*
D03*
D18*
X68231Y67706D02*
D03*
X40231D02*
D03*
X68231Y39706D02*
D03*
X40231D02*
D03*
M02*
