M48
;Layer_Color=9474304
;FILE_FORMAT=4:3
METRIC,TZ
;TYPE=PLATED
T1F00S00C0.400
T3F00S00C1.850
T4F00S00C3.200
%
T01
X26650Y26511
X31900
X32150Y30400
Y35150
Y39400
X26650Y35400
X37150Y26511
X42400
Y29650
X41400Y34900
X44900Y38400
X47150Y33400
X54150Y35900
Y30400
X56549Y26511
X51466
X61633
X66716
X71799
X76883
X76400Y32150
Y39150
X68900Y32650
X63900Y37400
X59650Y34150
X81812Y37400
X81966Y26511
X81812Y42364
Y47329
Y52293
Y57257
X79921Y57910
X79920Y58888
X81812Y62221
Y67186
Y72150
X76400Y72150
Y67900
X72900Y64400
X68650Y60650
Y56150
Y51400
Y46900
X64462Y46700
X60862
Y50200
X60700Y56000
X59356Y57910
X59355Y58888
X58510Y59377
Y58399
Y57423
X57665Y57912
X57666Y58889
X58800Y62800
X54150Y62900
X49400
X49952Y59377
Y58399
Y57423
X50798Y57910
X50797Y58888
X49108Y58889
X49107Y57912
X47700Y56000
X47600Y50200
Y46700
X44000
X39900Y46900
Y51400
Y56150
Y60900
X44650Y65150
X44900Y68900
X41900Y71650
X47650Y73900
X54150Y76150
Y69900
X59400Y72150
X63650Y69400
X63900Y64400
X66900Y72400
X64650Y77150
X76400
X78231Y58889
X78230Y57912
X79075Y58399
Y57423
Y59377
X76700Y56000
Y44800
X74150Y41900
X61100Y40500
X54150Y41400
Y46900
Y51400
Y56150
X47400Y41000
X34400Y41900
X31900Y44800
X26650Y45329
Y50293
Y55257
X28705Y57912
X28706Y58889
X29550Y59377
Y58399
Y57423
X30396Y57910
X30395Y58888
X31300Y61000
X26650Y60221
Y65186
Y70150
X32150Y67900
X35900Y64400
X39150Y74650
X32150Y75150
X26650Y40364
Y80900
X31900
X37150
X42400
X51466
X56549
X61633
X66716
X71799
X76883
X81966
T03
X41656Y49001
Y53700
Y58399
X66806
X70616
Y53700
X66806
Y49001
X70616
X37846
Y53700
Y58399
T04
X40231Y39706
Y67706
X68231
Y39706
M30
