G04*
G04 #@! TF.GenerationSoftware,Altium Limited,Altium Designer,18.1.9 (240)*
G04*
G04 Layer_Color=32896*
%FSLAX43Y43*%
%MOMM*%
G71*
G01*
G75*
%ADD10C,0.200*%
%ADD11C,0.254*%
%ADD20C,0.127*%
%ADD22C,0.152*%
%ADD23C,0.076*%
D10*
X45997Y78706D02*
X47803D01*
X46900Y77803D02*
Y79608D01*
D11*
X69831Y39706D02*
G03*
X69831Y39706I-1600J0D01*
G01*
X41831D02*
G03*
X41831Y39706I-1600J0D01*
G01*
X69831Y67706D02*
G03*
X69831Y67706I-1600J0D01*
G01*
X41831D02*
G03*
X41831Y67706I-1600J0D01*
G01*
X44724Y72198D02*
X46426D01*
X41362Y68837D02*
X44724Y72198D01*
X41362Y68837D02*
X42799Y69555D01*
X41362Y68837D02*
X42081Y70274D01*
D20*
X20146Y67706D02*
X38377D01*
X20146Y82011D02*
X24896D01*
X20400Y67706D02*
Y71828D01*
Y77228D02*
Y82011D01*
Y67706D02*
X20654Y68468D01*
X20146D02*
X20400Y67706D01*
X20146Y81249D02*
X20400Y82011D01*
X20654Y81249D01*
X19146Y25400D02*
X24896D01*
X19146Y82011D02*
X24896D01*
X19400Y25400D02*
Y50718D01*
Y56033D02*
Y82011D01*
Y25400D02*
X19654Y26162D01*
X19146D02*
X19400Y25400D01*
X19146Y81249D02*
X19400Y82011D01*
X19654Y81249D01*
X23646Y78706D02*
X45643D01*
X23646Y82011D02*
X24896D01*
X23900D02*
Y83535D01*
Y77182D02*
Y78706D01*
Y82011D02*
X24154Y82773D01*
X23646D02*
X23900Y82011D01*
X23646Y77944D02*
X23900Y78706D01*
X24154Y77944D01*
X50216Y82515D02*
Y87154D01*
X43584Y82515D02*
Y87154D01*
X42060Y86900D02*
X43584D01*
X50216D02*
X51740D01*
X42822Y87154D02*
X43584Y86900D01*
X42822Y86646D02*
X43584Y86900D01*
X50216D02*
X50978Y86646D01*
X50216Y86900D02*
X50978Y87154D01*
X83062Y82515D02*
Y89154D01*
X25400Y82515D02*
Y89154D01*
X56643Y88900D02*
X83062D01*
X25400D02*
X51158D01*
X82300Y89154D02*
X83062Y88900D01*
X82300Y88646D02*
X83062Y88900D01*
X25400D02*
X26162Y88646D01*
X25400Y88900D02*
X26162Y89154D01*
X46900Y79962D02*
Y85654D01*
X25400Y82515D02*
Y85654D01*
X38520Y85400D02*
X46900D01*
X25400D02*
X33120D01*
X46138Y85654D02*
X46900Y85400D01*
X46138Y85146D02*
X46900Y85400D01*
X25400D02*
X26162Y85146D01*
X25400Y85400D02*
X26162Y85654D01*
X40231Y69560D02*
Y84154D01*
X25400Y82515D02*
Y84154D01*
X35143Y83900D02*
X40231D01*
X25400D02*
X29828D01*
X39469Y84154D02*
X40231Y83900D01*
X39469Y83646D02*
X40231Y83900D01*
X25400D02*
X26162Y83646D01*
X25400Y83900D02*
X26162Y84154D01*
D22*
X46680Y71284D02*
Y72808D01*
X47442D01*
X47696Y72554D01*
Y72046D01*
X47442Y71792D01*
X46680D01*
X47188D02*
X47696Y71284D01*
X49727D02*
X50235D01*
X49981D01*
Y72808D01*
X49727Y72554D01*
X50997Y71284D02*
Y71538D01*
X51251D01*
Y71284D01*
X50997D01*
X53282Y72808D02*
X52774Y72554D01*
X52267Y72046D01*
Y71538D01*
X52520Y71284D01*
X53028D01*
X53282Y71538D01*
Y71792D01*
X53028Y72046D01*
X52267D01*
X53790Y72554D02*
X54044Y72808D01*
X54552D01*
X54806Y72554D01*
Y71538D01*
X54552Y71284D01*
X54044D01*
X53790Y71538D01*
Y72554D01*
X56837Y71284D02*
Y72300D01*
X57091D01*
X57345Y72046D01*
Y71284D01*
Y72046D01*
X57599Y72300D01*
X57853Y72046D01*
Y71284D01*
X58361D02*
Y72300D01*
X58614D01*
X58868Y72046D01*
Y71284D01*
Y72046D01*
X59122Y72300D01*
X59376Y72046D01*
Y71284D01*
D23*
X20730Y72158D02*
Y72328D01*
Y72243D01*
X20222D01*
X20307Y72158D01*
X20730Y72835D02*
X20222D01*
X20476Y72582D01*
Y72920D01*
X20730Y73089D02*
X20645D01*
Y73174D01*
X20730D01*
Y73089D01*
X20307Y73513D02*
X20222Y73597D01*
Y73766D01*
X20307Y73851D01*
X20392D01*
X20476Y73766D01*
Y73682D01*
Y73766D01*
X20561Y73851D01*
X20645D01*
X20730Y73766D01*
Y73597D01*
X20645Y73513D01*
X20307Y74020D02*
X20222Y74105D01*
Y74274D01*
X20307Y74359D01*
X20645D01*
X20730Y74274D01*
Y74105D01*
X20645Y74020D01*
X20307D01*
X20222Y74867D02*
X20307Y74698D01*
X20476Y74528D01*
X20645D01*
X20730Y74613D01*
Y74782D01*
X20645Y74867D01*
X20561D01*
X20476Y74782D01*
Y74528D01*
X20307Y75036D02*
X20222Y75121D01*
Y75290D01*
X20307Y75375D01*
X20645D01*
X20730Y75290D01*
Y75121D01*
X20645Y75036D01*
X20307D01*
X20730Y76052D02*
X20392D01*
Y76136D01*
X20476Y76221D01*
X20730D01*
X20476D01*
X20392Y76306D01*
X20476Y76390D01*
X20730D01*
Y76560D02*
X20392D01*
Y76644D01*
X20476Y76729D01*
X20730D01*
X20476D01*
X20392Y76813D01*
X20476Y76898D01*
X20730D01*
X19222Y51386D02*
Y51048D01*
X19476D01*
X19392Y51217D01*
Y51302D01*
X19476Y51386D01*
X19645D01*
X19730Y51302D01*
Y51132D01*
X19645Y51048D01*
X19222Y51894D02*
X19307Y51725D01*
X19476Y51556D01*
X19645D01*
X19730Y51640D01*
Y51810D01*
X19645Y51894D01*
X19561D01*
X19476Y51810D01*
Y51556D01*
X19730Y52064D02*
X19645D01*
Y52148D01*
X19730D01*
Y52064D01*
X19222Y52825D02*
X19307Y52656D01*
X19476Y52487D01*
X19645D01*
X19730Y52571D01*
Y52741D01*
X19645Y52825D01*
X19561D01*
X19476Y52741D01*
Y52487D01*
X19730Y52995D02*
Y53164D01*
Y53079D01*
X19222D01*
X19307Y52995D01*
X19730Y53418D02*
Y53587D01*
Y53502D01*
X19222D01*
X19307Y53418D01*
Y53841D02*
X19222Y53926D01*
Y54095D01*
X19307Y54180D01*
X19645D01*
X19730Y54095D01*
Y53926D01*
X19645Y53841D01*
X19307D01*
X19730Y54857D02*
X19392D01*
Y54941D01*
X19476Y55026D01*
X19730D01*
X19476D01*
X19392Y55111D01*
X19476Y55195D01*
X19730D01*
Y55364D02*
X19392D01*
Y55449D01*
X19476Y55534D01*
X19730D01*
X19476D01*
X19392Y55618D01*
X19476Y55703D01*
X19730D01*
X22817Y77870D02*
X22732Y77955D01*
Y78124D01*
X22817Y78209D01*
X22901D01*
X22986Y78124D01*
Y78039D01*
Y78124D01*
X23070Y78209D01*
X23155D01*
X23240Y78124D01*
Y77955D01*
X23155Y77870D01*
X23240Y78378D02*
X23155D01*
Y78462D01*
X23240D01*
Y78378D01*
X22817Y78801D02*
X22732Y78886D01*
Y79055D01*
X22817Y79140D01*
X22901D01*
X22986Y79055D01*
Y78970D01*
Y79055D01*
X23070Y79140D01*
X23155D01*
X23240Y79055D01*
Y78886D01*
X23155Y78801D01*
X22817Y79309D02*
X22732Y79393D01*
Y79563D01*
X22817Y79647D01*
X23155D01*
X23240Y79563D01*
Y79393D01*
X23155Y79309D01*
X22817D01*
X22732Y80155D02*
X22817Y79986D01*
X22986Y79817D01*
X23155D01*
X23240Y79901D01*
Y80071D01*
X23155Y80155D01*
X23070D01*
X22986Y80071D01*
Y79817D01*
X22817Y80324D02*
X22732Y80409D01*
Y80578D01*
X22817Y80663D01*
X23155D01*
X23240Y80578D01*
Y80409D01*
X23155Y80324D01*
X22817D01*
X23240Y81340D02*
X22901D01*
Y81425D01*
X22986Y81509D01*
X23240D01*
X22986D01*
X22901Y81594D01*
X22986Y81679D01*
X23240D01*
Y81848D02*
X22901D01*
Y81933D01*
X22986Y82017D01*
X23240D01*
X22986D01*
X22901Y82102D01*
X22986Y82187D01*
X23240D01*
X44750Y88068D02*
X44581Y87983D01*
X44411Y87814D01*
Y87645D01*
X44496Y87560D01*
X44665D01*
X44750Y87645D01*
Y87730D01*
X44665Y87814D01*
X44411D01*
X44919Y87560D02*
Y87645D01*
X45004D01*
Y87560D01*
X44919D01*
X45681Y88068D02*
X45512Y87983D01*
X45343Y87814D01*
Y87645D01*
X45427Y87560D01*
X45596D01*
X45681Y87645D01*
Y87730D01*
X45596Y87814D01*
X45343D01*
X45850Y87983D02*
X45935Y88068D01*
X46104D01*
X46189Y87983D01*
Y87899D01*
X46104Y87814D01*
X46020D01*
X46104D01*
X46189Y87730D01*
Y87645D01*
X46104Y87560D01*
X45935D01*
X45850Y87645D01*
X46697Y87560D02*
X46358D01*
X46697Y87899D01*
Y87983D01*
X46612Y88068D01*
X46443D01*
X46358Y87983D01*
X46866D02*
X46951Y88068D01*
X47120D01*
X47205Y87983D01*
Y87645D01*
X47120Y87560D01*
X46951D01*
X46866Y87645D01*
Y87983D01*
X47882Y87560D02*
Y87899D01*
X47966D01*
X48051Y87814D01*
Y87560D01*
Y87814D01*
X48136Y87899D01*
X48220Y87814D01*
Y87560D01*
X48390D02*
Y87899D01*
X48474D01*
X48559Y87814D01*
Y87560D01*
Y87814D01*
X48643Y87899D01*
X48728Y87814D01*
Y87560D01*
X51827Y89078D02*
X51489D01*
Y88824D01*
X51658Y88908D01*
X51742D01*
X51827Y88824D01*
Y88655D01*
X51742Y88570D01*
X51573D01*
X51489Y88655D01*
X51996Y89078D02*
X52335D01*
Y88993D01*
X51996Y88655D01*
Y88570D01*
X52504D02*
Y88655D01*
X52589D01*
Y88570D01*
X52504D01*
X53266Y89078D02*
X53097Y88993D01*
X52927Y88824D01*
Y88655D01*
X53012Y88570D01*
X53181D01*
X53266Y88655D01*
Y88739D01*
X53181Y88824D01*
X52927D01*
X53774Y89078D02*
X53605Y88993D01*
X53435Y88824D01*
Y88655D01*
X53520Y88570D01*
X53689D01*
X53774Y88655D01*
Y88739D01*
X53689Y88824D01*
X53435D01*
X54282Y88570D02*
X53943D01*
X54282Y88908D01*
Y88993D01*
X54197Y89078D01*
X54028D01*
X53943Y88993D01*
X54451D02*
X54536Y89078D01*
X54705D01*
X54789Y88993D01*
Y88655D01*
X54705Y88570D01*
X54536D01*
X54451Y88655D01*
Y88993D01*
X55467Y88570D02*
Y88908D01*
X55551D01*
X55636Y88824D01*
Y88570D01*
Y88824D01*
X55721Y88908D01*
X55805Y88824D01*
Y88570D01*
X55974D02*
Y88908D01*
X56059D01*
X56144Y88824D01*
Y88570D01*
Y88824D01*
X56228Y88908D01*
X56313Y88824D01*
Y88570D01*
X33788Y85070D02*
X33450D01*
X33788Y85408D01*
Y85493D01*
X33704Y85578D01*
X33535D01*
X33450Y85493D01*
X33958Y85070D02*
X34127D01*
X34042D01*
Y85578D01*
X33958Y85493D01*
X34381Y85070D02*
Y85155D01*
X34466D01*
Y85070D01*
X34381D01*
X35143Y85578D02*
X34804D01*
Y85324D01*
X34973Y85408D01*
X35058D01*
X35143Y85324D01*
Y85155D01*
X35058Y85070D01*
X34889D01*
X34804Y85155D01*
X35312Y85493D02*
X35397Y85578D01*
X35566D01*
X35651Y85493D01*
Y85155D01*
X35566Y85070D01*
X35397D01*
X35312Y85155D01*
Y85493D01*
X35820D02*
X35904Y85578D01*
X36074D01*
X36158Y85493D01*
Y85155D01*
X36074Y85070D01*
X35904D01*
X35820Y85155D01*
Y85493D01*
X36328D02*
X36412Y85578D01*
X36582D01*
X36666Y85493D01*
Y85155D01*
X36582Y85070D01*
X36412D01*
X36328Y85155D01*
Y85493D01*
X37343Y85070D02*
Y85408D01*
X37428D01*
X37513Y85324D01*
Y85070D01*
Y85324D01*
X37597Y85408D01*
X37682Y85324D01*
Y85070D01*
X37851D02*
Y85408D01*
X37936D01*
X38020Y85324D01*
Y85070D01*
Y85324D01*
X38105Y85408D01*
X38190Y85324D01*
Y85070D01*
X30158Y83570D02*
X30327D01*
X30242D01*
Y84078D01*
X30158Y83993D01*
X30835Y83570D02*
Y84078D01*
X30581Y83824D01*
X30919D01*
X31089Y83570D02*
Y83655D01*
X31173D01*
Y83570D01*
X31089D01*
X31512Y83993D02*
X31597Y84078D01*
X31766D01*
X31851Y83993D01*
Y83908D01*
X31766Y83824D01*
X31851Y83739D01*
Y83655D01*
X31766Y83570D01*
X31597D01*
X31512Y83655D01*
Y83739D01*
X31597Y83824D01*
X31512Y83908D01*
Y83993D01*
X31597Y83824D02*
X31766D01*
X32020Y83993D02*
X32104Y84078D01*
X32274D01*
X32358Y83993D01*
Y83908D01*
X32274Y83824D01*
X32189D01*
X32274D01*
X32358Y83739D01*
Y83655D01*
X32274Y83570D01*
X32104D01*
X32020Y83655D01*
X32528Y83570D02*
X32697D01*
X32612D01*
Y84078D01*
X32528Y83993D01*
X32951D02*
X33035Y84078D01*
X33205D01*
X33289Y83993D01*
Y83655D01*
X33205Y83570D01*
X33035D01*
X32951Y83655D01*
Y83993D01*
X33966Y83570D02*
Y83908D01*
X34051D01*
X34136Y83824D01*
Y83570D01*
Y83824D01*
X34220Y83908D01*
X34305Y83824D01*
Y83570D01*
X34474D02*
Y83908D01*
X34559D01*
X34644Y83824D01*
Y83570D01*
Y83824D01*
X34728Y83908D01*
X34813Y83824D01*
Y83570D01*
M02*
