G04*
G04 #@! TF.GenerationSoftware,Altium Limited,Altium Designer,18.1.9 (240)*
G04*
G04 Layer_Color=32896*
%FSLAX43Y43*%
%MOMM*%
G71*
G01*
G75*
%ADD11C,0.254*%
D11*
X79054Y32696D02*
X80070D01*
X79562D01*
Y34220D01*
X73454D02*
Y32696D01*
X74216D01*
X74470Y32950D01*
Y33458D01*
X74216Y33712D01*
X73454D01*
X73962D02*
X74470Y34220D01*
X82520Y34950D02*
X82266Y34696D01*
X81758D01*
X81504Y34950D01*
Y35204D01*
X81758Y35458D01*
X82266D01*
X82520Y35712D01*
Y35966D01*
X82266Y36220D01*
X81758D01*
X81504Y35966D01*
X25942Y27662D02*
X26196Y27916D01*
X26704D01*
X26958Y27662D01*
Y27408D01*
X26704Y27154D01*
X26196D01*
X25942Y26900D01*
Y26646D01*
X26196Y26392D01*
X26704D01*
X26958Y26646D01*
X35008Y28392D02*
Y29916D01*
X34246D01*
X33992Y29662D01*
Y29154D01*
X34246Y28900D01*
X35008D01*
X34500D02*
X33992Y28392D01*
X29408Y29916D02*
X28392D01*
X28900D01*
Y28392D01*
X79054Y77495D02*
X80070D01*
X79562D01*
Y79019D01*
X73454D02*
Y77495D01*
X74216D01*
X74470Y77749D01*
Y78257D01*
X74216Y78511D01*
X73454D01*
X73962D02*
X74470Y79019D01*
X82520Y79749D02*
X82266Y79495D01*
X81758D01*
X81504Y79749D01*
Y80003D01*
X81758Y80257D01*
X82266D01*
X82520Y80511D01*
Y80765D01*
X82266Y81019D01*
X81758D01*
X81504Y80765D01*
X25942Y72461D02*
X26196Y72715D01*
X26704D01*
X26958Y72461D01*
Y72207D01*
X26704Y71953D01*
X26196D01*
X25942Y71699D01*
Y71445D01*
X26196Y71191D01*
X26704D01*
X26958Y71445D01*
X35008Y73191D02*
Y74715D01*
X34246D01*
X33992Y74461D01*
Y73953D01*
X34246Y73699D01*
X35008D01*
X34500D02*
X33992Y73191D01*
X29408Y74715D02*
X28392D01*
X28900D01*
Y73191D01*
M02*
