G04*
G04 #@! TF.GenerationSoftware,Altium Limited,Altium Designer,18.1.9 (240)*
G04*
G04 Layer_Color=128*
%FSLAX43Y43*%
%MOMM*%
G71*
G01*
G75*
%ADD20C,0.051*%
D20*
X81512Y32156D02*
X82512D01*
X82012Y31656D02*
Y32656D01*
X79062Y30156D02*
X80062D01*
X79562Y29656D02*
Y30656D01*
X73462Y30156D02*
X74462D01*
X73962Y29656D02*
Y30656D01*
X25950Y30456D02*
X26950D01*
X26450Y29956D02*
Y30956D01*
X28400Y32456D02*
X29400D01*
X28900Y31956D02*
Y32956D01*
X34000Y32456D02*
X35000D01*
X34500Y31956D02*
Y32956D01*
X73462Y74955D02*
X74462D01*
X73962Y74455D02*
Y75455D01*
X79062Y74955D02*
X80062D01*
X79562Y74455D02*
Y75455D01*
X81512Y76955D02*
X82512D01*
X82012Y76455D02*
Y77455D01*
X34000Y77255D02*
X35000D01*
X34500Y76755D02*
Y77755D01*
X28400Y77255D02*
X29400D01*
X28900Y76755D02*
Y77755D01*
X25950Y75255D02*
X26950D01*
X26450Y74755D02*
Y75755D01*
X65881Y53700D02*
X67731D01*
X66806Y52775D02*
Y54625D01*
X65881Y49001D02*
X67731D01*
X66806Y48076D02*
Y49926D01*
X65881Y58399D02*
X67731D01*
X66806Y57474D02*
Y59324D01*
X69691Y58399D02*
X71541D01*
X70616Y57474D02*
Y59324D01*
X69691Y49001D02*
X71541D01*
X70616Y48076D02*
Y49926D01*
X69691Y53700D02*
X71541D01*
X70616Y52775D02*
Y54625D01*
X36921Y53700D02*
X38771D01*
X37846Y52775D02*
Y54625D01*
X36921Y58399D02*
X38771D01*
X37846Y57474D02*
Y59324D01*
X36921Y49001D02*
X38771D01*
X37846Y48076D02*
Y49926D01*
X40731Y49001D02*
X42581D01*
X41656Y48076D02*
Y49926D01*
X40731Y58399D02*
X42581D01*
X41656Y57474D02*
Y59324D01*
X40731Y53700D02*
X42581D01*
X41656Y52775D02*
Y54625D01*
X31700Y44800D02*
X32100D01*
X31900Y44600D02*
Y45000D01*
X31100Y61000D02*
X31500D01*
X31300Y60800D02*
Y61200D01*
X76500Y44800D02*
X76900D01*
X76700Y44600D02*
Y45000D01*
X76500Y56000D02*
X76900D01*
X76700Y55800D02*
Y56200D01*
X58600Y62800D02*
X59000D01*
X58800Y62600D02*
Y63000D01*
X60500Y56000D02*
X60900D01*
X60700Y55800D02*
Y56200D01*
X47500Y56000D02*
X47900D01*
X47700Y55800D02*
Y56200D01*
X60662Y50200D02*
X61062D01*
X60862Y50000D02*
Y50400D01*
X60662Y46700D02*
X61062D01*
X60862Y46500D02*
Y46900D01*
X64262Y46700D02*
X64662D01*
X64462Y46500D02*
Y46900D01*
X43800Y46700D02*
X44200D01*
X44000Y46500D02*
Y46900D01*
X47400Y46700D02*
X47800D01*
X47600Y46500D02*
Y46900D01*
X47400Y50200D02*
X47800D01*
X47600Y50000D02*
Y50400D01*
X78031Y58889D02*
X78431D01*
X78231Y58688D02*
Y59089D01*
X78030Y57912D02*
X78430D01*
X78230Y57712D02*
Y58112D01*
X79721Y57910D02*
X80121D01*
X79921Y57710D02*
Y58111D01*
X78875Y57423D02*
X79275D01*
X79075Y57223D02*
Y57623D01*
X78875Y59377D02*
X79275D01*
X79075Y59177D02*
Y59577D01*
X79720Y58888D02*
X80120D01*
X79920Y58688D02*
Y59088D01*
X57466Y58889D02*
X57866D01*
X57666Y58688D02*
Y59089D01*
X57465Y57912D02*
X57865D01*
X57665Y57712D02*
Y58112D01*
X59156Y57910D02*
X59556D01*
X59356Y57710D02*
Y58111D01*
X58310Y57423D02*
X58710D01*
X58510Y57223D02*
Y57623D01*
X58310Y59377D02*
X58710D01*
X58510Y59177D02*
Y59577D01*
X59155Y58888D02*
X59555D01*
X59355Y58688D02*
Y59088D01*
X48908Y58889D02*
X49308D01*
X49108Y58688D02*
Y59089D01*
X48907Y57912D02*
X49307D01*
X49107Y57712D02*
Y58112D01*
X50598Y57910D02*
X50998D01*
X50798Y57710D02*
Y58111D01*
X49752Y57423D02*
X50152D01*
X49952Y57223D02*
Y57623D01*
X49752Y59377D02*
X50152D01*
X49952Y59177D02*
Y59577D01*
X50597Y58888D02*
X50997D01*
X50797Y58688D02*
Y59088D01*
X30195Y58888D02*
X30595D01*
X30395Y58688D02*
Y59088D01*
X29350Y59377D02*
X29750D01*
X29550Y59177D02*
Y59577D01*
X29350Y57423D02*
X29750D01*
X29550Y57223D02*
Y57623D01*
X30196Y57910D02*
X30596D01*
X30396Y57710D02*
Y58111D01*
X28505Y57912D02*
X28905D01*
X28705Y57712D02*
Y58112D01*
X28506Y58889D02*
X28906D01*
X28706Y58688D02*
Y59089D01*
X78875Y58399D02*
X79275D01*
X79075Y58199D02*
Y58599D01*
X29350Y58399D02*
X29750D01*
X29550Y58199D02*
Y58599D01*
X58310Y58399D02*
X58710D01*
X58510Y58199D02*
Y58599D01*
X49752Y58399D02*
X50152D01*
X49952Y58199D02*
Y58599D01*
X34200Y41900D02*
X34600D01*
X34400Y41700D02*
Y42100D01*
X49200Y62900D02*
X49600D01*
X49400Y62700D02*
Y63100D01*
X64450Y77150D02*
X64850D01*
X64650Y76950D02*
Y77350D01*
X59200Y72150D02*
X59600D01*
X59400Y71950D02*
Y72350D01*
X59450Y34150D02*
X59850D01*
X59650Y33950D02*
Y34350D01*
X53950Y30400D02*
X54350D01*
X54150Y30200D02*
Y30600D01*
X53950Y35900D02*
X54350D01*
X54150Y35700D02*
Y36100D01*
X53950Y41400D02*
X54350D01*
X54150Y41200D02*
Y41600D01*
X53950Y76150D02*
X54350D01*
X54150Y75950D02*
Y76350D01*
X53950Y69900D02*
X54350D01*
X54150Y69700D02*
Y70100D01*
X53950Y62900D02*
X54350D01*
X54150Y62700D02*
Y63100D01*
X53950Y46900D02*
X54350D01*
X54150Y46700D02*
Y47100D01*
X46950Y33400D02*
X47350D01*
X47150Y33200D02*
Y33600D01*
X42200Y29650D02*
X42600D01*
X42400Y29450D02*
Y29850D01*
X31950Y30400D02*
X32350D01*
X32150Y30200D02*
Y30600D01*
X31950Y35150D02*
X32350D01*
X32150Y34950D02*
Y35350D01*
X47200Y41000D02*
X47600D01*
X47400Y40800D02*
Y41200D01*
X44700Y38400D02*
X45100D01*
X44900Y38200D02*
Y38600D01*
X41200Y34900D02*
X41600D01*
X41400Y34700D02*
Y35100D01*
X31950Y39400D02*
X32350D01*
X32150Y39200D02*
Y39600D01*
X35700Y64400D02*
X36100D01*
X35900Y64200D02*
Y64600D01*
X73950Y41900D02*
X74350D01*
X74150Y41700D02*
Y42100D01*
X60900Y40500D02*
X61300D01*
X61100Y40300D02*
Y40700D01*
X63700Y37400D02*
X64100D01*
X63900Y37200D02*
Y37600D01*
X68700Y32650D02*
X69100D01*
X68900Y32450D02*
Y32850D01*
X76200Y32150D02*
X76600D01*
X76400Y31950D02*
Y32350D01*
X76200Y39150D02*
X76600D01*
X76400Y38950D02*
Y39350D01*
X76200Y72150D02*
X76600D01*
X76400Y71950D02*
Y72350D01*
X76200Y77150D02*
X76600D01*
X76400Y76950D02*
Y77350D01*
X72700Y64400D02*
X73100D01*
X72900Y64200D02*
Y64600D01*
X76200Y67900D02*
X76600D01*
X76400Y67700D02*
Y68100D01*
X63700Y64400D02*
X64100D01*
X63900Y64200D02*
Y64600D01*
X63450Y69400D02*
X63850D01*
X63650Y69200D02*
Y69600D01*
X66700Y72400D02*
X67100D01*
X66900Y72200D02*
Y72600D01*
X47450Y73900D02*
X47850D01*
X47650Y73700D02*
Y74100D01*
X39700Y46900D02*
X40100D01*
X39900Y46700D02*
Y47100D01*
X68450Y46900D02*
X68850D01*
X68650Y46700D02*
Y47100D01*
X68450Y60650D02*
X68850D01*
X68650Y60450D02*
Y60850D01*
X68450Y51400D02*
X68850D01*
X68650Y51200D02*
Y51600D01*
X68450Y56150D02*
X68850D01*
X68650Y55950D02*
Y56350D01*
X39700Y51400D02*
X40100D01*
X39900Y51200D02*
Y51600D01*
X39700Y56150D02*
X40100D01*
X39900Y55950D02*
Y56350D01*
X39700Y60900D02*
X40100D01*
X39900Y60700D02*
Y61100D01*
X44450Y65150D02*
X44850D01*
X44650Y64950D02*
Y65350D01*
X41700Y71650D02*
X42100D01*
X41900Y71450D02*
Y71850D01*
X44700Y68900D02*
X45100D01*
X44900Y68700D02*
Y69100D01*
X38950Y74650D02*
X39350D01*
X39150Y74450D02*
Y74850D01*
X31950Y67900D02*
X32350D01*
X32150Y67700D02*
Y68100D01*
X31950Y75150D02*
X32350D01*
X32150Y74950D02*
Y75350D01*
X81612Y72150D02*
X82012D01*
X81812Y71950D02*
Y72350D01*
X81612Y37400D02*
X82012D01*
X81812Y37200D02*
Y37600D01*
X81612Y42364D02*
X82012D01*
X81812Y42164D02*
Y42564D01*
X81612Y47329D02*
X82012D01*
X81812Y47129D02*
Y47529D01*
X81612Y52293D02*
X82012D01*
X81812Y52093D02*
Y52493D01*
X81612Y57257D02*
X82012D01*
X81812Y57057D02*
Y57457D01*
X81612Y62221D02*
X82012D01*
X81812Y62021D02*
Y62421D01*
X81612Y67186D02*
X82012D01*
X81812Y66986D02*
Y67386D01*
X26450Y65186D02*
X26850D01*
X26650Y64986D02*
Y65386D01*
X26450Y60221D02*
X26850D01*
X26650Y60021D02*
Y60421D01*
X26450Y55257D02*
X26850D01*
X26650Y55057D02*
Y55457D01*
X26450Y50293D02*
X26850D01*
X26650Y50093D02*
Y50493D01*
X26450Y45329D02*
X26850D01*
X26650Y45129D02*
Y45529D01*
X26450Y40364D02*
X26850D01*
X26650Y40164D02*
Y40564D01*
X26450Y35400D02*
X26850D01*
X26650Y35200D02*
Y35600D01*
X26450Y70150D02*
X26850D01*
X26650Y69950D02*
Y70350D01*
X61433Y80900D02*
X61833D01*
X61633Y80700D02*
Y81100D01*
X56349Y80900D02*
X56749D01*
X56549Y80700D02*
Y81100D01*
X66516Y80900D02*
X66916D01*
X66716Y80700D02*
Y81100D01*
X51266Y80900D02*
X51666D01*
X51466Y80700D02*
Y81100D01*
X71599Y80900D02*
X71999D01*
X71799Y80700D02*
Y81100D01*
X76683Y80900D02*
X77083D01*
X76883Y80700D02*
Y81100D01*
X81766Y80900D02*
X82166D01*
X81966Y80700D02*
Y81100D01*
X81766Y26511D02*
X82166D01*
X81966Y26311D02*
Y26711D01*
X76683Y26511D02*
X77083D01*
X76883Y26311D02*
Y26711D01*
X71599Y26511D02*
X71999D01*
X71799Y26311D02*
Y26711D01*
X51266Y26511D02*
X51666D01*
X51466Y26311D02*
Y26711D01*
X66516Y26511D02*
X66916D01*
X66716Y26311D02*
Y26711D01*
X56349Y26511D02*
X56749D01*
X56549Y26311D02*
Y26711D01*
X61433Y26511D02*
X61833D01*
X61633Y26311D02*
Y26711D01*
X26450Y26511D02*
X26850D01*
X26650Y26311D02*
Y26711D01*
X42200Y26511D02*
X42600D01*
X42400Y26311D02*
Y26711D01*
X31700Y26511D02*
X32100D01*
X31900Y26311D02*
Y26711D01*
X36950Y26511D02*
X37350D01*
X37150Y26311D02*
Y26711D01*
X36950Y80900D02*
X37350D01*
X37150Y80700D02*
Y81100D01*
X31700Y80900D02*
X32100D01*
X31900Y80700D02*
Y81100D01*
X42200Y80900D02*
X42600D01*
X42400Y80700D02*
Y81100D01*
X26450Y80900D02*
X26850D01*
X26650Y80700D02*
Y81100D01*
X53950Y56150D02*
X54350D01*
X54150Y55950D02*
Y56350D01*
X53950Y51400D02*
X54350D01*
X54150Y51200D02*
Y51600D01*
X66631Y67706D02*
X69831D01*
X68231Y66106D02*
Y69306D01*
X38631Y67706D02*
X41831D01*
X40231Y66106D02*
Y69306D01*
X66631Y39706D02*
X69831D01*
X68231Y38106D02*
Y41306D01*
X38631Y39706D02*
X41831D01*
X40231Y38106D02*
Y41306D01*
M02*
