G04*
G04 #@! TF.GenerationSoftware,Altium Limited,Altium Designer,18.1.9 (240)*
G04*
G04 Layer_Color=2752767*
%FSLAX43Y43*%
%MOMM*%
G71*
G01*
G75*
%ADD20C,0.051*%
%ADD21C,0.068*%
D20*
X81809Y31953D02*
Y32359D01*
X82215D01*
Y31953D01*
X81809D01*
X79359Y29953D02*
Y30359D01*
X79765D01*
Y29953D01*
X79359D01*
X73759D02*
Y30359D01*
X74165D01*
Y29953D01*
X73759D01*
X26247Y30253D02*
Y30659D01*
X26653D01*
Y30253D01*
X26247D01*
X28697Y32253D02*
Y32659D01*
X29103D01*
Y32253D01*
X28697D01*
X34297D02*
Y32659D01*
X34703D01*
Y32253D01*
X34297D01*
X73759Y74752D02*
Y75158D01*
X74165D01*
Y74752D01*
X73759D01*
X79359D02*
Y75158D01*
X79765D01*
Y74752D01*
X79359D01*
X81809Y76752D02*
Y77158D01*
X82215D01*
Y76752D01*
X81809D01*
X34297Y77052D02*
Y77458D01*
X34703D01*
Y77052D01*
X34297D01*
X28697D02*
Y77458D01*
X29103D01*
Y77052D01*
X28697D01*
X26247Y75052D02*
Y75458D01*
X26653D01*
Y75052D01*
X26247D01*
X31900Y44597D02*
X31697Y45003D01*
X32103D01*
X31900Y44597D01*
X31300Y60797D02*
X31097Y61203D01*
X31503D01*
X31300Y60797D01*
X76700Y44597D02*
X76497Y45003D01*
X76903D01*
X76700Y44597D01*
Y55797D02*
X76497Y56203D01*
X76903D01*
X76700Y55797D01*
X58800Y62597D02*
X58597Y63003D01*
X59003D01*
X58800Y62597D01*
X60700Y55797D02*
X60497Y56203D01*
X60903D01*
X60700Y55797D01*
X47700D02*
X47497Y56203D01*
X47903D01*
X47700Y55797D01*
X60862Y49997D02*
X60659Y50403D01*
X61065D01*
X60862Y49997D01*
Y46497D02*
X60659Y46903D01*
X61065D01*
X60862Y46497D01*
X64462D02*
X64259Y46903D01*
X64665D01*
X64462Y46497D01*
X44000D02*
X43797Y46903D01*
X44203D01*
X44000Y46497D01*
X47600D02*
X47397Y46903D01*
X47803D01*
X47600Y46497D01*
Y49997D02*
X47397Y50403D01*
X47803D01*
X47600Y49997D01*
X78231Y58685D02*
X78027Y59092D01*
X78434D01*
X78231Y58685D01*
X78230Y57709D02*
X78027Y58115D01*
X78433D01*
X78230Y57709D01*
X79921Y57707D02*
X79718Y58114D01*
X80124D01*
X79921Y57707D01*
X79075Y57220D02*
X78872Y57626D01*
X79278D01*
X79075Y57220D01*
Y59174D02*
X78872Y59580D01*
X79278D01*
X79075Y59174D01*
X79920Y58685D02*
X79717Y59091D01*
X80123D01*
X79920Y58685D01*
X57666Y58685D02*
X57462Y59092D01*
X57869D01*
X57666Y58685D01*
X57665Y57709D02*
X57462Y58115D01*
X57868D01*
X57665Y57709D01*
X59356Y57707D02*
X59153Y58114D01*
X59559D01*
X59356Y57707D01*
X58510Y57220D02*
X58307Y57626D01*
X58713D01*
X58510Y57220D01*
Y59174D02*
X58307Y59580D01*
X58713D01*
X58510Y59174D01*
X59355Y58685D02*
X59152Y59091D01*
X59558D01*
X59355Y58685D01*
X49108Y58685D02*
X48904Y59092D01*
X49311D01*
X49108Y58685D01*
X49107Y57709D02*
X48904Y58115D01*
X49310D01*
X49107Y57709D01*
X50798Y57707D02*
X50595Y58114D01*
X51001D01*
X50798Y57707D01*
X49952Y57220D02*
X49749Y57626D01*
X50155D01*
X49952Y57220D01*
Y59174D02*
X49749Y59580D01*
X50155D01*
X49952Y59174D01*
X50797Y58685D02*
X50594Y59091D01*
X51000D01*
X50797Y58685D01*
X30395D02*
X30192Y59091D01*
X30598D01*
X30395Y58685D01*
X29550Y59174D02*
X29347Y59580D01*
X29753D01*
X29550Y59174D01*
Y57220D02*
X29347Y57626D01*
X29753D01*
X29550Y57220D01*
X30396Y57707D02*
X30193Y58114D01*
X30599D01*
X30396Y57707D01*
X28705Y57709D02*
X28502Y58115D01*
X28908D01*
X28705Y57709D01*
X28706Y58685D02*
X28502Y59092D01*
X28909D01*
X28706Y58685D01*
X79075Y58196D02*
X78872Y58602D01*
X79278D01*
X79075Y58196D01*
X29550D02*
X29347Y58602D01*
X29753D01*
X29550Y58196D01*
X58510D02*
X58307Y58602D01*
X58713D01*
X58510Y58196D01*
X49952D02*
X49749Y58602D01*
X50155D01*
X49952Y58196D01*
X34400Y41697D02*
X34197Y42103D01*
X34603D01*
X34400Y41697D01*
X49400Y62697D02*
X49197Y63103D01*
X49603D01*
X49400Y62697D01*
X64650Y76947D02*
X64447Y77353D01*
X64853D01*
X64650Y76947D01*
X59400Y71947D02*
X59197Y72353D01*
X59603D01*
X59400Y71947D01*
X59650Y33947D02*
X59447Y34353D01*
X59853D01*
X59650Y33947D01*
X54150Y30197D02*
X53947Y30603D01*
X54353D01*
X54150Y30197D01*
Y35697D02*
X53947Y36103D01*
X54353D01*
X54150Y35697D01*
Y41197D02*
X53947Y41603D01*
X54353D01*
X54150Y41197D01*
Y75947D02*
X53947Y76353D01*
X54353D01*
X54150Y75947D01*
Y69697D02*
X53947Y70103D01*
X54353D01*
X54150Y69697D01*
Y62697D02*
X53947Y63103D01*
X54353D01*
X54150Y62697D01*
Y46697D02*
X53947Y47103D01*
X54353D01*
X54150Y46697D01*
X47150Y33197D02*
X46947Y33603D01*
X47353D01*
X47150Y33197D01*
X42400Y29447D02*
X42197Y29853D01*
X42603D01*
X42400Y29447D01*
X32150Y30197D02*
X31947Y30603D01*
X32353D01*
X32150Y30197D01*
Y34947D02*
X31947Y35353D01*
X32353D01*
X32150Y34947D01*
X47400Y40797D02*
X47197Y41203D01*
X47603D01*
X47400Y40797D01*
X44900Y38197D02*
X44697Y38603D01*
X45103D01*
X44900Y38197D01*
X41400Y34697D02*
X41197Y35103D01*
X41603D01*
X41400Y34697D01*
X32150Y39197D02*
X31947Y39603D01*
X32353D01*
X32150Y39197D01*
X35900Y64197D02*
X35697Y64603D01*
X36103D01*
X35900Y64197D01*
X74150Y41697D02*
X73947Y42103D01*
X74353D01*
X74150Y41697D01*
X61100Y40297D02*
X60897Y40703D01*
X61303D01*
X61100Y40297D01*
X63900Y37197D02*
X63697Y37603D01*
X64103D01*
X63900Y37197D01*
X68900Y32447D02*
X68697Y32853D01*
X69103D01*
X68900Y32447D01*
X76400Y31947D02*
X76197Y32353D01*
X76603D01*
X76400Y31947D01*
Y38947D02*
X76197Y39353D01*
X76603D01*
X76400Y38947D01*
Y71947D02*
X76197Y72353D01*
X76603D01*
X76400Y71947D01*
Y76947D02*
X76197Y77353D01*
X76603D01*
X76400Y76947D01*
X72900Y64197D02*
X72697Y64603D01*
X73103D01*
X72900Y64197D01*
X76400Y67697D02*
X76197Y68103D01*
X76603D01*
X76400Y67697D01*
X63900Y64197D02*
X63697Y64603D01*
X64103D01*
X63900Y64197D01*
X63650Y69197D02*
X63447Y69603D01*
X63853D01*
X63650Y69197D01*
X66900Y72197D02*
X66697Y72603D01*
X67103D01*
X66900Y72197D01*
X47650Y73697D02*
X47447Y74103D01*
X47853D01*
X47650Y73697D01*
X39900Y46697D02*
X39697Y47103D01*
X40103D01*
X39900Y46697D01*
X68650D02*
X68447Y47103D01*
X68853D01*
X68650Y46697D01*
Y60447D02*
X68447Y60853D01*
X68853D01*
X68650Y60447D01*
Y51197D02*
X68447Y51603D01*
X68853D01*
X68650Y51197D01*
Y55947D02*
X68447Y56353D01*
X68853D01*
X68650Y55947D01*
X39900Y51197D02*
X39697Y51603D01*
X40103D01*
X39900Y51197D01*
Y55947D02*
X39697Y56353D01*
X40103D01*
X39900Y55947D01*
Y60697D02*
X39697Y61103D01*
X40103D01*
X39900Y60697D01*
X44650Y64947D02*
X44447Y65353D01*
X44853D01*
X44650Y64947D01*
X41900Y71447D02*
X41697Y71853D01*
X42103D01*
X41900Y71447D01*
X44900Y68697D02*
X44697Y69103D01*
X45103D01*
X44900Y68697D01*
X39150Y74447D02*
X38947Y74853D01*
X39353D01*
X39150Y74447D01*
X32150Y67697D02*
X31947Y68103D01*
X32353D01*
X32150Y67697D01*
Y74947D02*
X31947Y75353D01*
X32353D01*
X32150Y74947D01*
X81812Y71947D02*
X81609Y72353D01*
X82015D01*
X81812Y71947D01*
Y37197D02*
X81609Y37603D01*
X82015D01*
X81812Y37197D01*
Y42161D02*
X81609Y42567D01*
X82015D01*
X81812Y42161D01*
Y47125D02*
X81609Y47532D01*
X82015D01*
X81812Y47125D01*
Y52090D02*
X81609Y52496D01*
X82015D01*
X81812Y52090D01*
Y57054D02*
X81609Y57460D01*
X82015D01*
X81812Y57054D01*
Y62018D02*
X81609Y62425D01*
X82015D01*
X81812Y62018D01*
Y66982D02*
X81609Y67389D01*
X82015D01*
X81812Y66982D01*
X26650Y64982D02*
X26447Y65389D01*
X26853D01*
X26650Y64982D01*
Y60018D02*
X26447Y60425D01*
X26853D01*
X26650Y60018D01*
Y55054D02*
X26447Y55460D01*
X26853D01*
X26650Y55054D01*
Y50090D02*
X26447Y50496D01*
X26853D01*
X26650Y50090D01*
Y45125D02*
X26447Y45532D01*
X26853D01*
X26650Y45125D01*
Y40161D02*
X26447Y40567D01*
X26853D01*
X26650Y40161D01*
Y35197D02*
X26447Y35603D01*
X26853D01*
X26650Y35197D01*
Y69947D02*
X26447Y70353D01*
X26853D01*
X26650Y69947D01*
X61633Y80697D02*
X61430Y81103D01*
X61836D01*
X61633Y80697D01*
X56549D02*
X56346Y81103D01*
X56753D01*
X56549Y80697D01*
X66716D02*
X66513Y81103D01*
X66919D01*
X66716Y80697D01*
X51466D02*
X51263Y81103D01*
X51669D01*
X51466Y80697D01*
X71799D02*
X71596Y81103D01*
X72003D01*
X71799Y80697D01*
X76883D02*
X76680Y81103D01*
X77086D01*
X76883Y80697D01*
X81966D02*
X81763Y81103D01*
X82169D01*
X81966Y80697D01*
Y26308D02*
X81763Y26714D01*
X82169D01*
X81966Y26308D01*
X76883D02*
X76680Y26714D01*
X77086D01*
X76883Y26308D01*
X71799D02*
X71596Y26714D01*
X72003D01*
X71799Y26308D01*
X51466D02*
X51263Y26714D01*
X51669D01*
X51466Y26308D01*
X66716D02*
X66513Y26714D01*
X66919D01*
X66716Y26308D01*
X56549D02*
X56346Y26714D01*
X56753D01*
X56549Y26308D01*
X61633D02*
X61430Y26714D01*
X61836D01*
X61633Y26308D01*
X26650D02*
X26447Y26714D01*
X26853D01*
X26650Y26308D01*
X42400D02*
X42197Y26714D01*
X42603D01*
X42400Y26308D01*
X31900D02*
X31697Y26714D01*
X32103D01*
X31900Y26308D01*
X37150D02*
X36947Y26714D01*
X37353D01*
X37150Y26308D01*
Y80697D02*
X36947Y81103D01*
X37353D01*
X37150Y80697D01*
X31900D02*
X31697Y81103D01*
X32103D01*
X31900Y80697D01*
X42400D02*
X42197Y81103D01*
X42603D01*
X42400Y80697D01*
X26650D02*
X26447Y81103D01*
X26853D01*
X26650Y80697D01*
X54150Y55947D02*
X53947Y56353D01*
X54353D01*
X54150Y55947D01*
Y51197D02*
X53947Y51603D01*
X54353D01*
X54150Y51197D01*
X68231Y67502D02*
X68333Y67604D01*
X68434D01*
X68333Y67706D01*
X68434Y67807D01*
X68333D01*
X68231Y67909D01*
X68129Y67807D01*
X68028D01*
X68129Y67706D01*
X68028Y67604D01*
X68129D01*
X68231Y67502D01*
X40231D02*
X40333Y67604D01*
X40434D01*
X40333Y67706D01*
X40434Y67807D01*
X40333D01*
X40231Y67909D01*
X40129Y67807D01*
X40028D01*
X40129Y67706D01*
X40028Y67604D01*
X40129D01*
X40231Y67502D01*
X68231Y39502D02*
X68333Y39604D01*
X68434D01*
X68333Y39706D01*
X68434Y39807D01*
X68333D01*
X68231Y39909D01*
X68129Y39807D01*
X68028D01*
X68129Y39706D01*
X68028Y39604D01*
X68129D01*
X68231Y39502D01*
X40231D02*
X40333Y39604D01*
X40434D01*
X40333Y39706D01*
X40434Y39807D01*
X40333D01*
X40231Y39909D01*
X40129Y39807D01*
X40028D01*
X40129Y39706D01*
X40028Y39604D01*
X40129D01*
X40231Y39502D01*
D21*
X67009Y53700D02*
G03*
X67009Y53700I-203J0D01*
G01*
Y49001D02*
G03*
X67009Y49001I-203J0D01*
G01*
Y58399D02*
G03*
X67009Y58399I-203J0D01*
G01*
X70819D02*
G03*
X70819Y58399I-203J0D01*
G01*
Y49001D02*
G03*
X70819Y49001I-203J0D01*
G01*
Y53700D02*
G03*
X70819Y53700I-203J0D01*
G01*
X38049D02*
G03*
X38049Y53700I-203J0D01*
G01*
Y58399D02*
G03*
X38049Y58399I-203J0D01*
G01*
Y49001D02*
G03*
X38049Y49001I-203J0D01*
G01*
X41859D02*
G03*
X41859Y49001I-203J0D01*
G01*
Y58399D02*
G03*
X41859Y58399I-203J0D01*
G01*
Y53700D02*
G03*
X41859Y53700I-203J0D01*
G01*
M02*
