M48
;Layer_Color=9474304
;FILE_FORMAT=4:3
METRIC,TZ
;TYPE=PLATED
T2F00S00C1.000
%
G90
G05
T02
G00X26450Y29956
M15
G01Y30956
M16
G00X28900Y31956
M15
G01Y32956
M16
G00X34500Y31956
M15
G01Y32956
M16
G00X73962Y30656
M15
G01Y29656
M16
G00X79562Y30656
M15
G01Y29656
M16
G00X82012Y32656
M15
G01Y31656
M16
G00X82012Y77455
M15
G01Y76455
M16
G00X79562Y75455
M15
G01Y74455
M16
G00X73962Y75455
M15
G01Y74455
M16
G00X34500Y76755
M15
G01Y77755
M16
G00X28900Y76755
M15
G01Y77755
M16
G00X26450Y74755
M15
G01Y75755
M16
M17
M30
